<ttFont>
    <TTGlyph name=".notdef" xMin="128" yMin="128" xMax="896" yMax="1024">
      <contour>
        <pt x="128" y="576" on="1"/>
        <pt x="128" y="1024" on="1"/>
        <pt x="512" y="1024" on="1"/>
        <pt x="896" y="1024" on="1"/>
        <pt x="896" y="576" on="1"/>
        <pt x="896" y="128" on="1"/>
        <pt x="512" y="128" on="1"/>
        <pt x="128" y="128" on="1"/>
      </contour>
      <contour>
        <pt x="768" y="704" on="1"/>
        <pt x="768" y="896" on="1"/>
        <pt x="512" y="896" on="1"/>
        <pt x="256" y="896" on="1"/>
        <pt x="256" y="832" on="1"/>
        <pt x="256" y="768" on="1"/>
        <pt x="448" y="768" on="1"/>
        <pt x="640" y="768" on="1"/>
        <pt x="640" y="704" on="1"/>
        <pt x="640" y="640" on="1"/>
        <pt x="512" y="640" on="1"/>
        <pt x="384" y="640" on="1"/>
        <pt x="384" y="576" on="1"/>
        <pt x="384" y="512" on="1"/>
        <pt x="576" y="512" on="1"/>
        <pt x="768" y="512" on="1"/>
      </contour>
      <contour>
        <pt x="512" y="320" on="1"/>
        <pt x="512" y="384" on="1"/>
        <pt x="448" y="384" on="1"/>
        <pt x="384" y="384" on="1"/>
        <pt x="384" y="320" on="1"/>
        <pt x="384" y="256" on="1"/>
        <pt x="448" y="256" on="1"/>
        <pt x="512" y="256" on="1"/>
      </contour>
    </TTGlyph>
    <TTGlyph name="A" xMin="0" yMin="128" xMax="896" yMax="1024">
      <contour>
        <pt x="256" y="960" on="1"/>
        <pt x="256" y="1024" on="1"/>
        <pt x="448" y="1024" on="1"/>
        <pt x="640" y="1024" on="1"/>
        <pt x="640" y="960" on="1"/>
        <pt x="640" y="896" on="1"/>
        <pt x="704" y="896" on="1"/>
        <pt x="768" y="896" on="1"/>
        <pt x="768" y="832" on="1"/>
        <pt x="768" y="768" on="1"/>
        <pt x="832" y="768" on="1"/>
        <pt x="896" y="768" on="1"/>
        <pt x="896" y="448" on="1"/>
        <pt x="896" y="128" on="1"/>
        <pt x="768" y="128" on="1"/>
        <pt x="640" y="128" on="1"/>
        <pt x="640" y="256" on="1"/>
        <pt x="640" y="384" on="1"/>
        <pt x="448" y="384" on="1"/>
        <pt x="256" y="384" on="1"/>
        <pt x="256" y="256" on="1"/>
        <pt x="256" y="128" on="1"/>
        <pt x="128" y="128" on="1"/>
        <pt x="0" y="128" on="1"/>
        <pt x="0" y="448" on="1"/>
        <pt x="0" y="768" on="1"/>
        <pt x="64" y="768" on="1"/>
        <pt x="128" y="768" on="1"/>
        <pt x="128" y="832" on="1"/>
        <pt x="128" y="896" on="1"/>
        <pt x="192" y="896" on="1"/>
        <pt x="256" y="896" on="1"/>
      </contour>
      <contour>
        <pt x="512" y="832" on="1"/>
        <pt x="512" y="896" on="1"/>
        <pt x="448" y="896" on="1"/>
        <pt x="384" y="896" on="1"/>
        <pt x="384" y="832" on="1"/>
        <pt x="384" y="768" on="1"/>
        <pt x="320" y="768" on="1"/>
        <pt x="256" y="768" on="1"/>
        <pt x="256" y="640" on="1"/>
        <pt x="256" y="512" on="1"/>
        <pt x="448" y="512" on="1"/>
        <pt x="640" y="512" on="1"/>
        <pt x="640" y="640" on="1"/>
        <pt x="640" y="768" on="1"/>
        <pt x="576" y="768" on="1"/>
        <pt x="512" y="768" on="1"/>
      </contour>
    </TTGlyph>
    <TTGlyph name="AE" xMin="0" yMin="128" xMax="896" yMax="1024">
      <contour>
        <pt x="256" y="960" on="1"/>
        <pt x="256" y="1024" on="1"/>
        <pt x="576" y="1024" on="1"/>
        <pt x="896" y="1024" on="1"/>
        <pt x="896" y="960" on="1"/>
        <pt x="896" y="896" on="1"/>
        <pt x="768" y="896" on="1"/>
        <pt x="640" y="896" on="1"/>
        <pt x="640" y="768" on="1"/>
        <pt x="640" y="640" on="1"/>
        <pt x="768" y="640" on="1"/>
        <pt x="896" y="640" on="1"/>
        <pt x="896" y="576" on="1"/>
        <pt x="896" y="512" on="1"/>
        <pt x="768" y="512" on="1"/>
        <pt x="640" y="512" on="1"/>
        <pt x="640" y="384" on="1"/>
        <pt x="640" y="256" on="1"/>
        <pt x="768" y="256" on="1"/>
        <pt x="896" y="256" on="1"/>
        <pt x="896" y="192" on="1"/>
        <pt x="896" y="128" on="1"/>
        <pt x="640" y="128" on="1"/>
        <pt x="384" y="128" on="1"/>
        <pt x="384" y="256" on="1"/>
        <pt x="384" y="384" on="1"/>
        <pt x="320" y="384" on="1"/>
        <pt x="256" y="384" on="1"/>
        <pt x="256" y="256" on="1"/>
        <pt x="256" y="128" on="1"/>
        <pt x="128" y="128" on="1"/>
        <pt x="0" y="128" on="1"/>
        <pt x="0" y="448" on="1"/>
        <pt x="0" y="768" on="1"/>
        <pt x="64" y="768" on="1"/>
        <pt x="128" y="768" on="1"/>
        <pt x="128" y="832" on="1"/>
        <pt x="128" y="896" on="1"/>
        <pt x="192" y="896" on="1"/>
        <pt x="256" y="896" on="1"/>
      </contour>
      <contour>
        <pt x="384" y="640" on="1"/>
        <pt x="384" y="768" on="1"/>
        <pt x="320" y="768" on="1"/>
        <pt x="256" y="768" on="1"/>
        <pt x="256" y="640" on="1"/>
        <pt x="256" y="512" on="1"/>
        <pt x="320" y="512" on="1"/>
        <pt x="384" y="512" on="1"/>
      </contour>
    </TTGlyph>
    <TTGlyph name="Aacute" xMin="0" yMin="128" xMax="896" yMax="1024">
      <contour>
        <pt x="512" y="960" on="1"/>
        <pt x="512" y="1024" on="1"/>
        <pt x="576" y="1024" on="1"/>
        <pt x="640" y="1024" on="1"/>
        <pt x="640" y="960" on="1"/>
        <pt x="640" y="896" on="1"/>
        <pt x="576" y="896" on="1"/>
        <pt x="512" y="896" on="1"/>
        <pt x="512" y="832" on="1"/>
        <pt x="512" y="768" on="1"/>
        <pt x="576" y="768" on="1"/>
        <pt x="640" y="768" on="1"/>
        <pt x="640" y="704" on="1"/>
        <pt x="640" y="640" on="1"/>
        <pt x="704" y="640" on="1"/>
        <pt x="768" y="640" on="1"/>
        <pt x="768" y="576" on="1"/>
        <pt x="768" y="512" on="1"/>
        <pt x="832" y="512" on="1"/>
        <pt x="896" y="512" on="1"/>
        <pt x="896" y="320" on="1"/>
        <pt x="896" y="128" on="1"/>
        <pt x="768" y="128" on="1"/>
        <pt x="640" y="128" on="1"/>
        <pt x="640" y="192" on="1"/>
        <pt x="640" y="256" on="1"/>
        <pt x="448" y="256" on="1"/>
        <pt x="256" y="256" on="1"/>
        <pt x="256" y="192" on="1"/>
        <pt x="256" y="128" on="1"/>
        <pt x="128" y="128" on="1"/>
        <pt x="0" y="128" on="1"/>
        <pt x="0" y="320" on="1"/>
        <pt x="0" y="512" on="1"/>
        <pt x="64" y="512" on="1"/>
        <pt x="128" y="512" on="1"/>
        <pt x="128" y="576" on="1"/>
        <pt x="128" y="640" on="1"/>
        <pt x="192" y="640" on="1"/>
        <pt x="256" y="640" on="1"/>
        <pt x="256" y="704" on="1"/>
        <pt x="256" y="768" on="1"/>
        <pt x="320" y="768" on="1"/>
        <pt x="384" y="768" on="1"/>
        <pt x="384" y="832" on="1"/>
        <pt x="384" y="896" on="1"/>
        <pt x="448" y="896" on="1"/>
        <pt x="512" y="896" on="1"/>
      </contour>
      <contour>
        <pt x="512" y="576" on="1"/>
        <pt x="512" y="640" on="1"/>
        <pt x="448" y="640" on="1"/>
        <pt x="384" y="640" on="1"/>
        <pt x="384" y="576" on="1"/>
        <pt x="384" y="512" on="1"/>
        <pt x="320" y="512" on="1"/>
        <pt x="256" y="512" on="1"/>
        <pt x="256" y="448" on="1"/>
        <pt x="256" y="384" on="1"/>
        <pt x="448" y="384" on="1"/>
        <pt x="640" y="384" on="1"/>
        <pt x="640" y="448" on="1"/>
        <pt x="640" y="512" on="1"/>
        <pt x="576" y="512" on="1"/>
        <pt x="512" y="512" on="1"/>
      </contour>
    </TTGlyph>
    <TTGlyph name="Abreve" xMin="0" yMin="128" xMax="896" yMax="1024">
      <contour>
        <pt x="128" y="960" on="1"/>
        <pt x="128" y="1024" on="1"/>
        <pt x="192" y="1024" on="1"/>
        <pt x="256" y="1024" on="1"/>
        <pt x="256" y="960" on="1"/>
        <pt x="256" y="896" on="1"/>
        <pt x="448" y="896" on="1"/>
        <pt x="640" y="896" on="1"/>
        <pt x="640" y="960" on="1"/>
        <pt x="640" y="1024" on="1"/>
        <pt x="704" y="1024" on="1"/>
        <pt x="768" y="1024" on="1"/>
        <pt x="768" y="960" on="1"/>
        <pt x="768" y="896" on="1"/>
        <pt x="704" y="896" on="1"/>
        <pt x="640" y="896" on="1"/>
        <pt x="640" y="768" on="1"/>
        <pt x="640" y="640" on="1"/>
        <pt x="704" y="640" on="1"/>
        <pt x="768" y="640" on="1"/>
        <pt x="768" y="576" on="1"/>
        <pt x="768" y="512" on="1"/>
        <pt x="832" y="512" on="1"/>
        <pt x="896" y="512" on="1"/>
        <pt x="896" y="320" on="1"/>
        <pt x="896" y="128" on="1"/>
        <pt x="768" y="128" on="1"/>
        <pt x="640" y="128" on="1"/>
        <pt x="640" y="192" on="1"/>
        <pt x="640" y="256" on="1"/>
        <pt x="448" y="256" on="1"/>
        <pt x="256" y="256" on="1"/>
        <pt x="256" y="192" on="1"/>
        <pt x="256" y="128" on="1"/>
        <pt x="128" y="128" on="1"/>
        <pt x="0" y="128" on="1"/>
        <pt x="0" y="320" on="1"/>
        <pt x="0" y="512" on="1"/>
        <pt x="64" y="512" on="1"/>
        <pt x="128" y="512" on="1"/>
        <pt x="128" y="576" on="1"/>
        <pt x="128" y="640" on="1"/>
        <pt x="192" y="640" on="1"/>
        <pt x="256" y="640" on="1"/>
        <pt x="256" y="768" on="1"/>
        <pt x="256" y="896" on="1"/>
        <pt x="192" y="896" on="1"/>
        <pt x="128" y="896" on="1"/>
      </contour>
      <contour>
        <pt x="512" y="576" on="1"/>
        <pt x="512" y="640" on="1"/>
        <pt x="448" y="640" on="1"/>
        <pt x="384" y="640" on="1"/>
        <pt x="384" y="576" on="1"/>
        <pt x="384" y="512" on="1"/>
        <pt x="320" y="512" on="1"/>
        <pt x="256" y="512" on="1"/>
        <pt x="256" y="448" on="1"/>
        <pt x="256" y="384" on="1"/>
        <pt x="448" y="384" on="1"/>
        <pt x="640" y="384" on="1"/>
        <pt x="640" y="448" on="1"/>
        <pt x="640" y="512" on="1"/>
        <pt x="576" y="512" on="1"/>
        <pt x="512" y="512" on="1"/>
      </contour>
    </TTGlyph>
    <TTGlyph name="Acircumflex" xMin="0" yMin="128" xMax="896" yMax="1024">
      <contour>
        <pt x="256" y="960" on="1"/>
        <pt x="256" y="1024" on="1"/>
        <pt x="448" y="1024" on="1"/>
        <pt x="640" y="1024" on="1"/>
        <pt x="640" y="960" on="1"/>
        <pt x="640" y="896" on="1"/>
        <pt x="704" y="896" on="1"/>
        <pt x="768" y="896" on="1"/>
        <pt x="768" y="832" on="1"/>
        <pt x="768" y="768" on="1"/>
        <pt x="704" y="768" on="1"/>
        <pt x="640" y="768" on="1"/>
        <pt x="640" y="704" on="1"/>
        <pt x="640" y="640" on="1"/>
        <pt x="704" y="640" on="1"/>
        <pt x="768" y="640" on="1"/>
        <pt x="768" y="576" on="1"/>
        <pt x="768" y="512" on="1"/>
        <pt x="832" y="512" on="1"/>
        <pt x="896" y="512" on="1"/>
        <pt x="896" y="320" on="1"/>
        <pt x="896" y="128" on="1"/>
        <pt x="768" y="128" on="1"/>
        <pt x="640" y="128" on="1"/>
        <pt x="640" y="192" on="1"/>
        <pt x="640" y="256" on="1"/>
        <pt x="448" y="256" on="1"/>
        <pt x="256" y="256" on="1"/>
        <pt x="256" y="192" on="1"/>
        <pt x="256" y="128" on="1"/>
        <pt x="128" y="128" on="1"/>
        <pt x="0" y="128" on="1"/>
        <pt x="0" y="320" on="1"/>
        <pt x="0" y="512" on="1"/>
        <pt x="64" y="512" on="1"/>
        <pt x="128" y="512" on="1"/>
        <pt x="128" y="576" on="1"/>
        <pt x="128" y="640" on="1"/>
        <pt x="192" y="640" on="1"/>
        <pt x="256" y="640" on="1"/>
        <pt x="256" y="704" on="1"/>
        <pt x="256" y="768" on="1"/>
        <pt x="192" y="768" on="1"/>
        <pt x="128" y="768" on="1"/>
        <pt x="128" y="832" on="1"/>
        <pt x="128" y="896" on="1"/>
        <pt x="192" y="896" on="1"/>
        <pt x="256" y="896" on="1"/>
      </contour>
      <contour>
        <pt x="512" y="832" on="1"/>
        <pt x="512" y="896" on="1"/>
        <pt x="448" y="896" on="1"/>
        <pt x="384" y="896" on="1"/>
        <pt x="384" y="832" on="1"/>
        <pt x="384" y="768" on="1"/>
        <pt x="448" y="768" on="1"/>
        <pt x="512" y="768" on="1"/>
      </contour>
      <contour>
        <pt x="512" y="576" on="1"/>
        <pt x="512" y="640" on="1"/>
        <pt x="448" y="640" on="1"/>
        <pt x="384" y="640" on="1"/>
        <pt x="384" y="576" on="1"/>
        <pt x="384" y="512" on="1"/>
        <pt x="320" y="512" on="1"/>
        <pt x="256" y="512" on="1"/>
        <pt x="256" y="448" on="1"/>
        <pt x="256" y="384" on="1"/>
        <pt x="448" y="384" on="1"/>
        <pt x="640" y="384" on="1"/>
        <pt x="640" y="448" on="1"/>
        <pt x="640" y="512" on="1"/>
        <pt x="576" y="512" on="1"/>
        <pt x="512" y="512" on="1"/>
      </contour>
    </TTGlyph>
    <TTGlyph name="Adieresis" xMin="0" yMin="128" xMax="896" yMax="1024">
      <contour>
        <pt x="256" y="704" on="1"/>
        <pt x="256" y="768" on="1"/>
        <pt x="448" y="768" on="1"/>
        <pt x="640" y="768" on="1"/>
        <pt x="640" y="704" on="1"/>
        <pt x="640" y="640" on="1"/>
        <pt x="704" y="640" on="1"/>
        <pt x="768" y="640" on="1"/>
        <pt x="768" y="576" on="1"/>
        <pt x="768" y="512" on="1"/>
        <pt x="832" y="512" on="1"/>
        <pt x="896" y="512" on="1"/>
        <pt x="896" y="320" on="1"/>
        <pt x="896" y="128" on="1"/>
        <pt x="768" y="128" on="1"/>
        <pt x="640" y="128" on="1"/>
        <pt x="640" y="192" on="1"/>
        <pt x="640" y="256" on="1"/>
        <pt x="448" y="256" on="1"/>
        <pt x="256" y="256" on="1"/>
        <pt x="256" y="192" on="1"/>
        <pt x="256" y="128" on="1"/>
        <pt x="128" y="128" on="1"/>
        <pt x="0" y="128" on="1"/>
        <pt x="0" y="320" on="1"/>
        <pt x="0" y="512" on="1"/>
        <pt x="64" y="512" on="1"/>
        <pt x="128" y="512" on="1"/>
        <pt x="128" y="576" on="1"/>
        <pt x="128" y="640" on="1"/>
        <pt x="192" y="640" on="1"/>
        <pt x="256" y="640" on="1"/>
      </contour>
      <contour>
        <pt x="512" y="576" on="1"/>
        <pt x="512" y="640" on="1"/>
        <pt x="448" y="640" on="1"/>
        <pt x="384" y="640" on="1"/>
        <pt x="384" y="576" on="1"/>
        <pt x="384" y="512" on="1"/>
        <pt x="320" y="512" on="1"/>
        <pt x="256" y="512" on="1"/>
        <pt x="256" y="448" on="1"/>
        <pt x="256" y="384" on="1"/>
        <pt x="448" y="384" on="1"/>
        <pt x="640" y="384" on="1"/>
        <pt x="640" y="448" on="1"/>
        <pt x="640" y="512" on="1"/>
        <pt x="576" y="512" on="1"/>
        <pt x="512" y="512" on="1"/>
      </contour>
      <contour>
        <pt x="512" y="960" on="1"/>
        <pt x="512" y="1024" on="1"/>
        <pt x="640" y="1024" on="1"/>
        <pt x="768" y="1024" on="1"/>
        <pt x="768" y="960" on="1"/>
        <pt x="768" y="896" on="1"/>
        <pt x="640" y="896" on="1"/>
        <pt x="512" y="896" on="1"/>
      </contour>
      <contour>
        <pt x="128" y="960" on="1"/>
        <pt x="128" y="1024" on="1"/>
        <pt x="256" y="1024" on="1"/>
        <pt x="384" y="1024" on="1"/>
        <pt x="384" y="960" on="1"/>
        <pt x="384" y="896" on="1"/>
        <pt x="256" y="896" on="1"/>
        <pt x="128" y="896" on="1"/>
      </contour>
    </TTGlyph>
    <TTGlyph name="Agrave" xMin="0" yMin="128" xMax="896" yMax="1024">
      <contour>
        <pt x="256" y="960" on="1"/>
        <pt x="256" y="1024" on="1"/>
        <pt x="320" y="1024" on="1"/>
        <pt x="384" y="1024" on="1"/>
        <pt x="384" y="960" on="1"/>
        <pt x="384" y="896" on="1"/>
        <pt x="448" y="896" on="1"/>
        <pt x="512" y="896" on="1"/>
        <pt x="512" y="832" on="1"/>
        <pt x="512" y="768" on="1"/>
        <pt x="576" y="768" on="1"/>
        <pt x="640" y="768" on="1"/>
        <pt x="640" y="704" on="1"/>
        <pt x="640" y="640" on="1"/>
        <pt x="704" y="640" on="1"/>
        <pt x="768" y="640" on="1"/>
        <pt x="768" y="576" on="1"/>
        <pt x="768" y="512" on="1"/>
        <pt x="832" y="512" on="1"/>
        <pt x="896" y="512" on="1"/>
        <pt x="896" y="320" on="1"/>
        <pt x="896" y="128" on="1"/>
        <pt x="768" y="128" on="1"/>
        <pt x="640" y="128" on="1"/>
        <pt x="640" y="192" on="1"/>
        <pt x="640" y="256" on="1"/>
        <pt x="448" y="256" on="1"/>
        <pt x="256" y="256" on="1"/>
        <pt x="256" y="192" on="1"/>
        <pt x="256" y="128" on="1"/>
        <pt x="128" y="128" on="1"/>
        <pt x="0" y="128" on="1"/>
        <pt x="0" y="320" on="1"/>
        <pt x="0" y="512" on="1"/>
        <pt x="64" y="512" on="1"/>
        <pt x="128" y="512" on="1"/>
        <pt x="128" y="576" on="1"/>
        <pt x="128" y="640" on="1"/>
        <pt x="192" y="640" on="1"/>
        <pt x="256" y="640" on="1"/>
        <pt x="256" y="704" on="1"/>
        <pt x="256" y="768" on="1"/>
        <pt x="320" y="768" on="1"/>
        <pt x="384" y="768" on="1"/>
        <pt x="384" y="832" on="1"/>
        <pt x="384" y="896" on="1"/>
        <pt x="320" y="896" on="1"/>
        <pt x="256" y="896" on="1"/>
      </contour>
      <contour>
        <pt x="512" y="576" on="1"/>
        <pt x="512" y="640" on="1"/>
        <pt x="448" y="640" on="1"/>
        <pt x="384" y="640" on="1"/>
        <pt x="384" y="576" on="1"/>
        <pt x="384" y="512" on="1"/>
        <pt x="320" y="512" on="1"/>
        <pt x="256" y="512" on="1"/>
        <pt x="256" y="448" on="1"/>
        <pt x="256" y="384" on="1"/>
        <pt x="448" y="384" on="1"/>
        <pt x="640" y="384" on="1"/>
        <pt x="640" y="448" on="1"/>
        <pt x="640" y="512" on="1"/>
        <pt x="576" y="512" on="1"/>
        <pt x="512" y="512" on="1"/>
      </contour>
    </TTGlyph>
    <TTGlyph name="Alpha" xMin="0" yMin="128" xMax="896" yMax="1024">
      <contour>
        <pt x="256" y="960" on="1"/>
        <pt x="256" y="1024" on="1"/>
        <pt x="448" y="1024" on="1"/>
        <pt x="640" y="1024" on="1"/>
        <pt x="640" y="960" on="1"/>
        <pt x="640" y="896" on="1"/>
        <pt x="704" y="896" on="1"/>
        <pt x="768" y="896" on="1"/>
        <pt x="768" y="832" on="1"/>
        <pt x="768" y="768" on="1"/>
        <pt x="832" y="768" on="1"/>
        <pt x="896" y="768" on="1"/>
        <pt x="896" y="448" on="1"/>
        <pt x="896" y="128" on="1"/>
        <pt x="768" y="128" on="1"/>
        <pt x="640" y="128" on="1"/>
        <pt x="640" y="256" on="1"/>
        <pt x="640" y="384" on="1"/>
        <pt x="448" y="384" on="1"/>
        <pt x="256" y="384" on="1"/>
        <pt x="256" y="256" on="1"/>
        <pt x="256" y="128" on="1"/>
        <pt x="128" y="128" on="1"/>
        <pt x="0" y="128" on="1"/>
        <pt x="0" y="448" on="1"/>
        <pt x="0" y="768" on="1"/>
        <pt x="64" y="768" on="1"/>
        <pt x="128" y="768" on="1"/>
        <pt x="128" y="832" on="1"/>
        <pt x="128" y="896" on="1"/>
        <pt x="192" y="896" on="1"/>
        <pt x="256" y="896" on="1"/>
      </contour>
      <contour>
        <pt x="512" y="832" on="1"/>
        <pt x="512" y="896" on="1"/>
        <pt x="448" y="896" on="1"/>
        <pt x="384" y="896" on="1"/>
        <pt x="384" y="832" on="1"/>
        <pt x="384" y="768" on="1"/>
        <pt x="320" y="768" on="1"/>
        <pt x="256" y="768" on="1"/>
        <pt x="256" y="640" on="1"/>
        <pt x="256" y="512" on="1"/>
        <pt x="448" y="512" on="1"/>
        <pt x="640" y="512" on="1"/>
        <pt x="640" y="640" on="1"/>
        <pt x="640" y="768" on="1"/>
        <pt x="576" y="768" on="1"/>
        <pt x="512" y="768" on="1"/>
      </contour>
    </TTGlyph>
    <TTGlyph name="Alphatonos" xMin="0" yMin="128" xMax="896" yMax="1024">
      <contour>
        <pt x="128" y="960" on="1"/>
        <pt x="128" y="1024" on="1"/>
        <pt x="192" y="1024" on="1"/>
        <pt x="256" y="1024" on="1"/>
        <pt x="256" y="960" on="1"/>
        <pt x="256" y="896" on="1"/>
        <pt x="320" y="896" on="1"/>
        <pt x="384" y="896" on="1"/>
        <pt x="384" y="960" on="1"/>
        <pt x="384" y="1024" on="1"/>
        <pt x="512" y="1024" on="1"/>
        <pt x="640" y="1024" on="1"/>
        <pt x="640" y="960" on="1"/>
        <pt x="640" y="896" on="1"/>
        <pt x="704" y="896" on="1"/>
        <pt x="768" y="896" on="1"/>
        <pt x="768" y="832" on="1"/>
        <pt x="768" y="768" on="1"/>
        <pt x="832" y="768" on="1"/>
        <pt x="896" y="768" on="1"/>
        <pt x="896" y="448" on="1"/>
        <pt x="896" y="128" on="1"/>
        <pt x="768" y="128" on="1"/>
        <pt x="640" y="128" on="1"/>
        <pt x="640" y="256" on="1"/>
        <pt x="640" y="384" on="1"/>
        <pt x="512" y="384" on="1"/>
        <pt x="384" y="384" on="1"/>
        <pt x="384" y="256" on="1"/>
        <pt x="384" y="128" on="1"/>
        <pt x="256" y="128" on="1"/>
        <pt x="128" y="128" on="1"/>
        <pt x="128" y="448" on="1"/>
        <pt x="128" y="768" on="1"/>
        <pt x="64" y="768" on="1"/>
        <pt x="0" y="768" on="1"/>
        <pt x="0" y="832" on="1"/>
        <pt x="0" y="896" on="1"/>
        <pt x="64" y="896" on="1"/>
        <pt x="128" y="896" on="1"/>
      </contour>
      <contour>
        <pt x="256" y="832" on="1"/>
        <pt x="256" y="896" on="1"/>
        <pt x="192" y="896" on="1"/>
        <pt x="128" y="896" on="1"/>
        <pt x="128" y="832" on="1"/>
        <pt x="128" y="768" on="1"/>
        <pt x="192" y="768" on="1"/>
        <pt x="256" y="768" on="1"/>
      </contour>
      <contour>
        <pt x="640" y="640" on="1"/>
        <pt x="640" y="768" on="1"/>
        <pt x="512" y="768" on="1"/>
        <pt x="384" y="768" on="1"/>
        <pt x="384" y="640" on="1"/>
        <pt x="384" y="512" on="1"/>
        <pt x="512" y="512" on="1"/>
        <pt x="640" y="512" on="1"/>
      </contour>
    </TTGlyph>
    <TTGlyph name="Amacron" xMin="0" yMin="128" xMax="896" yMax="1024">
      <contour>
        <pt x="256" y="704" on="1"/>
        <pt x="256" y="768" on="1"/>
        <pt x="448" y="768" on="1"/>
        <pt x="640" y="768" on="1"/>
        <pt x="640" y="704" on="1"/>
        <pt x="640" y="640" on="1"/>
        <pt x="704" y="640" on="1"/>
        <pt x="768" y="640" on="1"/>
        <pt x="768" y="576" on="1"/>
        <pt x="768" y="512" on="1"/>
        <pt x="832" y="512" on="1"/>
        <pt x="896" y="512" on="1"/>
        <pt x="896" y="320" on="1"/>
        <pt x="896" y="128" on="1"/>
        <pt x="768" y="128" on="1"/>
        <pt x="640" y="128" on="1"/>
        <pt x="640" y="192" on="1"/>
        <pt x="640" y="256" on="1"/>
        <pt x="448" y="256" on="1"/>
        <pt x="256" y="256" on="1"/>
        <pt x="256" y="192" on="1"/>
        <pt x="256" y="128" on="1"/>
        <pt x="128" y="128" on="1"/>
        <pt x="0" y="128" on="1"/>
        <pt x="0" y="320" on="1"/>
        <pt x="0" y="512" on="1"/>
        <pt x="64" y="512" on="1"/>
        <pt x="128" y="512" on="1"/>
        <pt x="128" y="576" on="1"/>
        <pt x="128" y="640" on="1"/>
        <pt x="192" y="640" on="1"/>
        <pt x="256" y="640" on="1"/>
      </contour>
      <contour>
        <pt x="512" y="576" on="1"/>
        <pt x="512" y="640" on="1"/>
        <pt x="448" y="640" on="1"/>
        <pt x="384" y="640" on="1"/>
        <pt x="384" y="576" on="1"/>
        <pt x="384" y="512" on="1"/>
        <pt x="320" y="512" on="1"/>
        <pt x="256" y="512" on="1"/>
        <pt x="256" y="448" on="1"/>
        <pt x="256" y="384" on="1"/>
        <pt x="448" y="384" on="1"/>
        <pt x="640" y="384" on="1"/>
        <pt x="640" y="448" on="1"/>
        <pt x="640" y="512" on="1"/>
        <pt x="576" y="512" on="1"/>
        <pt x="512" y="512" on="1"/>
      </contour>
      <contour>
        <pt x="128" y="960" on="1"/>
        <pt x="128" y="1024" on="1"/>
        <pt x="448" y="1024" on="1"/>
        <pt x="768" y="1024" on="1"/>
        <pt x="768" y="960" on="1"/>
        <pt x="768" y="896" on="1"/>
        <pt x="448" y="896" on="1"/>
        <pt x="128" y="896" on="1"/>
      </contour>
    </TTGlyph>
    <TTGlyph name="Aogonek" xMin="0" yMin="0" xMax="896" yMax="1024">
      <contour>
        <pt x="256" y="960" on="1"/>
        <pt x="256" y="1024" on="1"/>
        <pt x="448" y="1024" on="1"/>
        <pt x="640" y="1024" on="1"/>
        <pt x="640" y="960" on="1"/>
        <pt x="640" y="896" on="1"/>
        <pt x="704" y="896" on="1"/>
        <pt x="768" y="896" on="1"/>
        <pt x="768" y="832" on="1"/>
        <pt x="768" y="768" on="1"/>
        <pt x="832" y="768" on="1"/>
        <pt x="896" y="768" on="1"/>
        <pt x="896" y="576" on="1"/>
        <pt x="896" y="384" on="1"/>
        <pt x="832" y="384" on="1"/>
        <pt x="768" y="384" on="1"/>
        <pt x="768" y="320" on="1"/>
        <pt x="768" y="256" on="1"/>
        <pt x="704" y="256" on="1"/>
        <pt x="640" y="256" on="1"/>
        <pt x="640" y="192" on="1"/>
        <pt x="640" y="128" on="1"/>
        <pt x="768" y="128" on="1"/>
        <pt x="896" y="128" on="1"/>
        <pt x="896" y="64" on="1"/>
        <pt x="896" y="0" on="1"/>
        <pt x="768" y="0" on="1"/>
        <pt x="640" y="0" on="1"/>
        <pt x="640" y="64" on="1"/>
        <pt x="640" y="128" on="1"/>
        <pt x="576" y="128" on="1"/>
        <pt x="512" y="128" on="1"/>
        <pt x="512" y="192" on="1"/>
        <pt x="512" y="256" on="1"/>
        <pt x="576" y="256" on="1"/>
        <pt x="640" y="256" on="1"/>
        <pt x="640" y="384" on="1"/>
        <pt x="640" y="512" on="1"/>
        <pt x="448" y="512" on="1"/>
        <pt x="256" y="512" on="1"/>
        <pt x="256" y="448" on="1"/>
        <pt x="256" y="384" on="1"/>
        <pt x="128" y="384" on="1"/>
        <pt x="0" y="384" on="1"/>
        <pt x="0" y="576" on="1"/>
        <pt x="0" y="768" on="1"/>
        <pt x="64" y="768" on="1"/>
        <pt x="128" y="768" on="1"/>
        <pt x="128" y="832" on="1"/>
        <pt x="128" y="896" on="1"/>
        <pt x="192" y="896" on="1"/>
        <pt x="256" y="896" on="1"/>
      </contour>
      <contour>
        <pt x="512" y="832" on="1"/>
        <pt x="512" y="896" on="1"/>
        <pt x="448" y="896" on="1"/>
        <pt x="384" y="896" on="1"/>
        <pt x="384" y="832" on="1"/>
        <pt x="384" y="768" on="1"/>
        <pt x="320" y="768" on="1"/>
        <pt x="256" y="768" on="1"/>
        <pt x="256" y="704" on="1"/>
        <pt x="256" y="640" on="1"/>
        <pt x="448" y="640" on="1"/>
        <pt x="640" y="640" on="1"/>
        <pt x="640" y="704" on="1"/>
        <pt x="640" y="768" on="1"/>
        <pt x="576" y="768" on="1"/>
        <pt x="512" y="768" on="1"/>
      </contour>
    </TTGlyph>
    <TTGlyph name="Aring" xMin="0" yMin="128" xMax="896" yMax="1024">
      <contour>
        <pt x="384" y="960" on="1"/>
        <pt x="384" y="1024" on="1"/>
        <pt x="448" y="1024" on="1"/>
        <pt x="512" y="1024" on="1"/>
        <pt x="512" y="960" on="1"/>
        <pt x="512" y="896" on="1"/>
        <pt x="576" y="896" on="1"/>
        <pt x="640" y="896" on="1"/>
        <pt x="640" y="768" on="1"/>
        <pt x="640" y="640" on="1"/>
        <pt x="704" y="640" on="1"/>
        <pt x="768" y="640" on="1"/>
        <pt x="768" y="576" on="1"/>
        <pt x="768" y="512" on="1"/>
        <pt x="832" y="512" on="1"/>
        <pt x="896" y="512" on="1"/>
        <pt x="896" y="320" on="1"/>
        <pt x="896" y="128" on="1"/>
        <pt x="768" y="128" on="1"/>
        <pt x="640" y="128" on="1"/>
        <pt x="640" y="192" on="1"/>
        <pt x="640" y="256" on="1"/>
        <pt x="448" y="256" on="1"/>
        <pt x="256" y="256" on="1"/>
        <pt x="256" y="192" on="1"/>
        <pt x="256" y="128" on="1"/>
        <pt x="128" y="128" on="1"/>
        <pt x="0" y="128" on="1"/>
        <pt x="0" y="320" on="1"/>
        <pt x="0" y="512" on="1"/>
        <pt x="64" y="512" on="1"/>
        <pt x="128" y="512" on="1"/>
        <pt x="128" y="576" on="1"/>
        <pt x="128" y="640" on="1"/>
        <pt x="192" y="640" on="1"/>
        <pt x="256" y="640" on="1"/>
        <pt x="256" y="768" on="1"/>
        <pt x="256" y="896" on="1"/>
        <pt x="320" y="896" on="1"/>
        <pt x="384" y="896" on="1"/>
      </contour>
      <contour>
        <pt x="512" y="832" on="1"/>
        <pt x="512" y="896" on="1"/>
        <pt x="448" y="896" on="1"/>
        <pt x="384" y="896" on="1"/>
        <pt x="384" y="832" on="1"/>
        <pt x="384" y="768" on="1"/>
        <pt x="448" y="768" on="1"/>
        <pt x="512" y="768" on="1"/>
      </contour>
      <contour>
        <pt x="512" y="576" on="1"/>
        <pt x="512" y="640" on="1"/>
        <pt x="448" y="640" on="1"/>
        <pt x="384" y="640" on="1"/>
        <pt x="384" y="576" on="1"/>
        <pt x="384" y="512" on="1"/>
        <pt x="320" y="512" on="1"/>
        <pt x="256" y="512" on="1"/>
        <pt x="256" y="448" on="1"/>
        <pt x="256" y="384" on="1"/>
        <pt x="448" y="384" on="1"/>
        <pt x="640" y="384" on="1"/>
        <pt x="640" y="448" on="1"/>
        <pt x="640" y="512" on="1"/>
        <pt x="576" y="512" on="1"/>
        <pt x="512" y="512" on="1"/>
      </contour>
    </TTGlyph>
    <TTGlyph name="Atilde" xMin="0" yMin="128" xMax="896" yMax="1024">
      <contour>
        <pt x="256" y="960" on="1"/>
        <pt x="256" y="1024" on="1"/>
        <pt x="384" y="1024" on="1"/>
        <pt x="512" y="1024" on="1"/>
        <pt x="512" y="960" on="1"/>
        <pt x="512" y="896" on="1"/>
        <pt x="576" y="896" on="1"/>
        <pt x="640" y="896" on="1"/>
        <pt x="640" y="960" on="1"/>
        <pt x="640" y="1024" on="1"/>
        <pt x="704" y="1024" on="1"/>
        <pt x="768" y="1024" on="1"/>
        <pt x="768" y="960" on="1"/>
        <pt x="768" y="896" on="1"/>
        <pt x="704" y="896" on="1"/>
        <pt x="640" y="896" on="1"/>
        <pt x="640" y="768" on="1"/>
        <pt x="640" y="640" on="1"/>
        <pt x="704" y="640" on="1"/>
        <pt x="768" y="640" on="1"/>
        <pt x="768" y="576" on="1"/>
        <pt x="768" y="512" on="1"/>
        <pt x="832" y="512" on="1"/>
        <pt x="896" y="512" on="1"/>
        <pt x="896" y="320" on="1"/>
        <pt x="896" y="128" on="1"/>
        <pt x="768" y="128" on="1"/>
        <pt x="640" y="128" on="1"/>
        <pt x="640" y="192" on="1"/>
        <pt x="640" y="256" on="1"/>
        <pt x="448" y="256" on="1"/>
        <pt x="256" y="256" on="1"/>
        <pt x="256" y="192" on="1"/>
        <pt x="256" y="128" on="1"/>
        <pt x="128" y="128" on="1"/>
        <pt x="0" y="128" on="1"/>
        <pt x="0" y="320" on="1"/>
        <pt x="0" y="512" on="1"/>
        <pt x="64" y="512" on="1"/>
        <pt x="128" y="512" on="1"/>
        <pt x="128" y="576" on="1"/>
        <pt x="128" y="640" on="1"/>
        <pt x="192" y="640" on="1"/>
        <pt x="256" y="640" on="1"/>
        <pt x="256" y="704" on="1"/>
        <pt x="256" y="768" on="1"/>
        <pt x="192" y="768" on="1"/>
        <pt x="128" y="768" on="1"/>
        <pt x="128" y="832" on="1"/>
        <pt x="128" y="896" on="1"/>
        <pt x="192" y="896" on="1"/>
        <pt x="256" y="896" on="1"/>
      </contour>
      <contour>
        <pt x="384" y="832" on="1"/>
        <pt x="384" y="896" on="1"/>
        <pt x="320" y="896" on="1"/>
        <pt x="256" y="896" on="1"/>
        <pt x="256" y="832" on="1"/>
        <pt x="256" y="768" on="1"/>
        <pt x="320" y="768" on="1"/>
        <pt x="384" y="768" on="1"/>
      </contour>
      <contour>
        <pt x="512" y="576" on="1"/>
        <pt x="512" y="640" on="1"/>
        <pt x="448" y="640" on="1"/>
        <pt x="384" y="640" on="1"/>
        <pt x="384" y="576" on="1"/>
        <pt x="384" y="512" on="1"/>
        <pt x="320" y="512" on="1"/>
        <pt x="256" y="512" on="1"/>
        <pt x="256" y="448" on="1"/>
        <pt x="256" y="384" on="1"/>
        <pt x="448" y="384" on="1"/>
        <pt x="640" y="384" on="1"/>
        <pt x="640" y="448" on="1"/>
        <pt x="640" y="512" on="1"/>
        <pt x="576" y="512" on="1"/>
        <pt x="512" y="512" on="1"/>
      </contour>
    </TTGlyph>
    <TTGlyph name="B" xMin="0" yMin="128" xMax="896" yMax="1024">
      <contour>
        <pt x="0" y="576" on="1"/>
        <pt x="0" y="1024" on="1"/>
        <pt x="384" y="1024" on="1"/>
        <pt x="768" y="1024" on="1"/>
        <pt x="768" y="960" on="1"/>
        <pt x="768" y="896" on="1"/>
        <pt x="832" y="896" on="1"/>
        <pt x="896" y="896" on="1"/>
        <pt x="896" y="768" on="1"/>
        <pt x="896" y="640" on="1"/>
        <pt x="832" y="640" on="1"/>
        <pt x="768" y="640" on="1"/>
        <pt x="768" y="576" on="1"/>
        <pt x="768" y="512" on="1"/>
        <pt x="832" y="512" on="1"/>
        <pt x="896" y="512" on="1"/>
        <pt x="896" y="384" on="1"/>
        <pt x="896" y="256" on="1"/>
        <pt x="832" y="256" on="1"/>
        <pt x="768" y="256" on="1"/>
        <pt x="768" y="192" on="1"/>
        <pt x="768" y="128" on="1"/>
        <pt x="384" y="128" on="1"/>
        <pt x="0" y="128" on="1"/>
      </contour>
      <contour>
        <pt x="640" y="768" on="1"/>
        <pt x="640" y="896" on="1"/>
        <pt x="448" y="896" on="1"/>
        <pt x="256" y="896" on="1"/>
        <pt x="256" y="768" on="1"/>
        <pt x="256" y="640" on="1"/>
        <pt x="448" y="640" on="1"/>
        <pt x="640" y="640" on="1"/>
      </contour>
      <contour>
        <pt x="640" y="384" on="1"/>
        <pt x="640" y="512" on="1"/>
        <pt x="448" y="512" on="1"/>
        <pt x="256" y="512" on="1"/>
        <pt x="256" y="384" on="1"/>
        <pt x="256" y="256" on="1"/>
        <pt x="448" y="256" on="1"/>
        <pt x="640" y="256" on="1"/>
      </contour>
    </TTGlyph>
    <TTGlyph name="Beta" xMin="0" yMin="128" xMax="896" yMax="1024">
      <contour>
        <pt x="0" y="576" on="1"/>
        <pt x="0" y="1024" on="1"/>
        <pt x="384" y="1024" on="1"/>
        <pt x="768" y="1024" on="1"/>
        <pt x="768" y="960" on="1"/>
        <pt x="768" y="896" on="1"/>
        <pt x="832" y="896" on="1"/>
        <pt x="896" y="896" on="1"/>
        <pt x="896" y="768" on="1"/>
        <pt x="896" y="640" on="1"/>
        <pt x="832" y="640" on="1"/>
        <pt x="768" y="640" on="1"/>
        <pt x="768" y="576" on="1"/>
        <pt x="768" y="512" on="1"/>
        <pt x="832" y="512" on="1"/>
        <pt x="896" y="512" on="1"/>
        <pt x="896" y="384" on="1"/>
        <pt x="896" y="256" on="1"/>
        <pt x="832" y="256" on="1"/>
        <pt x="768" y="256" on="1"/>
        <pt x="768" y="192" on="1"/>
        <pt x="768" y="128" on="1"/>
        <pt x="384" y="128" on="1"/>
        <pt x="0" y="128" on="1"/>
      </contour>
      <contour>
        <pt x="640" y="768" on="1"/>
        <pt x="640" y="896" on="1"/>
        <pt x="448" y="896" on="1"/>
        <pt x="256" y="896" on="1"/>
        <pt x="256" y="768" on="1"/>
        <pt x="256" y="640" on="1"/>
        <pt x="448" y="640" on="1"/>
        <pt x="640" y="640" on="1"/>
      </contour>
      <contour>
        <pt x="640" y="384" on="1"/>
        <pt x="640" y="512" on="1"/>
        <pt x="448" y="512" on="1"/>
        <pt x="256" y="512" on="1"/>
        <pt x="256" y="384" on="1"/>
        <pt x="256" y="256" on="1"/>
        <pt x="448" y="256" on="1"/>
        <pt x="640" y="256" on="1"/>
      </contour>
    </TTGlyph>
    <TTGlyph name="C" xMin="0" yMin="128" xMax="896" yMax="1024">
      <contour>
        <pt x="256" y="960" on="1"/>
        <pt x="256" y="1024" on="1"/>
        <pt x="512" y="1024" on="1"/>
        <pt x="768" y="1024" on="1"/>
        <pt x="768" y="960" on="1"/>
        <pt x="768" y="896" on="1"/>
        <pt x="832" y="896" on="1"/>
        <pt x="896" y="896" on="1"/>
        <pt x="896" y="832" on="1"/>
        <pt x="896" y="768" on="1"/>
        <pt x="768" y="768" on="1"/>
        <pt x="640" y="768" on="1"/>
        <pt x="640" y="832" on="1"/>
        <pt x="640" y="896" on="1"/>
        <pt x="512" y="896" on="1"/>
        <pt x="384" y="896" on="1"/>
        <pt x="384" y="832" on="1"/>
        <pt x="384" y="768" on="1"/>
        <pt x="320" y="768" on="1"/>
        <pt x="256" y="768" on="1"/>
        <pt x="256" y="576" on="1"/>
        <pt x="256" y="384" on="1"/>
        <pt x="320" y="384" on="1"/>
        <pt x="384" y="384" on="1"/>
        <pt x="384" y="320" on="1"/>
        <pt x="384" y="256" on="1"/>
        <pt x="512" y="256" on="1"/>
        <pt x="640" y="256" on="1"/>
        <pt x="640" y="320" on="1"/>
        <pt x="640" y="384" on="1"/>
        <pt x="768" y="384" on="1"/>
        <pt x="896" y="384" on="1"/>
        <pt x="896" y="320" on="1"/>
        <pt x="896" y="256" on="1"/>
        <pt x="832" y="256" on="1"/>
        <pt x="768" y="256" on="1"/>
        <pt x="768" y="192" on="1"/>
        <pt x="768" y="128" on="1"/>
        <pt x="512" y="128" on="1"/>
        <pt x="256" y="128" on="1"/>
        <pt x="256" y="192" on="1"/>
        <pt x="256" y="256" on="1"/>
        <pt x="192" y="256" on="1"/>
        <pt x="128" y="256" on="1"/>
        <pt x="128" y="320" on="1"/>
        <pt x="128" y="384" on="1"/>
        <pt x="64" y="384" on="1"/>
        <pt x="0" y="384" on="1"/>
        <pt x="0" y="576" on="1"/>
        <pt x="0" y="768" on="1"/>
        <pt x="64" y="768" on="1"/>
        <pt x="128" y="768" on="1"/>
        <pt x="128" y="832" on="1"/>
        <pt x="128" y="896" on="1"/>
        <pt x="192" y="896" on="1"/>
        <pt x="256" y="896" on="1"/>
      </contour>
    </TTGlyph>
    <TTGlyph name="Cacute" xMin="0" yMin="128" xMax="896" yMax="1024">
      <contour>
        <pt x="512" y="960" on="1"/>
        <pt x="512" y="1024" on="1"/>
        <pt x="576" y="1024" on="1"/>
        <pt x="640" y="1024" on="1"/>
        <pt x="640" y="960" on="1"/>
        <pt x="640" y="896" on="1"/>
        <pt x="576" y="896" on="1"/>
        <pt x="512" y="896" on="1"/>
        <pt x="512" y="832" on="1"/>
        <pt x="512" y="768" on="1"/>
        <pt x="640" y="768" on="1"/>
        <pt x="768" y="768" on="1"/>
        <pt x="768" y="704" on="1"/>
        <pt x="768" y="640" on="1"/>
        <pt x="832" y="640" on="1"/>
        <pt x="896" y="640" on="1"/>
        <pt x="896" y="576" on="1"/>
        <pt x="896" y="512" on="1"/>
        <pt x="768" y="512" on="1"/>
        <pt x="640" y="512" on="1"/>
        <pt x="640" y="576" on="1"/>
        <pt x="640" y="640" on="1"/>
        <pt x="512" y="640" on="1"/>
        <pt x="384" y="640" on="1"/>
        <pt x="384" y="576" on="1"/>
        <pt x="384" y="512" on="1"/>
        <pt x="320" y="512" on="1"/>
        <pt x="256" y="512" on="1"/>
        <pt x="256" y="448" on="1"/>
        <pt x="256" y="384" on="1"/>
        <pt x="320" y="384" on="1"/>
        <pt x="384" y="384" on="1"/>
        <pt x="384" y="320" on="1"/>
        <pt x="384" y="256" on="1"/>
        <pt x="512" y="256" on="1"/>
        <pt x="640" y="256" on="1"/>
        <pt x="640" y="320" on="1"/>
        <pt x="640" y="384" on="1"/>
        <pt x="768" y="384" on="1"/>
        <pt x="896" y="384" on="1"/>
        <pt x="896" y="320" on="1"/>
        <pt x="896" y="256" on="1"/>
        <pt x="832" y="256" on="1"/>
        <pt x="768" y="256" on="1"/>
        <pt x="768" y="192" on="1"/>
        <pt x="768" y="128" on="1"/>
        <pt x="512" y="128" on="1"/>
        <pt x="256" y="128" on="1"/>
        <pt x="256" y="192" on="1"/>
        <pt x="256" y="256" on="1"/>
        <pt x="192" y="256" on="1"/>
        <pt x="128" y="256" on="1"/>
        <pt x="128" y="320" on="1"/>
        <pt x="128" y="384" on="1"/>
        <pt x="64" y="384" on="1"/>
        <pt x="0" y="384" on="1"/>
        <pt x="0" y="448" on="1"/>
        <pt x="0" y="512" on="1"/>
        <pt x="64" y="512" on="1"/>
        <pt x="128" y="512" on="1"/>
        <pt x="128" y="576" on="1"/>
        <pt x="128" y="640" on="1"/>
        <pt x="192" y="640" on="1"/>
        <pt x="256" y="640" on="1"/>
        <pt x="256" y="704" on="1"/>
        <pt x="256" y="768" on="1"/>
        <pt x="320" y="768" on="1"/>
        <pt x="384" y="768" on="1"/>
        <pt x="384" y="832" on="1"/>
        <pt x="384" y="896" on="1"/>
        <pt x="448" y="896" on="1"/>
        <pt x="512" y="896" on="1"/>
      </contour>
    </TTGlyph>
    <TTGlyph name="Ccaron" xMin="0" yMin="128" xMax="896" yMax="1024">
      <contour>
        <pt x="128" y="960" on="1"/>
        <pt x="128" y="1024" on="1"/>
        <pt x="256" y="1024" on="1"/>
        <pt x="384" y="1024" on="1"/>
        <pt x="384" y="960" on="1"/>
        <pt x="384" y="896" on="1"/>
        <pt x="512" y="896" on="1"/>
        <pt x="640" y="896" on="1"/>
        <pt x="640" y="960" on="1"/>
        <pt x="640" y="1024" on="1"/>
        <pt x="768" y="1024" on="1"/>
        <pt x="896" y="1024" on="1"/>
        <pt x="896" y="960" on="1"/>
        <pt x="896" y="896" on="1"/>
        <pt x="832" y="896" on="1"/>
        <pt x="768" y="896" on="1"/>
        <pt x="768" y="768" on="1"/>
        <pt x="768" y="640" on="1"/>
        <pt x="832" y="640" on="1"/>
        <pt x="896" y="640" on="1"/>
        <pt x="896" y="576" on="1"/>
        <pt x="896" y="512" on="1"/>
        <pt x="768" y="512" on="1"/>
        <pt x="640" y="512" on="1"/>
        <pt x="640" y="576" on="1"/>
        <pt x="640" y="640" on="1"/>
        <pt x="512" y="640" on="1"/>
        <pt x="384" y="640" on="1"/>
        <pt x="384" y="576" on="1"/>
        <pt x="384" y="512" on="1"/>
        <pt x="320" y="512" on="1"/>
        <pt x="256" y="512" on="1"/>
        <pt x="256" y="448" on="1"/>
        <pt x="256" y="384" on="1"/>
        <pt x="320" y="384" on="1"/>
        <pt x="384" y="384" on="1"/>
        <pt x="384" y="320" on="1"/>
        <pt x="384" y="256" on="1"/>
        <pt x="512" y="256" on="1"/>
        <pt x="640" y="256" on="1"/>
        <pt x="640" y="320" on="1"/>
        <pt x="640" y="384" on="1"/>
        <pt x="768" y="384" on="1"/>
        <pt x="896" y="384" on="1"/>
        <pt x="896" y="320" on="1"/>
        <pt x="896" y="256" on="1"/>
        <pt x="832" y="256" on="1"/>
        <pt x="768" y="256" on="1"/>
        <pt x="768" y="192" on="1"/>
        <pt x="768" y="128" on="1"/>
        <pt x="512" y="128" on="1"/>
        <pt x="256" y="128" on="1"/>
        <pt x="256" y="192" on="1"/>
        <pt x="256" y="256" on="1"/>
        <pt x="192" y="256" on="1"/>
        <pt x="128" y="256" on="1"/>
        <pt x="128" y="320" on="1"/>
        <pt x="128" y="384" on="1"/>
        <pt x="64" y="384" on="1"/>
        <pt x="0" y="384" on="1"/>
        <pt x="0" y="448" on="1"/>
        <pt x="0" y="512" on="1"/>
        <pt x="64" y="512" on="1"/>
        <pt x="128" y="512" on="1"/>
        <pt x="128" y="576" on="1"/>
        <pt x="128" y="640" on="1"/>
        <pt x="192" y="640" on="1"/>
        <pt x="256" y="640" on="1"/>
        <pt x="256" y="768" on="1"/>
        <pt x="256" y="896" on="1"/>
        <pt x="192" y="896" on="1"/>
        <pt x="128" y="896" on="1"/>
      </contour>
    </TTGlyph>
    <TTGlyph name="Ccedilla" xMin="0" yMin="0" xMax="896" yMax="1024">
      <contour>
        <pt x="256" y="960" on="1"/>
        <pt x="256" y="1024" on="1"/>
        <pt x="512" y="1024" on="1"/>
        <pt x="768" y="1024" on="1"/>
        <pt x="768" y="960" on="1"/>
        <pt x="768" y="896" on="1"/>
        <pt x="832" y="896" on="1"/>
        <pt x="896" y="896" on="1"/>
        <pt x="896" y="832" on="1"/>
        <pt x="896" y="768" on="1"/>
        <pt x="768" y="768" on="1"/>
        <pt x="640" y="768" on="1"/>
        <pt x="640" y="832" on="1"/>
        <pt x="640" y="896" on="1"/>
        <pt x="512" y="896" on="1"/>
        <pt x="384" y="896" on="1"/>
        <pt x="384" y="832" on="1"/>
        <pt x="384" y="768" on="1"/>
        <pt x="320" y="768" on="1"/>
        <pt x="256" y="768" on="1"/>
        <pt x="256" y="640" on="1"/>
        <pt x="256" y="512" on="1"/>
        <pt x="320" y="512" on="1"/>
        <pt x="384" y="512" on="1"/>
        <pt x="384" y="448" on="1"/>
        <pt x="384" y="384" on="1"/>
        <pt x="512" y="384" on="1"/>
        <pt x="640" y="384" on="1"/>
        <pt x="640" y="448" on="1"/>
        <pt x="640" y="512" on="1"/>
        <pt x="768" y="512" on="1"/>
        <pt x="896" y="512" on="1"/>
        <pt x="896" y="448" on="1"/>
        <pt x="896" y="384" on="1"/>
        <pt x="832" y="384" on="1"/>
        <pt x="768" y="384" on="1"/>
        <pt x="768" y="320" on="1"/>
        <pt x="768" y="256" on="1"/>
        <pt x="704" y="256" on="1"/>
        <pt x="640" y="256" on="1"/>
        <pt x="640" y="192" on="1"/>
        <pt x="640" y="128" on="1"/>
        <pt x="576" y="128" on="1"/>
        <pt x="512" y="128" on="1"/>
        <pt x="512" y="64" on="1"/>
        <pt x="512" y="0" on="1"/>
        <pt x="384" y="0" on="1"/>
        <pt x="256" y="0" on="1"/>
        <pt x="256" y="64" on="1"/>
        <pt x="256" y="128" on="1"/>
        <pt x="384" y="128" on="1"/>
        <pt x="512" y="128" on="1"/>
        <pt x="512" y="192" on="1"/>
        <pt x="512" y="256" on="1"/>
        <pt x="384" y="256" on="1"/>
        <pt x="256" y="256" on="1"/>
        <pt x="256" y="320" on="1"/>
        <pt x="256" y="384" on="1"/>
        <pt x="192" y="384" on="1"/>
        <pt x="128" y="384" on="1"/>
        <pt x="128" y="448" on="1"/>
        <pt x="128" y="512" on="1"/>
        <pt x="64" y="512" on="1"/>
        <pt x="0" y="512" on="1"/>
        <pt x="0" y="640" on="1"/>
        <pt x="0" y="768" on="1"/>
        <pt x="64" y="768" on="1"/>
        <pt x="128" y="768" on="1"/>
        <pt x="128" y="832" on="1"/>
        <pt x="128" y="896" on="1"/>
        <pt x="192" y="896" on="1"/>
        <pt x="256" y="896" on="1"/>
      </contour>
    </TTGlyph>
    <TTGlyph name="Ccircumflex" xMin="0" yMin="128" xMax="896" yMax="1024">
      <contour>
        <pt x="256" y="960" on="1"/>
        <pt x="256" y="1024" on="1"/>
        <pt x="448" y="1024" on="1"/>
        <pt x="640" y="1024" on="1"/>
        <pt x="640" y="960" on="1"/>
        <pt x="640" y="896" on="1"/>
        <pt x="704" y="896" on="1"/>
        <pt x="768" y="896" on="1"/>
        <pt x="768" y="768" on="1"/>
        <pt x="768" y="640" on="1"/>
        <pt x="832" y="640" on="1"/>
        <pt x="896" y="640" on="1"/>
        <pt x="896" y="576" on="1"/>
        <pt x="896" y="512" on="1"/>
        <pt x="768" y="512" on="1"/>
        <pt x="640" y="512" on="1"/>
        <pt x="640" y="576" on="1"/>
        <pt x="640" y="640" on="1"/>
        <pt x="512" y="640" on="1"/>
        <pt x="384" y="640" on="1"/>
        <pt x="384" y="576" on="1"/>
        <pt x="384" y="512" on="1"/>
        <pt x="320" y="512" on="1"/>
        <pt x="256" y="512" on="1"/>
        <pt x="256" y="448" on="1"/>
        <pt x="256" y="384" on="1"/>
        <pt x="320" y="384" on="1"/>
        <pt x="384" y="384" on="1"/>
        <pt x="384" y="320" on="1"/>
        <pt x="384" y="256" on="1"/>
        <pt x="512" y="256" on="1"/>
        <pt x="640" y="256" on="1"/>
        <pt x="640" y="320" on="1"/>
        <pt x="640" y="384" on="1"/>
        <pt x="768" y="384" on="1"/>
        <pt x="896" y="384" on="1"/>
        <pt x="896" y="320" on="1"/>
        <pt x="896" y="256" on="1"/>
        <pt x="832" y="256" on="1"/>
        <pt x="768" y="256" on="1"/>
        <pt x="768" y="192" on="1"/>
        <pt x="768" y="128" on="1"/>
        <pt x="512" y="128" on="1"/>
        <pt x="256" y="128" on="1"/>
        <pt x="256" y="192" on="1"/>
        <pt x="256" y="256" on="1"/>
        <pt x="192" y="256" on="1"/>
        <pt x="128" y="256" on="1"/>
        <pt x="128" y="320" on="1"/>
        <pt x="128" y="384" on="1"/>
        <pt x="64" y="384" on="1"/>
        <pt x="0" y="384" on="1"/>
        <pt x="0" y="448" on="1"/>
        <pt x="0" y="512" on="1"/>
        <pt x="64" y="512" on="1"/>
        <pt x="128" y="512" on="1"/>
        <pt x="128" y="576" on="1"/>
        <pt x="128" y="640" on="1"/>
        <pt x="192" y="640" on="1"/>
        <pt x="256" y="640" on="1"/>
        <pt x="256" y="704" on="1"/>
        <pt x="256" y="768" on="1"/>
        <pt x="192" y="768" on="1"/>
        <pt x="128" y="768" on="1"/>
        <pt x="128" y="832" on="1"/>
        <pt x="128" y="896" on="1"/>
        <pt x="192" y="896" on="1"/>
        <pt x="256" y="896" on="1"/>
      </contour>
      <contour>
        <pt x="512" y="832" on="1"/>
        <pt x="512" y="896" on="1"/>
        <pt x="448" y="896" on="1"/>
        <pt x="384" y="896" on="1"/>
        <pt x="384" y="832" on="1"/>
        <pt x="384" y="768" on="1"/>
        <pt x="448" y="768" on="1"/>
        <pt x="512" y="768" on="1"/>
      </contour>
    </TTGlyph>
    <TTGlyph name="Cdotaccent" xMin="0" yMin="128" xMax="896" yMax="1024">
      <contour>
        <pt x="256" y="704" on="1"/>
        <pt x="256" y="768" on="1"/>
        <pt x="512" y="768" on="1"/>
        <pt x="768" y="768" on="1"/>
        <pt x="768" y="704" on="1"/>
        <pt x="768" y="640" on="1"/>
        <pt x="832" y="640" on="1"/>
        <pt x="896" y="640" on="1"/>
        <pt x="896" y="576" on="1"/>
        <pt x="896" y="512" on="1"/>
        <pt x="768" y="512" on="1"/>
        <pt x="640" y="512" on="1"/>
        <pt x="640" y="576" on="1"/>
        <pt x="640" y="640" on="1"/>
        <pt x="512" y="640" on="1"/>
        <pt x="384" y="640" on="1"/>
        <pt x="384" y="576" on="1"/>
        <pt x="384" y="512" on="1"/>
        <pt x="320" y="512" on="1"/>
        <pt x="256" y="512" on="1"/>
        <pt x="256" y="448" on="1"/>
        <pt x="256" y="384" on="1"/>
        <pt x="320" y="384" on="1"/>
        <pt x="384" y="384" on="1"/>
        <pt x="384" y="320" on="1"/>
        <pt x="384" y="256" on="1"/>
        <pt x="512" y="256" on="1"/>
        <pt x="640" y="256" on="1"/>
        <pt x="640" y="320" on="1"/>
        <pt x="640" y="384" on="1"/>
        <pt x="768" y="384" on="1"/>
        <pt x="896" y="384" on="1"/>
        <pt x="896" y="320" on="1"/>
        <pt x="896" y="256" on="1"/>
        <pt x="832" y="256" on="1"/>
        <pt x="768" y="256" on="1"/>
        <pt x="768" y="192" on="1"/>
        <pt x="768" y="128" on="1"/>
        <pt x="512" y="128" on="1"/>
        <pt x="256" y="128" on="1"/>
        <pt x="256" y="192" on="1"/>
        <pt x="256" y="256" on="1"/>
        <pt x="192" y="256" on="1"/>
        <pt x="128" y="256" on="1"/>
        <pt x="128" y="320" on="1"/>
        <pt x="128" y="384" on="1"/>
        <pt x="64" y="384" on="1"/>
        <pt x="0" y="384" on="1"/>
        <pt x="0" y="448" on="1"/>
        <pt x="0" y="512" on="1"/>
        <pt x="64" y="512" on="1"/>
        <pt x="128" y="512" on="1"/>
        <pt x="128" y="576" on="1"/>
        <pt x="128" y="640" on="1"/>
        <pt x="192" y="640" on="1"/>
        <pt x="256" y="640" on="1"/>
      </contour>
      <contour>
        <pt x="384" y="960" on="1"/>
        <pt x="384" y="1024" on="1"/>
        <pt x="512" y="1024" on="1"/>
        <pt x="640" y="1024" on="1"/>
        <pt x="640" y="960" on="1"/>
        <pt x="640" y="896" on="1"/>
        <pt x="512" y="896" on="1"/>
        <pt x="384" y="896" on="1"/>
      </contour>
    </TTGlyph>
    <TTGlyph name="Chi" xMin="0" yMin="128" xMax="896" yMax="1024">
      <contour>
        <pt x="0" y="896" on="1"/>
        <pt x="0" y="1024" on="1"/>
        <pt x="128" y="1024" on="1"/>
        <pt x="256" y="1024" on="1"/>
        <pt x="256" y="960" on="1"/>
        <pt x="256" y="896" on="1"/>
        <pt x="320" y="896" on="1"/>
        <pt x="384" y="896" on="1"/>
        <pt x="384" y="832" on="1"/>
        <pt x="384" y="768" on="1"/>
        <pt x="448" y="768" on="1"/>
        <pt x="512" y="768" on="1"/>
        <pt x="512" y="832" on="1"/>
        <pt x="512" y="896" on="1"/>
        <pt x="576" y="896" on="1"/>
        <pt x="640" y="896" on="1"/>
        <pt x="640" y="960" on="1"/>
        <pt x="640" y="1024" on="1"/>
        <pt x="768" y="1024" on="1"/>
        <pt x="896" y="1024" on="1"/>
        <pt x="896" y="896" on="1"/>
        <pt x="896" y="768" on="1"/>
        <pt x="832" y="768" on="1"/>
        <pt x="768" y="768" on="1"/>
        <pt x="768" y="704" on="1"/>
        <pt x="768" y="640" on="1"/>
        <pt x="704" y="640" on="1"/>
        <pt x="640" y="640" on="1"/>
        <pt x="640" y="576" on="1"/>
        <pt x="640" y="512" on="1"/>
        <pt x="704" y="512" on="1"/>
        <pt x="768" y="512" on="1"/>
        <pt x="768" y="448" on="1"/>
        <pt x="768" y="384" on="1"/>
        <pt x="832" y="384" on="1"/>
        <pt x="896" y="384" on="1"/>
        <pt x="896" y="256" on="1"/>
        <pt x="896" y="128" on="1"/>
        <pt x="768" y="128" on="1"/>
        <pt x="640" y="128" on="1"/>
        <pt x="640" y="192" on="1"/>
        <pt x="640" y="256" on="1"/>
        <pt x="576" y="256" on="1"/>
        <pt x="512" y="256" on="1"/>
        <pt x="512" y="320" on="1"/>
        <pt x="512" y="384" on="1"/>
        <pt x="448" y="384" on="1"/>
        <pt x="384" y="384" on="1"/>
        <pt x="384" y="320" on="1"/>
        <pt x="384" y="256" on="1"/>
        <pt x="320" y="256" on="1"/>
        <pt x="256" y="256" on="1"/>
        <pt x="256" y="192" on="1"/>
        <pt x="256" y="128" on="1"/>
        <pt x="128" y="128" on="1"/>
        <pt x="0" y="128" on="1"/>
        <pt x="0" y="256" on="1"/>
        <pt x="0" y="384" on="1"/>
        <pt x="64" y="384" on="1"/>
        <pt x="128" y="384" on="1"/>
        <pt x="128" y="448" on="1"/>
        <pt x="128" y="512" on="1"/>
        <pt x="192" y="512" on="1"/>
        <pt x="256" y="512" on="1"/>
        <pt x="256" y="576" on="1"/>
        <pt x="256" y="640" on="1"/>
        <pt x="192" y="640" on="1"/>
        <pt x="128" y="640" on="1"/>
        <pt x="128" y="704" on="1"/>
        <pt x="128" y="768" on="1"/>
        <pt x="64" y="768" on="1"/>
        <pt x="0" y="768" on="1"/>
      </contour>
    </TTGlyph>
    <TTGlyph name="D" xMin="0" yMin="128" xMax="896" yMax="1024">
      <contour>
        <pt x="0" y="576" on="1"/>
        <pt x="0" y="1024" on="1"/>
        <pt x="320" y="1024" on="1"/>
        <pt x="640" y="1024" on="1"/>
        <pt x="640" y="960" on="1"/>
        <pt x="640" y="896" on="1"/>
        <pt x="704" y="896" on="1"/>
        <pt x="768" y="896" on="1"/>
        <pt x="768" y="832" on="1"/>
        <pt x="768" y="768" on="1"/>
        <pt x="832" y="768" on="1"/>
        <pt x="896" y="768" on="1"/>
        <pt x="896" y="576" on="1"/>
        <pt x="896" y="384" on="1"/>
        <pt x="832" y="384" on="1"/>
        <pt x="768" y="384" on="1"/>
        <pt x="768" y="320" on="1"/>
        <pt x="768" y="256" on="1"/>
        <pt x="704" y="256" on="1"/>
        <pt x="640" y="256" on="1"/>
        <pt x="640" y="192" on="1"/>
        <pt x="640" y="128" on="1"/>
        <pt x="320" y="128" on="1"/>
        <pt x="0" y="128" on="1"/>
      </contour>
      <contour>
        <pt x="512" y="832" on="1"/>
        <pt x="512" y="896" on="1"/>
        <pt x="384" y="896" on="1"/>
        <pt x="256" y="896" on="1"/>
        <pt x="256" y="576" on="1"/>
        <pt x="256" y="256" on="1"/>
        <pt x="384" y="256" on="1"/>
        <pt x="512" y="256" on="1"/>
        <pt x="512" y="320" on="1"/>
        <pt x="512" y="384" on="1"/>
        <pt x="576" y="384" on="1"/>
        <pt x="640" y="384" on="1"/>
        <pt x="640" y="576" on="1"/>
        <pt x="640" y="768" on="1"/>
        <pt x="576" y="768" on="1"/>
        <pt x="512" y="768" on="1"/>
      </contour>
    </TTGlyph>
    <TTGlyph name="Dcaron" xMin="0" yMin="128" xMax="896" yMax="1024">
      <contour>
        <pt x="128" y="960" on="1"/>
        <pt x="128" y="1024" on="1"/>
        <pt x="256" y="1024" on="1"/>
        <pt x="384" y="1024" on="1"/>
        <pt x="384" y="960" on="1"/>
        <pt x="384" y="896" on="1"/>
        <pt x="448" y="896" on="1"/>
        <pt x="512" y="896" on="1"/>
        <pt x="512" y="960" on="1"/>
        <pt x="512" y="1024" on="1"/>
        <pt x="640" y="1024" on="1"/>
        <pt x="768" y="1024" on="1"/>
        <pt x="768" y="960" on="1"/>
        <pt x="768" y="896" on="1"/>
        <pt x="704" y="896" on="1"/>
        <pt x="640" y="896" on="1"/>
        <pt x="640" y="768" on="1"/>
        <pt x="640" y="640" on="1"/>
        <pt x="704" y="640" on="1"/>
        <pt x="768" y="640" on="1"/>
        <pt x="768" y="576" on="1"/>
        <pt x="768" y="512" on="1"/>
        <pt x="832" y="512" on="1"/>
        <pt x="896" y="512" on="1"/>
        <pt x="896" y="448" on="1"/>
        <pt x="896" y="384" on="1"/>
        <pt x="832" y="384" on="1"/>
        <pt x="768" y="384" on="1"/>
        <pt x="768" y="320" on="1"/>
        <pt x="768" y="256" on="1"/>
        <pt x="704" y="256" on="1"/>
        <pt x="640" y="256" on="1"/>
        <pt x="640" y="192" on="1"/>
        <pt x="640" y="128" on="1"/>
        <pt x="320" y="128" on="1"/>
        <pt x="0" y="128" on="1"/>
        <pt x="0" y="448" on="1"/>
        <pt x="0" y="768" on="1"/>
        <pt x="128" y="768" on="1"/>
        <pt x="256" y="768" on="1"/>
        <pt x="256" y="832" on="1"/>
        <pt x="256" y="896" on="1"/>
        <pt x="192" y="896" on="1"/>
        <pt x="128" y="896" on="1"/>
      </contour>
      <contour>
        <pt x="512" y="576" on="1"/>
        <pt x="512" y="640" on="1"/>
        <pt x="384" y="640" on="1"/>
        <pt x="256" y="640" on="1"/>
        <pt x="256" y="448" on="1"/>
        <pt x="256" y="256" on="1"/>
        <pt x="384" y="256" on="1"/>
        <pt x="512" y="256" on="1"/>
        <pt x="512" y="320" on="1"/>
        <pt x="512" y="384" on="1"/>
        <pt x="576" y="384" on="1"/>
        <pt x="640" y="384" on="1"/>
        <pt x="640" y="448" on="1"/>
        <pt x="640" y="512" on="1"/>
        <pt x="576" y="512" on="1"/>
        <pt x="512" y="512" on="1"/>
      </contour>
    </TTGlyph>
    <TTGlyph name="Dcroat" xMin="0" yMin="128" xMax="896" yMax="1024">
      <contour>
        <pt x="128" y="832" on="1"/>
        <pt x="128" y="1024" on="1"/>
        <pt x="384" y="1024" on="1"/>
        <pt x="640" y="1024" on="1"/>
        <pt x="640" y="960" on="1"/>
        <pt x="640" y="896" on="1"/>
        <pt x="704" y="896" on="1"/>
        <pt x="768" y="896" on="1"/>
        <pt x="768" y="832" on="1"/>
        <pt x="768" y="768" on="1"/>
        <pt x="832" y="768" on="1"/>
        <pt x="896" y="768" on="1"/>
        <pt x="896" y="576" on="1"/>
        <pt x="896" y="384" on="1"/>
        <pt x="832" y="384" on="1"/>
        <pt x="768" y="384" on="1"/>
        <pt x="768" y="320" on="1"/>
        <pt x="768" y="256" on="1"/>
        <pt x="704" y="256" on="1"/>
        <pt x="640" y="256" on="1"/>
        <pt x="640" y="192" on="1"/>
        <pt x="640" y="128" on="1"/>
        <pt x="384" y="128" on="1"/>
        <pt x="128" y="128" on="1"/>
        <pt x="128" y="320" on="1"/>
        <pt x="128" y="512" on="1"/>
        <pt x="64" y="512" on="1"/>
        <pt x="0" y="512" on="1"/>
        <pt x="0" y="576" on="1"/>
        <pt x="0" y="640" on="1"/>
        <pt x="64" y="640" on="1"/>
        <pt x="128" y="640" on="1"/>
      </contour>
      <contour>
        <pt x="512" y="832" on="1"/>
        <pt x="512" y="896" on="1"/>
        <pt x="448" y="896" on="1"/>
        <pt x="384" y="896" on="1"/>
        <pt x="384" y="768" on="1"/>
        <pt x="384" y="640" on="1"/>
        <pt x="448" y="640" on="1"/>
        <pt x="512" y="640" on="1"/>
        <pt x="512" y="576" on="1"/>
        <pt x="512" y="512" on="1"/>
        <pt x="448" y="512" on="1"/>
        <pt x="384" y="512" on="1"/>
        <pt x="384" y="384" on="1"/>
        <pt x="384" y="256" on="1"/>
        <pt x="448" y="256" on="1"/>
        <pt x="512" y="256" on="1"/>
        <pt x="512" y="320" on="1"/>
        <pt x="512" y="384" on="1"/>
        <pt x="576" y="384" on="1"/>
        <pt x="640" y="384" on="1"/>
        <pt x="640" y="576" on="1"/>
        <pt x="640" y="768" on="1"/>
        <pt x="576" y="768" on="1"/>
        <pt x="512" y="768" on="1"/>
      </contour>
    </TTGlyph>
    <TTGlyph name="Delta" xMin="0" yMin="128" xMax="896" yMax="1024">
      <contour>
        <pt x="256" y="960" on="1"/>
        <pt x="256" y="1024" on="1"/>
        <pt x="448" y="1024" on="1"/>
        <pt x="640" y="1024" on="1"/>
        <pt x="640" y="960" on="1"/>
        <pt x="640" y="896" on="1"/>
        <pt x="704" y="896" on="1"/>
        <pt x="768" y="896" on="1"/>
        <pt x="768" y="832" on="1"/>
        <pt x="768" y="768" on="1"/>
        <pt x="832" y="768" on="1"/>
        <pt x="896" y="768" on="1"/>
        <pt x="896" y="448" on="1"/>
        <pt x="896" y="128" on="1"/>
        <pt x="448" y="128" on="1"/>
        <pt x="0" y="128" on="1"/>
        <pt x="0" y="448" on="1"/>
        <pt x="0" y="768" on="1"/>
        <pt x="64" y="768" on="1"/>
        <pt x="128" y="768" on="1"/>
        <pt x="128" y="832" on="1"/>
        <pt x="128" y="896" on="1"/>
        <pt x="192" y="896" on="1"/>
        <pt x="256" y="896" on="1"/>
      </contour>
      <contour>
        <pt x="512" y="832" on="1"/>
        <pt x="512" y="896" on="1"/>
        <pt x="448" y="896" on="1"/>
        <pt x="384" y="896" on="1"/>
        <pt x="384" y="832" on="1"/>
        <pt x="384" y="768" on="1"/>
        <pt x="320" y="768" on="1"/>
        <pt x="256" y="768" on="1"/>
        <pt x="256" y="512" on="1"/>
        <pt x="256" y="256" on="1"/>
        <pt x="448" y="256" on="1"/>
        <pt x="640" y="256" on="1"/>
        <pt x="640" y="512" on="1"/>
        <pt x="640" y="768" on="1"/>
        <pt x="576" y="768" on="1"/>
        <pt x="512" y="768" on="1"/>
      </contour>
    </TTGlyph>
    <TTGlyph name="E" xMin="0" yMin="128" xMax="896" yMax="1024">
      <contour>
        <pt x="0" y="576" on="1"/>
        <pt x="0" y="1024" on="1"/>
        <pt x="448" y="1024" on="1"/>
        <pt x="896" y="1024" on="1"/>
        <pt x="896" y="960" on="1"/>
        <pt x="896" y="896" on="1"/>
        <pt x="576" y="896" on="1"/>
        <pt x="256" y="896" on="1"/>
        <pt x="256" y="768" on="1"/>
        <pt x="256" y="640" on="1"/>
        <pt x="512" y="640" on="1"/>
        <pt x="768" y="640" on="1"/>
        <pt x="768" y="576" on="1"/>
        <pt x="768" y="512" on="1"/>
        <pt x="512" y="512" on="1"/>
        <pt x="256" y="512" on="1"/>
        <pt x="256" y="384" on="1"/>
        <pt x="256" y="256" on="1"/>
        <pt x="576" y="256" on="1"/>
        <pt x="896" y="256" on="1"/>
        <pt x="896" y="192" on="1"/>
        <pt x="896" y="128" on="1"/>
        <pt x="448" y="128" on="1"/>
        <pt x="0" y="128" on="1"/>
      </contour>
    </TTGlyph>
    <TTGlyph name="Eacute" xMin="0" yMin="128" xMax="896" yMax="1024">
      <contour>
        <pt x="512" y="960" on="1"/>
        <pt x="512" y="1024" on="1"/>
        <pt x="576" y="1024" on="1"/>
        <pt x="640" y="1024" on="1"/>
        <pt x="640" y="960" on="1"/>
        <pt x="640" y="896" on="1"/>
        <pt x="576" y="896" on="1"/>
        <pt x="512" y="896" on="1"/>
        <pt x="512" y="832" on="1"/>
        <pt x="512" y="768" on="1"/>
        <pt x="704" y="768" on="1"/>
        <pt x="896" y="768" on="1"/>
        <pt x="896" y="704" on="1"/>
        <pt x="896" y="640" on="1"/>
        <pt x="576" y="640" on="1"/>
        <pt x="256" y="640" on="1"/>
        <pt x="256" y="576" on="1"/>
        <pt x="256" y="512" on="1"/>
        <pt x="512" y="512" on="1"/>
        <pt x="768" y="512" on="1"/>
        <pt x="768" y="448" on="1"/>
        <pt x="768" y="384" on="1"/>
        <pt x="512" y="384" on="1"/>
        <pt x="256" y="384" on="1"/>
        <pt x="256" y="320" on="1"/>
        <pt x="256" y="256" on="1"/>
        <pt x="576" y="256" on="1"/>
        <pt x="896" y="256" on="1"/>
        <pt x="896" y="192" on="1"/>
        <pt x="896" y="128" on="1"/>
        <pt x="448" y="128" on="1"/>
        <pt x="0" y="128" on="1"/>
        <pt x="0" y="448" on="1"/>
        <pt x="0" y="768" on="1"/>
        <pt x="192" y="768" on="1"/>
        <pt x="384" y="768" on="1"/>
        <pt x="384" y="832" on="1"/>
        <pt x="384" y="896" on="1"/>
        <pt x="448" y="896" on="1"/>
        <pt x="512" y="896" on="1"/>
      </contour>
    </TTGlyph>
    <TTGlyph name="Ebreve" xMin="0" yMin="128" xMax="896" yMax="1024">
      <contour>
        <pt x="128" y="960" on="1"/>
        <pt x="128" y="1024" on="1"/>
        <pt x="192" y="1024" on="1"/>
        <pt x="256" y="1024" on="1"/>
        <pt x="256" y="960" on="1"/>
        <pt x="256" y="896" on="1"/>
        <pt x="448" y="896" on="1"/>
        <pt x="640" y="896" on="1"/>
        <pt x="640" y="960" on="1"/>
        <pt x="640" y="1024" on="1"/>
        <pt x="704" y="1024" on="1"/>
        <pt x="768" y="1024" on="1"/>
        <pt x="768" y="960" on="1"/>
        <pt x="768" y="896" on="1"/>
        <pt x="704" y="896" on="1"/>
        <pt x="640" y="896" on="1"/>
        <pt x="640" y="832" on="1"/>
        <pt x="640" y="768" on="1"/>
        <pt x="768" y="768" on="1"/>
        <pt x="896" y="768" on="1"/>
        <pt x="896" y="704" on="1"/>
        <pt x="896" y="640" on="1"/>
        <pt x="576" y="640" on="1"/>
        <pt x="256" y="640" on="1"/>
        <pt x="256" y="576" on="1"/>
        <pt x="256" y="512" on="1"/>
        <pt x="512" y="512" on="1"/>
        <pt x="768" y="512" on="1"/>
        <pt x="768" y="448" on="1"/>
        <pt x="768" y="384" on="1"/>
        <pt x="512" y="384" on="1"/>
        <pt x="256" y="384" on="1"/>
        <pt x="256" y="320" on="1"/>
        <pt x="256" y="256" on="1"/>
        <pt x="576" y="256" on="1"/>
        <pt x="896" y="256" on="1"/>
        <pt x="896" y="192" on="1"/>
        <pt x="896" y="128" on="1"/>
        <pt x="448" y="128" on="1"/>
        <pt x="0" y="128" on="1"/>
        <pt x="0" y="448" on="1"/>
        <pt x="0" y="768" on="1"/>
        <pt x="128" y="768" on="1"/>
        <pt x="256" y="768" on="1"/>
        <pt x="256" y="832" on="1"/>
        <pt x="256" y="896" on="1"/>
        <pt x="192" y="896" on="1"/>
        <pt x="128" y="896" on="1"/>
      </contour>
    </TTGlyph>
    <TTGlyph name="Ecaron" xMin="0" yMin="128" xMax="896" yMax="1024">
      <contour>
        <pt x="128" y="960" on="1"/>
        <pt x="128" y="1024" on="1"/>
        <pt x="256" y="1024" on="1"/>
        <pt x="384" y="1024" on="1"/>
        <pt x="384" y="960" on="1"/>
        <pt x="384" y="896" on="1"/>
        <pt x="448" y="896" on="1"/>
        <pt x="512" y="896" on="1"/>
        <pt x="512" y="960" on="1"/>
        <pt x="512" y="1024" on="1"/>
        <pt x="640" y="1024" on="1"/>
        <pt x="768" y="1024" on="1"/>
        <pt x="768" y="960" on="1"/>
        <pt x="768" y="896" on="1"/>
        <pt x="704" y="896" on="1"/>
        <pt x="640" y="896" on="1"/>
        <pt x="640" y="832" on="1"/>
        <pt x="640" y="768" on="1"/>
        <pt x="768" y="768" on="1"/>
        <pt x="896" y="768" on="1"/>
        <pt x="896" y="704" on="1"/>
        <pt x="896" y="640" on="1"/>
        <pt x="576" y="640" on="1"/>
        <pt x="256" y="640" on="1"/>
        <pt x="256" y="576" on="1"/>
        <pt x="256" y="512" on="1"/>
        <pt x="512" y="512" on="1"/>
        <pt x="768" y="512" on="1"/>
        <pt x="768" y="448" on="1"/>
        <pt x="768" y="384" on="1"/>
        <pt x="512" y="384" on="1"/>
        <pt x="256" y="384" on="1"/>
        <pt x="256" y="320" on="1"/>
        <pt x="256" y="256" on="1"/>
        <pt x="576" y="256" on="1"/>
        <pt x="896" y="256" on="1"/>
        <pt x="896" y="192" on="1"/>
        <pt x="896" y="128" on="1"/>
        <pt x="448" y="128" on="1"/>
        <pt x="0" y="128" on="1"/>
        <pt x="0" y="448" on="1"/>
        <pt x="0" y="768" on="1"/>
        <pt x="128" y="768" on="1"/>
        <pt x="256" y="768" on="1"/>
        <pt x="256" y="832" on="1"/>
        <pt x="256" y="896" on="1"/>
        <pt x="192" y="896" on="1"/>
        <pt x="128" y="896" on="1"/>
      </contour>
    </TTGlyph>
    <TTGlyph name="Ecircumflex" xMin="0" yMin="128" xMax="896" yMax="1024">
      <contour>
        <pt x="256" y="960" on="1"/>
        <pt x="256" y="1024" on="1"/>
        <pt x="448" y="1024" on="1"/>
        <pt x="640" y="1024" on="1"/>
        <pt x="640" y="960" on="1"/>
        <pt x="640" y="896" on="1"/>
        <pt x="704" y="896" on="1"/>
        <pt x="768" y="896" on="1"/>
        <pt x="768" y="832" on="1"/>
        <pt x="768" y="768" on="1"/>
        <pt x="832" y="768" on="1"/>
        <pt x="896" y="768" on="1"/>
        <pt x="896" y="704" on="1"/>
        <pt x="896" y="640" on="1"/>
        <pt x="576" y="640" on="1"/>
        <pt x="256" y="640" on="1"/>
        <pt x="256" y="576" on="1"/>
        <pt x="256" y="512" on="1"/>
        <pt x="512" y="512" on="1"/>
        <pt x="768" y="512" on="1"/>
        <pt x="768" y="448" on="1"/>
        <pt x="768" y="384" on="1"/>
        <pt x="512" y="384" on="1"/>
        <pt x="256" y="384" on="1"/>
        <pt x="256" y="320" on="1"/>
        <pt x="256" y="256" on="1"/>
        <pt x="576" y="256" on="1"/>
        <pt x="896" y="256" on="1"/>
        <pt x="896" y="192" on="1"/>
        <pt x="896" y="128" on="1"/>
        <pt x="448" y="128" on="1"/>
        <pt x="0" y="128" on="1"/>
        <pt x="0" y="448" on="1"/>
        <pt x="0" y="768" on="1"/>
        <pt x="64" y="768" on="1"/>
        <pt x="128" y="768" on="1"/>
        <pt x="128" y="832" on="1"/>
        <pt x="128" y="896" on="1"/>
        <pt x="192" y="896" on="1"/>
        <pt x="256" y="896" on="1"/>
      </contour>
      <contour>
        <pt x="512" y="832" on="1"/>
        <pt x="512" y="896" on="1"/>
        <pt x="448" y="896" on="1"/>
        <pt x="384" y="896" on="1"/>
        <pt x="384" y="832" on="1"/>
        <pt x="384" y="768" on="1"/>
        <pt x="448" y="768" on="1"/>
        <pt x="512" y="768" on="1"/>
      </contour>
    </TTGlyph>
    <TTGlyph name="Edieresis" xMin="0" yMin="128" xMax="896" yMax="1024">
      <contour>
        <pt x="0" y="448" on="1"/>
        <pt x="0" y="768" on="1"/>
        <pt x="448" y="768" on="1"/>
        <pt x="896" y="768" on="1"/>
        <pt x="896" y="704" on="1"/>
        <pt x="896" y="640" on="1"/>
        <pt x="576" y="640" on="1"/>
        <pt x="256" y="640" on="1"/>
        <pt x="256" y="576" on="1"/>
        <pt x="256" y="512" on="1"/>
        <pt x="512" y="512" on="1"/>
        <pt x="768" y="512" on="1"/>
        <pt x="768" y="448" on="1"/>
        <pt x="768" y="384" on="1"/>
        <pt x="512" y="384" on="1"/>
        <pt x="256" y="384" on="1"/>
        <pt x="256" y="320" on="1"/>
        <pt x="256" y="256" on="1"/>
        <pt x="576" y="256" on="1"/>
        <pt x="896" y="256" on="1"/>
        <pt x="896" y="192" on="1"/>
        <pt x="896" y="128" on="1"/>
        <pt x="448" y="128" on="1"/>
        <pt x="0" y="128" on="1"/>
      </contour>
      <contour>
        <pt x="512" y="960" on="1"/>
        <pt x="512" y="1024" on="1"/>
        <pt x="640" y="1024" on="1"/>
        <pt x="768" y="1024" on="1"/>
        <pt x="768" y="960" on="1"/>
        <pt x="768" y="896" on="1"/>
        <pt x="640" y="896" on="1"/>
        <pt x="512" y="896" on="1"/>
      </contour>
      <contour>
        <pt x="128" y="960" on="1"/>
        <pt x="128" y="1024" on="1"/>
        <pt x="256" y="1024" on="1"/>
        <pt x="384" y="1024" on="1"/>
        <pt x="384" y="960" on="1"/>
        <pt x="384" y="896" on="1"/>
        <pt x="256" y="896" on="1"/>
        <pt x="128" y="896" on="1"/>
      </contour>
    </TTGlyph>
    <TTGlyph name="Edotaccent" xMin="0" yMin="128" xMax="896" yMax="1024">
      <contour>
        <pt x="0" y="448" on="1"/>
        <pt x="0" y="768" on="1"/>
        <pt x="448" y="768" on="1"/>
        <pt x="896" y="768" on="1"/>
        <pt x="896" y="704" on="1"/>
        <pt x="896" y="640" on="1"/>
        <pt x="576" y="640" on="1"/>
        <pt x="256" y="640" on="1"/>
        <pt x="256" y="576" on="1"/>
        <pt x="256" y="512" on="1"/>
        <pt x="512" y="512" on="1"/>
        <pt x="768" y="512" on="1"/>
        <pt x="768" y="448" on="1"/>
        <pt x="768" y="384" on="1"/>
        <pt x="512" y="384" on="1"/>
        <pt x="256" y="384" on="1"/>
        <pt x="256" y="320" on="1"/>
        <pt x="256" y="256" on="1"/>
        <pt x="576" y="256" on="1"/>
        <pt x="896" y="256" on="1"/>
        <pt x="896" y="192" on="1"/>
        <pt x="896" y="128" on="1"/>
        <pt x="448" y="128" on="1"/>
        <pt x="0" y="128" on="1"/>
      </contour>
      <contour>
        <pt x="384" y="960" on="1"/>
        <pt x="384" y="1024" on="1"/>
        <pt x="512" y="1024" on="1"/>
        <pt x="640" y="1024" on="1"/>
        <pt x="640" y="960" on="1"/>
        <pt x="640" y="896" on="1"/>
        <pt x="512" y="896" on="1"/>
        <pt x="384" y="896" on="1"/>
      </contour>
    </TTGlyph>
    <TTGlyph name="Egrave" xMin="0" yMin="128" xMax="896" yMax="1024">
      <contour>
        <pt x="256" y="960" on="1"/>
        <pt x="256" y="1024" on="1"/>
        <pt x="320" y="1024" on="1"/>
        <pt x="384" y="1024" on="1"/>
        <pt x="384" y="960" on="1"/>
        <pt x="384" y="896" on="1"/>
        <pt x="448" y="896" on="1"/>
        <pt x="512" y="896" on="1"/>
        <pt x="512" y="832" on="1"/>
        <pt x="512" y="768" on="1"/>
        <pt x="704" y="768" on="1"/>
        <pt x="896" y="768" on="1"/>
        <pt x="896" y="704" on="1"/>
        <pt x="896" y="640" on="1"/>
        <pt x="576" y="640" on="1"/>
        <pt x="256" y="640" on="1"/>
        <pt x="256" y="576" on="1"/>
        <pt x="256" y="512" on="1"/>
        <pt x="512" y="512" on="1"/>
        <pt x="768" y="512" on="1"/>
        <pt x="768" y="448" on="1"/>
        <pt x="768" y="384" on="1"/>
        <pt x="512" y="384" on="1"/>
        <pt x="256" y="384" on="1"/>
        <pt x="256" y="320" on="1"/>
        <pt x="256" y="256" on="1"/>
        <pt x="576" y="256" on="1"/>
        <pt x="896" y="256" on="1"/>
        <pt x="896" y="192" on="1"/>
        <pt x="896" y="128" on="1"/>
        <pt x="448" y="128" on="1"/>
        <pt x="0" y="128" on="1"/>
        <pt x="0" y="448" on="1"/>
        <pt x="0" y="768" on="1"/>
        <pt x="192" y="768" on="1"/>
        <pt x="384" y="768" on="1"/>
        <pt x="384" y="832" on="1"/>
        <pt x="384" y="896" on="1"/>
        <pt x="320" y="896" on="1"/>
        <pt x="256" y="896" on="1"/>
      </contour>
    </TTGlyph>
    <TTGlyph name="Emacron" xMin="0" yMin="128" xMax="896" yMax="1024">
      <contour>
        <pt x="0" y="448" on="1"/>
        <pt x="0" y="768" on="1"/>
        <pt x="448" y="768" on="1"/>
        <pt x="896" y="768" on="1"/>
        <pt x="896" y="704" on="1"/>
        <pt x="896" y="640" on="1"/>
        <pt x="576" y="640" on="1"/>
        <pt x="256" y="640" on="1"/>
        <pt x="256" y="576" on="1"/>
        <pt x="256" y="512" on="1"/>
        <pt x="512" y="512" on="1"/>
        <pt x="768" y="512" on="1"/>
        <pt x="768" y="448" on="1"/>
        <pt x="768" y="384" on="1"/>
        <pt x="512" y="384" on="1"/>
        <pt x="256" y="384" on="1"/>
        <pt x="256" y="320" on="1"/>
        <pt x="256" y="256" on="1"/>
        <pt x="576" y="256" on="1"/>
        <pt x="896" y="256" on="1"/>
        <pt x="896" y="192" on="1"/>
        <pt x="896" y="128" on="1"/>
        <pt x="448" y="128" on="1"/>
        <pt x="0" y="128" on="1"/>
      </contour>
      <contour>
        <pt x="128" y="960" on="1"/>
        <pt x="128" y="1024" on="1"/>
        <pt x="448" y="1024" on="1"/>
        <pt x="768" y="1024" on="1"/>
        <pt x="768" y="960" on="1"/>
        <pt x="768" y="896" on="1"/>
        <pt x="448" y="896" on="1"/>
        <pt x="128" y="896" on="1"/>
      </contour>
    </TTGlyph>
    <TTGlyph name="Eng" xMin="0" yMin="0" xMax="896" yMax="1024">
      <contour>
        <pt x="0" y="640" on="1"/>
        <pt x="0" y="1024" on="1"/>
        <pt x="192" y="1024" on="1"/>
        <pt x="384" y="1024" on="1"/>
        <pt x="384" y="960" on="1"/>
        <pt x="384" y="896" on="1"/>
        <pt x="448" y="896" on="1"/>
        <pt x="512" y="896" on="1"/>
        <pt x="512" y="832" on="1"/>
        <pt x="512" y="768" on="1"/>
        <pt x="576" y="768" on="1"/>
        <pt x="640" y="768" on="1"/>
        <pt x="640" y="896" on="1"/>
        <pt x="640" y="1024" on="1"/>
        <pt x="768" y="1024" on="1"/>
        <pt x="896" y="1024" on="1"/>
        <pt x="896" y="576" on="1"/>
        <pt x="896" y="128" on="1"/>
        <pt x="832" y="128" on="1"/>
        <pt x="768" y="128" on="1"/>
        <pt x="768" y="64" on="1"/>
        <pt x="768" y="0" on="1"/>
        <pt x="512" y="0" on="1"/>
        <pt x="256" y="0" on="1"/>
        <pt x="256" y="64" on="1"/>
        <pt x="256" y="128" on="1"/>
        <pt x="448" y="128" on="1"/>
        <pt x="640" y="128" on="1"/>
        <pt x="640" y="256" on="1"/>
        <pt x="640" y="384" on="1"/>
        <pt x="576" y="384" on="1"/>
        <pt x="512" y="384" on="1"/>
        <pt x="512" y="448" on="1"/>
        <pt x="512" y="512" on="1"/>
        <pt x="448" y="512" on="1"/>
        <pt x="384" y="512" on="1"/>
        <pt x="384" y="576" on="1"/>
        <pt x="384" y="640" on="1"/>
        <pt x="320" y="640" on="1"/>
        <pt x="256" y="640" on="1"/>
        <pt x="256" y="448" on="1"/>
        <pt x="256" y="256" on="1"/>
        <pt x="128" y="256" on="1"/>
        <pt x="0" y="256" on="1"/>
      </contour>
    </TTGlyph>
    <TTGlyph name="Eogonek" xMin="0" yMin="0" xMax="896" yMax="1024">
      <contour>
        <pt x="0" y="704" on="1"/>
        <pt x="0" y="1024" on="1"/>
        <pt x="448" y="1024" on="1"/>
        <pt x="896" y="1024" on="1"/>
        <pt x="896" y="960" on="1"/>
        <pt x="896" y="896" on="1"/>
        <pt x="576" y="896" on="1"/>
        <pt x="256" y="896" on="1"/>
        <pt x="256" y="832" on="1"/>
        <pt x="256" y="768" on="1"/>
        <pt x="512" y="768" on="1"/>
        <pt x="768" y="768" on="1"/>
        <pt x="768" y="704" on="1"/>
        <pt x="768" y="640" on="1"/>
        <pt x="512" y="640" on="1"/>
        <pt x="256" y="640" on="1"/>
        <pt x="256" y="576" on="1"/>
        <pt x="256" y="512" on="1"/>
        <pt x="576" y="512" on="1"/>
        <pt x="896" y="512" on="1"/>
        <pt x="896" y="448" on="1"/>
        <pt x="896" y="384" on="1"/>
        <pt x="704" y="384" on="1"/>
        <pt x="512" y="384" on="1"/>
        <pt x="512" y="320" on="1"/>
        <pt x="512" y="256" on="1"/>
        <pt x="448" y="256" on="1"/>
        <pt x="384" y="256" on="1"/>
        <pt x="384" y="192" on="1"/>
        <pt x="384" y="128" on="1"/>
        <pt x="512" y="128" on="1"/>
        <pt x="640" y="128" on="1"/>
        <pt x="640" y="64" on="1"/>
        <pt x="640" y="0" on="1"/>
        <pt x="512" y="0" on="1"/>
        <pt x="384" y="0" on="1"/>
        <pt x="384" y="64" on="1"/>
        <pt x="384" y="128" on="1"/>
        <pt x="320" y="128" on="1"/>
        <pt x="256" y="128" on="1"/>
        <pt x="256" y="192" on="1"/>
        <pt x="256" y="256" on="1"/>
        <pt x="320" y="256" on="1"/>
        <pt x="384" y="256" on="1"/>
        <pt x="384" y="320" on="1"/>
        <pt x="384" y="384" on="1"/>
        <pt x="192" y="384" on="1"/>
        <pt x="0" y="384" on="1"/>
      </contour>
    </TTGlyph>
    <TTGlyph name="Epsilon" xMin="0" yMin="128" xMax="896" yMax="1024">
      <contour>
        <pt x="0" y="576" on="1"/>
        <pt x="0" y="1024" on="1"/>
        <pt x="448" y="1024" on="1"/>
        <pt x="896" y="1024" on="1"/>
        <pt x="896" y="960" on="1"/>
        <pt x="896" y="896" on="1"/>
        <pt x="576" y="896" on="1"/>
        <pt x="256" y="896" on="1"/>
        <pt x="256" y="768" on="1"/>
        <pt x="256" y="640" on="1"/>
        <pt x="512" y="640" on="1"/>
        <pt x="768" y="640" on="1"/>
        <pt x="768" y="576" on="1"/>
        <pt x="768" y="512" on="1"/>
        <pt x="512" y="512" on="1"/>
        <pt x="256" y="512" on="1"/>
        <pt x="256" y="384" on="1"/>
        <pt x="256" y="256" on="1"/>
        <pt x="576" y="256" on="1"/>
        <pt x="896" y="256" on="1"/>
        <pt x="896" y="192" on="1"/>
        <pt x="896" y="128" on="1"/>
        <pt x="448" y="128" on="1"/>
        <pt x="0" y="128" on="1"/>
      </contour>
    </TTGlyph>
    <TTGlyph name="Epsilontonos" xMin="0" yMin="128" xMax="1024" yMax="1024">
      <contour>
        <pt x="128" y="960" on="1"/>
        <pt x="128" y="1024" on="1"/>
        <pt x="576" y="1024" on="1"/>
        <pt x="1024" y="1024" on="1"/>
        <pt x="1024" y="960" on="1"/>
        <pt x="1024" y="896" on="1"/>
        <pt x="768" y="896" on="1"/>
        <pt x="512" y="896" on="1"/>
        <pt x="512" y="768" on="1"/>
        <pt x="512" y="640" on="1"/>
        <pt x="640" y="640" on="1"/>
        <pt x="768" y="640" on="1"/>
        <pt x="768" y="576" on="1"/>
        <pt x="768" y="512" on="1"/>
        <pt x="640" y="512" on="1"/>
        <pt x="512" y="512" on="1"/>
        <pt x="512" y="384" on="1"/>
        <pt x="512" y="256" on="1"/>
        <pt x="768" y="256" on="1"/>
        <pt x="1024" y="256" on="1"/>
        <pt x="1024" y="192" on="1"/>
        <pt x="1024" y="128" on="1"/>
        <pt x="640" y="128" on="1"/>
        <pt x="256" y="128" on="1"/>
        <pt x="256" y="512" on="1"/>
        <pt x="256" y="896" on="1"/>
        <pt x="192" y="896" on="1"/>
        <pt x="128" y="896" on="1"/>
        <pt x="128" y="832" on="1"/>
        <pt x="128" y="768" on="1"/>
        <pt x="64" y="768" on="1"/>
        <pt x="0" y="768" on="1"/>
        <pt x="0" y="832" on="1"/>
        <pt x="0" y="896" on="1"/>
        <pt x="64" y="896" on="1"/>
        <pt x="128" y="896" on="1"/>
      </contour>
    </TTGlyph>
    <TTGlyph name="Eta" xMin="0" yMin="128" xMax="896" yMax="1024">
      <contour>
        <pt x="0" y="576" on="1"/>
        <pt x="0" y="1024" on="1"/>
        <pt x="128" y="1024" on="1"/>
        <pt x="256" y="1024" on="1"/>
        <pt x="256" y="832" on="1"/>
        <pt x="256" y="640" on="1"/>
        <pt x="448" y="640" on="1"/>
        <pt x="640" y="640" on="1"/>
        <pt x="640" y="832" on="1"/>
        <pt x="640" y="1024" on="1"/>
        <pt x="768" y="1024" on="1"/>
        <pt x="896" y="1024" on="1"/>
        <pt x="896" y="576" on="1"/>
        <pt x="896" y="128" on="1"/>
        <pt x="768" y="128" on="1"/>
        <pt x="640" y="128" on="1"/>
        <pt x="640" y="320" on="1"/>
        <pt x="640" y="512" on="1"/>
        <pt x="448" y="512" on="1"/>
        <pt x="256" y="512" on="1"/>
        <pt x="256" y="320" on="1"/>
        <pt x="256" y="128" on="1"/>
        <pt x="128" y="128" on="1"/>
        <pt x="0" y="128" on="1"/>
      </contour>
    </TTGlyph>
    <TTGlyph name="Etatonos" xMin="0" yMin="128" xMax="1024" yMax="1024">
      <contour>
        <pt x="128" y="960" on="1"/>
        <pt x="128" y="1024" on="1"/>
        <pt x="320" y="1024" on="1"/>
        <pt x="512" y="1024" on="1"/>
        <pt x="512" y="832" on="1"/>
        <pt x="512" y="640" on="1"/>
        <pt x="640" y="640" on="1"/>
        <pt x="768" y="640" on="1"/>
        <pt x="768" y="832" on="1"/>
        <pt x="768" y="1024" on="1"/>
        <pt x="896" y="1024" on="1"/>
        <pt x="1024" y="1024" on="1"/>
        <pt x="1024" y="576" on="1"/>
        <pt x="1024" y="128" on="1"/>
        <pt x="896" y="128" on="1"/>
        <pt x="768" y="128" on="1"/>
        <pt x="768" y="320" on="1"/>
        <pt x="768" y="512" on="1"/>
        <pt x="640" y="512" on="1"/>
        <pt x="512" y="512" on="1"/>
        <pt x="512" y="320" on="1"/>
        <pt x="512" y="128" on="1"/>
        <pt x="384" y="128" on="1"/>
        <pt x="256" y="128" on="1"/>
        <pt x="256" y="512" on="1"/>
        <pt x="256" y="896" on="1"/>
        <pt x="192" y="896" on="1"/>
        <pt x="128" y="896" on="1"/>
        <pt x="128" y="832" on="1"/>
        <pt x="128" y="768" on="1"/>
        <pt x="64" y="768" on="1"/>
        <pt x="0" y="768" on="1"/>
        <pt x="0" y="832" on="1"/>
        <pt x="0" y="896" on="1"/>
        <pt x="64" y="896" on="1"/>
        <pt x="128" y="896" on="1"/>
      </contour>
    </TTGlyph>
    <TTGlyph name="Eth" xMin="0" yMin="128" xMax="896" yMax="1024">
      <contour>
        <pt x="128" y="832" on="1"/>
        <pt x="128" y="1024" on="1"/>
        <pt x="384" y="1024" on="1"/>
        <pt x="640" y="1024" on="1"/>
        <pt x="640" y="960" on="1"/>
        <pt x="640" y="896" on="1"/>
        <pt x="704" y="896" on="1"/>
        <pt x="768" y="896" on="1"/>
        <pt x="768" y="832" on="1"/>
        <pt x="768" y="768" on="1"/>
        <pt x="832" y="768" on="1"/>
        <pt x="896" y="768" on="1"/>
        <pt x="896" y="576" on="1"/>
        <pt x="896" y="384" on="1"/>
        <pt x="832" y="384" on="1"/>
        <pt x="768" y="384" on="1"/>
        <pt x="768" y="320" on="1"/>
        <pt x="768" y="256" on="1"/>
        <pt x="704" y="256" on="1"/>
        <pt x="640" y="256" on="1"/>
        <pt x="640" y="192" on="1"/>
        <pt x="640" y="128" on="1"/>
        <pt x="384" y="128" on="1"/>
        <pt x="128" y="128" on="1"/>
        <pt x="128" y="320" on="1"/>
        <pt x="128" y="512" on="1"/>
        <pt x="64" y="512" on="1"/>
        <pt x="0" y="512" on="1"/>
        <pt x="0" y="576" on="1"/>
        <pt x="0" y="640" on="1"/>
        <pt x="64" y="640" on="1"/>
        <pt x="128" y="640" on="1"/>
      </contour>
      <contour>
        <pt x="512" y="832" on="1"/>
        <pt x="512" y="896" on="1"/>
        <pt x="448" y="896" on="1"/>
        <pt x="384" y="896" on="1"/>
        <pt x="384" y="768" on="1"/>
        <pt x="384" y="640" on="1"/>
        <pt x="448" y="640" on="1"/>
        <pt x="512" y="640" on="1"/>
        <pt x="512" y="576" on="1"/>
        <pt x="512" y="512" on="1"/>
        <pt x="448" y="512" on="1"/>
        <pt x="384" y="512" on="1"/>
        <pt x="384" y="384" on="1"/>
        <pt x="384" y="256" on="1"/>
        <pt x="448" y="256" on="1"/>
        <pt x="512" y="256" on="1"/>
        <pt x="512" y="320" on="1"/>
        <pt x="512" y="384" on="1"/>
        <pt x="576" y="384" on="1"/>
        <pt x="640" y="384" on="1"/>
        <pt x="640" y="576" on="1"/>
        <pt x="640" y="768" on="1"/>
        <pt x="576" y="768" on="1"/>
        <pt x="512" y="768" on="1"/>
      </contour>
    </TTGlyph>
    <TTGlyph name="Euro" xMin="0" yMin="128" xMax="896" yMax="1024">
      <contour>
        <pt x="384" y="960" on="1"/>
        <pt x="384" y="1024" on="1"/>
        <pt x="576" y="1024" on="1"/>
        <pt x="768" y="1024" on="1"/>
        <pt x="768" y="960" on="1"/>
        <pt x="768" y="896" on="1"/>
        <pt x="832" y="896" on="1"/>
        <pt x="896" y="896" on="1"/>
        <pt x="896" y="832" on="1"/>
        <pt x="896" y="768" on="1"/>
        <pt x="768" y="768" on="1"/>
        <pt x="640" y="768" on="1"/>
        <pt x="640" y="704" on="1"/>
        <pt x="640" y="640" on="1"/>
        <pt x="512" y="640" on="1"/>
        <pt x="384" y="640" on="1"/>
        <pt x="384" y="576" on="1"/>
        <pt x="384" y="512" on="1"/>
        <pt x="512" y="512" on="1"/>
        <pt x="640" y="512" on="1"/>
        <pt x="640" y="448" on="1"/>
        <pt x="640" y="384" on="1"/>
        <pt x="768" y="384" on="1"/>
        <pt x="896" y="384" on="1"/>
        <pt x="896" y="320" on="1"/>
        <pt x="896" y="256" on="1"/>
        <pt x="832" y="256" on="1"/>
        <pt x="768" y="256" on="1"/>
        <pt x="768" y="192" on="1"/>
        <pt x="768" y="128" on="1"/>
        <pt x="576" y="128" on="1"/>
        <pt x="384" y="128" on="1"/>
        <pt x="384" y="192" on="1"/>
        <pt x="384" y="256" on="1"/>
        <pt x="320" y="256" on="1"/>
        <pt x="256" y="256" on="1"/>
        <pt x="256" y="320" on="1"/>
        <pt x="256" y="384" on="1"/>
        <pt x="128" y="384" on="1"/>
        <pt x="0" y="384" on="1"/>
        <pt x="0" y="448" on="1"/>
        <pt x="0" y="512" on="1"/>
        <pt x="64" y="512" on="1"/>
        <pt x="128" y="512" on="1"/>
        <pt x="128" y="576" on="1"/>
        <pt x="128" y="640" on="1"/>
        <pt x="64" y="640" on="1"/>
        <pt x="0" y="640" on="1"/>
        <pt x="0" y="704" on="1"/>
        <pt x="0" y="768" on="1"/>
        <pt x="128" y="768" on="1"/>
        <pt x="256" y="768" on="1"/>
        <pt x="256" y="832" on="1"/>
        <pt x="256" y="896" on="1"/>
        <pt x="320" y="896" on="1"/>
        <pt x="384" y="896" on="1"/>
      </contour>
      <contour>
        <pt x="640" y="832" on="1"/>
        <pt x="640" y="896" on="1"/>
        <pt x="576" y="896" on="1"/>
        <pt x="512" y="896" on="1"/>
        <pt x="512" y="832" on="1"/>
        <pt x="512" y="768" on="1"/>
        <pt x="576" y="768" on="1"/>
        <pt x="640" y="768" on="1"/>
      </contour>
      <contour>
        <pt x="640" y="320" on="1"/>
        <pt x="640" y="384" on="1"/>
        <pt x="576" y="384" on="1"/>
        <pt x="512" y="384" on="1"/>
        <pt x="512" y="320" on="1"/>
        <pt x="512" y="256" on="1"/>
        <pt x="576" y="256" on="1"/>
        <pt x="640" y="256" on="1"/>
      </contour>
    </TTGlyph>
    <TTGlyph name="F" xMin="0" yMin="128" xMax="896" yMax="1024">
      <contour>
        <pt x="0" y="576" on="1"/>
        <pt x="0" y="1024" on="1"/>
        <pt x="448" y="1024" on="1"/>
        <pt x="896" y="1024" on="1"/>
        <pt x="896" y="960" on="1"/>
        <pt x="896" y="896" on="1"/>
        <pt x="576" y="896" on="1"/>
        <pt x="256" y="896" on="1"/>
        <pt x="256" y="768" on="1"/>
        <pt x="256" y="640" on="1"/>
        <pt x="512" y="640" on="1"/>
        <pt x="768" y="640" on="1"/>
        <pt x="768" y="576" on="1"/>
        <pt x="768" y="512" on="1"/>
        <pt x="512" y="512" on="1"/>
        <pt x="256" y="512" on="1"/>
        <pt x="256" y="320" on="1"/>
        <pt x="256" y="128" on="1"/>
        <pt x="128" y="128" on="1"/>
        <pt x="0" y="128" on="1"/>
      </contour>
    </TTGlyph>
    <TTGlyph name="G" xMin="0" yMin="128" xMax="896" yMax="1024">
      <contour>
        <pt x="256" y="960" on="1"/>
        <pt x="256" y="1024" on="1"/>
        <pt x="576" y="1024" on="1"/>
        <pt x="896" y="1024" on="1"/>
        <pt x="896" y="960" on="1"/>
        <pt x="896" y="896" on="1"/>
        <pt x="640" y="896" on="1"/>
        <pt x="384" y="896" on="1"/>
        <pt x="384" y="832" on="1"/>
        <pt x="384" y="768" on="1"/>
        <pt x="320" y="768" on="1"/>
        <pt x="256" y="768" on="1"/>
        <pt x="256" y="576" on="1"/>
        <pt x="256" y="384" on="1"/>
        <pt x="320" y="384" on="1"/>
        <pt x="384" y="384" on="1"/>
        <pt x="384" y="320" on="1"/>
        <pt x="384" y="256" on="1"/>
        <pt x="512" y="256" on="1"/>
        <pt x="640" y="256" on="1"/>
        <pt x="640" y="384" on="1"/>
        <pt x="640" y="512" on="1"/>
        <pt x="576" y="512" on="1"/>
        <pt x="512" y="512" on="1"/>
        <pt x="512" y="576" on="1"/>
        <pt x="512" y="640" on="1"/>
        <pt x="704" y="640" on="1"/>
        <pt x="896" y="640" on="1"/>
        <pt x="896" y="384" on="1"/>
        <pt x="896" y="128" on="1"/>
        <pt x="576" y="128" on="1"/>
        <pt x="256" y="128" on="1"/>
        <pt x="256" y="192" on="1"/>
        <pt x="256" y="256" on="1"/>
        <pt x="192" y="256" on="1"/>
        <pt x="128" y="256" on="1"/>
        <pt x="128" y="320" on="1"/>
        <pt x="128" y="384" on="1"/>
        <pt x="64" y="384" on="1"/>
        <pt x="0" y="384" on="1"/>
        <pt x="0" y="576" on="1"/>
        <pt x="0" y="768" on="1"/>
        <pt x="64" y="768" on="1"/>
        <pt x="128" y="768" on="1"/>
        <pt x="128" y="832" on="1"/>
        <pt x="128" y="896" on="1"/>
        <pt x="192" y="896" on="1"/>
        <pt x="256" y="896" on="1"/>
      </contour>
    </TTGlyph>
    <TTGlyph name="Gamma" xMin="128" yMin="128" xMax="896" yMax="1024">
      <contour>
        <pt x="128" y="576" on="1"/>
        <pt x="128" y="1024" on="1"/>
        <pt x="512" y="1024" on="1"/>
        <pt x="896" y="1024" on="1"/>
        <pt x="896" y="960" on="1"/>
        <pt x="896" y="896" on="1"/>
        <pt x="640" y="896" on="1"/>
        <pt x="384" y="896" on="1"/>
        <pt x="384" y="512" on="1"/>
        <pt x="384" y="128" on="1"/>
        <pt x="256" y="128" on="1"/>
        <pt x="128" y="128" on="1"/>
      </contour>
    </TTGlyph>
    <TTGlyph name="Gbreve" xMin="0" yMin="128" xMax="896" yMax="1024">
      <contour>
        <pt x="128" y="960" on="1"/>
        <pt x="128" y="1024" on="1"/>
        <pt x="192" y="1024" on="1"/>
        <pt x="256" y="1024" on="1"/>
        <pt x="256" y="960" on="1"/>
        <pt x="256" y="896" on="1"/>
        <pt x="448" y="896" on="1"/>
        <pt x="640" y="896" on="1"/>
        <pt x="640" y="960" on="1"/>
        <pt x="640" y="1024" on="1"/>
        <pt x="704" y="1024" on="1"/>
        <pt x="768" y="1024" on="1"/>
        <pt x="768" y="960" on="1"/>
        <pt x="768" y="896" on="1"/>
        <pt x="704" y="896" on="1"/>
        <pt x="640" y="896" on="1"/>
        <pt x="640" y="832" on="1"/>
        <pt x="640" y="768" on="1"/>
        <pt x="768" y="768" on="1"/>
        <pt x="896" y="768" on="1"/>
        <pt x="896" y="704" on="1"/>
        <pt x="896" y="640" on="1"/>
        <pt x="576" y="640" on="1"/>
        <pt x="256" y="640" on="1"/>
        <pt x="256" y="448" on="1"/>
        <pt x="256" y="256" on="1"/>
        <pt x="448" y="256" on="1"/>
        <pt x="640" y="256" on="1"/>
        <pt x="640" y="320" on="1"/>
        <pt x="640" y="384" on="1"/>
        <pt x="576" y="384" on="1"/>
        <pt x="512" y="384" on="1"/>
        <pt x="512" y="448" on="1"/>
        <pt x="512" y="512" on="1"/>
        <pt x="704" y="512" on="1"/>
        <pt x="896" y="512" on="1"/>
        <pt x="896" y="320" on="1"/>
        <pt x="896" y="128" on="1"/>
        <pt x="512" y="128" on="1"/>
        <pt x="128" y="128" on="1"/>
        <pt x="128" y="192" on="1"/>
        <pt x="128" y="256" on="1"/>
        <pt x="64" y="256" on="1"/>
        <pt x="0" y="256" on="1"/>
        <pt x="0" y="448" on="1"/>
        <pt x="0" y="640" on="1"/>
        <pt x="64" y="640" on="1"/>
        <pt x="128" y="640" on="1"/>
        <pt x="128" y="704" on="1"/>
        <pt x="128" y="768" on="1"/>
        <pt x="192" y="768" on="1"/>
        <pt x="256" y="768" on="1"/>
        <pt x="256" y="832" on="1"/>
        <pt x="256" y="896" on="1"/>
        <pt x="192" y="896" on="1"/>
        <pt x="128" y="896" on="1"/>
      </contour>
    </TTGlyph>
    <TTGlyph name="Gcircumflex" xMin="0" yMin="128" xMax="896" yMax="1024">
      <contour>
        <pt x="256" y="960" on="1"/>
        <pt x="256" y="1024" on="1"/>
        <pt x="448" y="1024" on="1"/>
        <pt x="640" y="1024" on="1"/>
        <pt x="640" y="960" on="1"/>
        <pt x="640" y="896" on="1"/>
        <pt x="704" y="896" on="1"/>
        <pt x="768" y="896" on="1"/>
        <pt x="768" y="832" on="1"/>
        <pt x="768" y="768" on="1"/>
        <pt x="832" y="768" on="1"/>
        <pt x="896" y="768" on="1"/>
        <pt x="896" y="704" on="1"/>
        <pt x="896" y="640" on="1"/>
        <pt x="576" y="640" on="1"/>
        <pt x="256" y="640" on="1"/>
        <pt x="256" y="448" on="1"/>
        <pt x="256" y="256" on="1"/>
        <pt x="448" y="256" on="1"/>
        <pt x="640" y="256" on="1"/>
        <pt x="640" y="320" on="1"/>
        <pt x="640" y="384" on="1"/>
        <pt x="576" y="384" on="1"/>
        <pt x="512" y="384" on="1"/>
        <pt x="512" y="448" on="1"/>
        <pt x="512" y="512" on="1"/>
        <pt x="704" y="512" on="1"/>
        <pt x="896" y="512" on="1"/>
        <pt x="896" y="320" on="1"/>
        <pt x="896" y="128" on="1"/>
        <pt x="512" y="128" on="1"/>
        <pt x="128" y="128" on="1"/>
        <pt x="128" y="192" on="1"/>
        <pt x="128" y="256" on="1"/>
        <pt x="64" y="256" on="1"/>
        <pt x="0" y="256" on="1"/>
        <pt x="0" y="448" on="1"/>
        <pt x="0" y="640" on="1"/>
        <pt x="64" y="640" on="1"/>
        <pt x="128" y="640" on="1"/>
        <pt x="128" y="768" on="1"/>
        <pt x="128" y="896" on="1"/>
        <pt x="192" y="896" on="1"/>
        <pt x="256" y="896" on="1"/>
      </contour>
      <contour>
        <pt x="512" y="832" on="1"/>
        <pt x="512" y="896" on="1"/>
        <pt x="448" y="896" on="1"/>
        <pt x="384" y="896" on="1"/>
        <pt x="384" y="832" on="1"/>
        <pt x="384" y="768" on="1"/>
        <pt x="448" y="768" on="1"/>
        <pt x="512" y="768" on="1"/>
      </contour>
    </TTGlyph>
    <TTGlyph name="Gcommaaccent" xMin="0" yMin="0" xMax="896" yMax="1024">
      <contour>
        <pt x="256" y="960" on="1"/>
        <pt x="256" y="1024" on="1"/>
        <pt x="576" y="1024" on="1"/>
        <pt x="896" y="1024" on="1"/>
        <pt x="896" y="960" on="1"/>
        <pt x="896" y="896" on="1"/>
        <pt x="640" y="896" on="1"/>
        <pt x="384" y="896" on="1"/>
        <pt x="384" y="832" on="1"/>
        <pt x="384" y="768" on="1"/>
        <pt x="320" y="768" on="1"/>
        <pt x="256" y="768" on="1"/>
        <pt x="256" y="640" on="1"/>
        <pt x="256" y="512" on="1"/>
        <pt x="320" y="512" on="1"/>
        <pt x="384" y="512" on="1"/>
        <pt x="384" y="448" on="1"/>
        <pt x="384" y="384" on="1"/>
        <pt x="512" y="384" on="1"/>
        <pt x="640" y="384" on="1"/>
        <pt x="640" y="448" on="1"/>
        <pt x="640" y="512" on="1"/>
        <pt x="576" y="512" on="1"/>
        <pt x="512" y="512" on="1"/>
        <pt x="512" y="576" on="1"/>
        <pt x="512" y="640" on="1"/>
        <pt x="704" y="640" on="1"/>
        <pt x="896" y="640" on="1"/>
        <pt x="896" y="448" on="1"/>
        <pt x="896" y="256" on="1"/>
        <pt x="768" y="256" on="1"/>
        <pt x="640" y="256" on="1"/>
        <pt x="640" y="192" on="1"/>
        <pt x="640" y="128" on="1"/>
        <pt x="576" y="128" on="1"/>
        <pt x="512" y="128" on="1"/>
        <pt x="512" y="64" on="1"/>
        <pt x="512" y="0" on="1"/>
        <pt x="384" y="0" on="1"/>
        <pt x="256" y="0" on="1"/>
        <pt x="256" y="64" on="1"/>
        <pt x="256" y="128" on="1"/>
        <pt x="320" y="128" on="1"/>
        <pt x="384" y="128" on="1"/>
        <pt x="384" y="192" on="1"/>
        <pt x="384" y="256" on="1"/>
        <pt x="320" y="256" on="1"/>
        <pt x="256" y="256" on="1"/>
        <pt x="256" y="320" on="1"/>
        <pt x="256" y="384" on="1"/>
        <pt x="192" y="384" on="1"/>
        <pt x="128" y="384" on="1"/>
        <pt x="128" y="448" on="1"/>
        <pt x="128" y="512" on="1"/>
        <pt x="64" y="512" on="1"/>
        <pt x="0" y="512" on="1"/>
        <pt x="0" y="640" on="1"/>
        <pt x="0" y="768" on="1"/>
        <pt x="64" y="768" on="1"/>
        <pt x="128" y="768" on="1"/>
        <pt x="128" y="832" on="1"/>
        <pt x="128" y="896" on="1"/>
        <pt x="192" y="896" on="1"/>
        <pt x="256" y="896" on="1"/>
      </contour>
    </TTGlyph>
    <TTGlyph name="Gdotaccent" xMin="0" yMin="128" xMax="896" yMax="1024">
      <contour>
        <pt x="128" y="704" on="1"/>
        <pt x="128" y="768" on="1"/>
        <pt x="512" y="768" on="1"/>
        <pt x="896" y="768" on="1"/>
        <pt x="896" y="704" on="1"/>
        <pt x="896" y="640" on="1"/>
        <pt x="576" y="640" on="1"/>
        <pt x="256" y="640" on="1"/>
        <pt x="256" y="448" on="1"/>
        <pt x="256" y="256" on="1"/>
        <pt x="448" y="256" on="1"/>
        <pt x="640" y="256" on="1"/>
        <pt x="640" y="320" on="1"/>
        <pt x="640" y="384" on="1"/>
        <pt x="576" y="384" on="1"/>
        <pt x="512" y="384" on="1"/>
        <pt x="512" y="448" on="1"/>
        <pt x="512" y="512" on="1"/>
        <pt x="704" y="512" on="1"/>
        <pt x="896" y="512" on="1"/>
        <pt x="896" y="320" on="1"/>
        <pt x="896" y="128" on="1"/>
        <pt x="512" y="128" on="1"/>
        <pt x="128" y="128" on="1"/>
        <pt x="128" y="192" on="1"/>
        <pt x="128" y="256" on="1"/>
        <pt x="64" y="256" on="1"/>
        <pt x="0" y="256" on="1"/>
        <pt x="0" y="448" on="1"/>
        <pt x="0" y="640" on="1"/>
        <pt x="64" y="640" on="1"/>
        <pt x="128" y="640" on="1"/>
      </contour>
      <contour>
        <pt x="384" y="960" on="1"/>
        <pt x="384" y="1024" on="1"/>
        <pt x="512" y="1024" on="1"/>
        <pt x="640" y="1024" on="1"/>
        <pt x="640" y="960" on="1"/>
        <pt x="640" y="896" on="1"/>
        <pt x="512" y="896" on="1"/>
        <pt x="384" y="896" on="1"/>
      </contour>
    </TTGlyph>
    <TTGlyph name="H" xMin="0" yMin="128" xMax="896" yMax="1024">
      <contour>
        <pt x="0" y="576" on="1"/>
        <pt x="0" y="1024" on="1"/>
        <pt x="128" y="1024" on="1"/>
        <pt x="256" y="1024" on="1"/>
        <pt x="256" y="832" on="1"/>
        <pt x="256" y="640" on="1"/>
        <pt x="448" y="640" on="1"/>
        <pt x="640" y="640" on="1"/>
        <pt x="640" y="832" on="1"/>
        <pt x="640" y="1024" on="1"/>
        <pt x="768" y="1024" on="1"/>
        <pt x="896" y="1024" on="1"/>
        <pt x="896" y="576" on="1"/>
        <pt x="896" y="128" on="1"/>
        <pt x="768" y="128" on="1"/>
        <pt x="640" y="128" on="1"/>
        <pt x="640" y="320" on="1"/>
        <pt x="640" y="512" on="1"/>
        <pt x="448" y="512" on="1"/>
        <pt x="256" y="512" on="1"/>
        <pt x="256" y="320" on="1"/>
        <pt x="256" y="128" on="1"/>
        <pt x="128" y="128" on="1"/>
        <pt x="0" y="128" on="1"/>
      </contour>
    </TTGlyph>
    <TTGlyph name="Hbar" xMin="0" yMin="128" xMax="896" yMax="1024">
      <contour>
        <pt x="0" y="576" on="1"/>
        <pt x="0" y="1024" on="1"/>
        <pt x="128" y="1024" on="1"/>
        <pt x="256" y="1024" on="1"/>
        <pt x="256" y="960" on="1"/>
        <pt x="256" y="896" on="1"/>
        <pt x="448" y="896" on="1"/>
        <pt x="640" y="896" on="1"/>
        <pt x="640" y="960" on="1"/>
        <pt x="640" y="1024" on="1"/>
        <pt x="768" y="1024" on="1"/>
        <pt x="896" y="1024" on="1"/>
        <pt x="896" y="576" on="1"/>
        <pt x="896" y="128" on="1"/>
        <pt x="768" y="128" on="1"/>
        <pt x="640" y="128" on="1"/>
        <pt x="640" y="320" on="1"/>
        <pt x="640" y="512" on="1"/>
        <pt x="448" y="512" on="1"/>
        <pt x="256" y="512" on="1"/>
        <pt x="256" y="320" on="1"/>
        <pt x="256" y="128" on="1"/>
        <pt x="128" y="128" on="1"/>
        <pt x="0" y="128" on="1"/>
      </contour>
      <contour>
        <pt x="640" y="704" on="1"/>
        <pt x="640" y="768" on="1"/>
        <pt x="448" y="768" on="1"/>
        <pt x="256" y="768" on="1"/>
        <pt x="256" y="704" on="1"/>
        <pt x="256" y="640" on="1"/>
        <pt x="448" y="640" on="1"/>
        <pt x="640" y="640" on="1"/>
      </contour>
    </TTGlyph>
    <TTGlyph name="Hcircumflex" xMin="0" yMin="128" xMax="896" yMax="1024">
      <contour>
        <pt x="256" y="960" on="1"/>
        <pt x="256" y="1024" on="1"/>
        <pt x="448" y="1024" on="1"/>
        <pt x="640" y="1024" on="1"/>
        <pt x="640" y="960" on="1"/>
        <pt x="640" y="896" on="1"/>
        <pt x="768" y="896" on="1"/>
        <pt x="896" y="896" on="1"/>
        <pt x="896" y="512" on="1"/>
        <pt x="896" y="128" on="1"/>
        <pt x="768" y="128" on="1"/>
        <pt x="640" y="128" on="1"/>
        <pt x="640" y="256" on="1"/>
        <pt x="640" y="384" on="1"/>
        <pt x="448" y="384" on="1"/>
        <pt x="256" y="384" on="1"/>
        <pt x="256" y="256" on="1"/>
        <pt x="256" y="128" on="1"/>
        <pt x="128" y="128" on="1"/>
        <pt x="0" y="128" on="1"/>
        <pt x="0" y="512" on="1"/>
        <pt x="0" y="896" on="1"/>
        <pt x="128" y="896" on="1"/>
        <pt x="256" y="896" on="1"/>
      </contour>
      <contour>
        <pt x="512" y="832" on="1"/>
        <pt x="512" y="896" on="1"/>
        <pt x="448" y="896" on="1"/>
        <pt x="384" y="896" on="1"/>
        <pt x="384" y="832" on="1"/>
        <pt x="384" y="768" on="1"/>
        <pt x="320" y="768" on="1"/>
        <pt x="256" y="768" on="1"/>
        <pt x="256" y="640" on="1"/>
        <pt x="256" y="512" on="1"/>
        <pt x="448" y="512" on="1"/>
        <pt x="640" y="512" on="1"/>
        <pt x="640" y="640" on="1"/>
        <pt x="640" y="768" on="1"/>
        <pt x="576" y="768" on="1"/>
        <pt x="512" y="768" on="1"/>
      </contour>
    </TTGlyph>
    <TTGlyph name="I" xMin="128" yMin="128" xMax="896" yMax="1024">
      <contour>
        <pt x="128" y="960" on="1"/>
        <pt x="128" y="1024" on="1"/>
        <pt x="512" y="1024" on="1"/>
        <pt x="896" y="1024" on="1"/>
        <pt x="896" y="960" on="1"/>
        <pt x="896" y="896" on="1"/>
        <pt x="768" y="896" on="1"/>
        <pt x="640" y="896" on="1"/>
        <pt x="640" y="576" on="1"/>
        <pt x="640" y="256" on="1"/>
        <pt x="768" y="256" on="1"/>
        <pt x="896" y="256" on="1"/>
        <pt x="896" y="192" on="1"/>
        <pt x="896" y="128" on="1"/>
        <pt x="512" y="128" on="1"/>
        <pt x="128" y="128" on="1"/>
        <pt x="128" y="192" on="1"/>
        <pt x="128" y="256" on="1"/>
        <pt x="256" y="256" on="1"/>
        <pt x="384" y="256" on="1"/>
        <pt x="384" y="576" on="1"/>
        <pt x="384" y="896" on="1"/>
        <pt x="256" y="896" on="1"/>
        <pt x="128" y="896" on="1"/>
      </contour>
    </TTGlyph>
    <TTGlyph name="IJ" xMin="0" yMin="128" xMax="896" yMax="1024">
      <contour>
        <pt x="640" y="640" on="1"/>
        <pt x="640" y="1024" on="1"/>
        <pt x="768" y="1024" on="1"/>
        <pt x="896" y="1024" on="1"/>
        <pt x="896" y="640" on="1"/>
        <pt x="896" y="256" on="1"/>
        <pt x="832" y="256" on="1"/>
        <pt x="768" y="256" on="1"/>
        <pt x="768" y="192" on="1"/>
        <pt x="768" y="128" on="1"/>
        <pt x="448" y="128" on="1"/>
        <pt x="128" y="128" on="1"/>
        <pt x="128" y="192" on="1"/>
        <pt x="128" y="256" on="1"/>
        <pt x="384" y="256" on="1"/>
        <pt x="640" y="256" on="1"/>
      </contour>
      <contour>
        <pt x="0" y="960" on="1"/>
        <pt x="0" y="1024" on="1"/>
        <pt x="256" y="1024" on="1"/>
        <pt x="512" y="1024" on="1"/>
        <pt x="512" y="960" on="1"/>
        <pt x="512" y="896" on="1"/>
        <pt x="448" y="896" on="1"/>
        <pt x="384" y="896" on="1"/>
        <pt x="384" y="704" on="1"/>
        <pt x="384" y="512" on="1"/>
        <pt x="448" y="512" on="1"/>
        <pt x="512" y="512" on="1"/>
        <pt x="512" y="448" on="1"/>
        <pt x="512" y="384" on="1"/>
        <pt x="256" y="384" on="1"/>
        <pt x="0" y="384" on="1"/>
        <pt x="0" y="448" on="1"/>
        <pt x="0" y="512" on="1"/>
        <pt x="64" y="512" on="1"/>
        <pt x="128" y="512" on="1"/>
        <pt x="128" y="704" on="1"/>
        <pt x="128" y="896" on="1"/>
        <pt x="64" y="896" on="1"/>
        <pt x="0" y="896" on="1"/>
      </contour>
    </TTGlyph>
    <TTGlyph name="Iacute" xMin="128" yMin="128" xMax="896" yMax="1024">
      <contour>
        <pt x="512" y="960" on="1"/>
        <pt x="512" y="1024" on="1"/>
        <pt x="576" y="1024" on="1"/>
        <pt x="640" y="1024" on="1"/>
        <pt x="640" y="960" on="1"/>
        <pt x="640" y="896" on="1"/>
        <pt x="576" y="896" on="1"/>
        <pt x="512" y="896" on="1"/>
        <pt x="512" y="832" on="1"/>
        <pt x="512" y="768" on="1"/>
        <pt x="704" y="768" on="1"/>
        <pt x="896" y="768" on="1"/>
        <pt x="896" y="704" on="1"/>
        <pt x="896" y="640" on="1"/>
        <pt x="768" y="640" on="1"/>
        <pt x="640" y="640" on="1"/>
        <pt x="640" y="448" on="1"/>
        <pt x="640" y="256" on="1"/>
        <pt x="768" y="256" on="1"/>
        <pt x="896" y="256" on="1"/>
        <pt x="896" y="192" on="1"/>
        <pt x="896" y="128" on="1"/>
        <pt x="512" y="128" on="1"/>
        <pt x="128" y="128" on="1"/>
        <pt x="128" y="192" on="1"/>
        <pt x="128" y="256" on="1"/>
        <pt x="256" y="256" on="1"/>
        <pt x="384" y="256" on="1"/>
        <pt x="384" y="448" on="1"/>
        <pt x="384" y="640" on="1"/>
        <pt x="256" y="640" on="1"/>
        <pt x="128" y="640" on="1"/>
        <pt x="128" y="704" on="1"/>
        <pt x="128" y="768" on="1"/>
        <pt x="256" y="768" on="1"/>
        <pt x="384" y="768" on="1"/>
        <pt x="384" y="832" on="1"/>
        <pt x="384" y="896" on="1"/>
        <pt x="448" y="896" on="1"/>
        <pt x="512" y="896" on="1"/>
      </contour>
    </TTGlyph>
    <TTGlyph name="Ibreve" xMin="128" yMin="128" xMax="896" yMax="1024">
      <contour>
        <pt x="256" y="960" on="1"/>
        <pt x="256" y="1024" on="1"/>
        <pt x="320" y="1024" on="1"/>
        <pt x="384" y="1024" on="1"/>
        <pt x="384" y="960" on="1"/>
        <pt x="384" y="896" on="1"/>
        <pt x="512" y="896" on="1"/>
        <pt x="640" y="896" on="1"/>
        <pt x="640" y="960" on="1"/>
        <pt x="640" y="1024" on="1"/>
        <pt x="704" y="1024" on="1"/>
        <pt x="768" y="1024" on="1"/>
        <pt x="768" y="960" on="1"/>
        <pt x="768" y="896" on="1"/>
        <pt x="704" y="896" on="1"/>
        <pt x="640" y="896" on="1"/>
        <pt x="640" y="832" on="1"/>
        <pt x="640" y="768" on="1"/>
        <pt x="768" y="768" on="1"/>
        <pt x="896" y="768" on="1"/>
        <pt x="896" y="704" on="1"/>
        <pt x="896" y="640" on="1"/>
        <pt x="768" y="640" on="1"/>
        <pt x="640" y="640" on="1"/>
        <pt x="640" y="448" on="1"/>
        <pt x="640" y="256" on="1"/>
        <pt x="768" y="256" on="1"/>
        <pt x="896" y="256" on="1"/>
        <pt x="896" y="192" on="1"/>
        <pt x="896" y="128" on="1"/>
        <pt x="512" y="128" on="1"/>
        <pt x="128" y="128" on="1"/>
        <pt x="128" y="192" on="1"/>
        <pt x="128" y="256" on="1"/>
        <pt x="256" y="256" on="1"/>
        <pt x="384" y="256" on="1"/>
        <pt x="384" y="448" on="1"/>
        <pt x="384" y="640" on="1"/>
        <pt x="256" y="640" on="1"/>
        <pt x="128" y="640" on="1"/>
        <pt x="128" y="704" on="1"/>
        <pt x="128" y="768" on="1"/>
        <pt x="256" y="768" on="1"/>
        <pt x="384" y="768" on="1"/>
        <pt x="384" y="832" on="1"/>
        <pt x="384" y="896" on="1"/>
        <pt x="320" y="896" on="1"/>
        <pt x="256" y="896" on="1"/>
      </contour>
    </TTGlyph>
    <TTGlyph name="Icircumflex" xMin="128" yMin="128" xMax="896" yMax="1024">
      <contour>
        <pt x="384" y="960" on="1"/>
        <pt x="384" y="1024" on="1"/>
        <pt x="512" y="1024" on="1"/>
        <pt x="640" y="1024" on="1"/>
        <pt x="640" y="960" on="1"/>
        <pt x="640" y="896" on="1"/>
        <pt x="704" y="896" on="1"/>
        <pt x="768" y="896" on="1"/>
        <pt x="768" y="832" on="1"/>
        <pt x="768" y="768" on="1"/>
        <pt x="832" y="768" on="1"/>
        <pt x="896" y="768" on="1"/>
        <pt x="896" y="704" on="1"/>
        <pt x="896" y="640" on="1"/>
        <pt x="768" y="640" on="1"/>
        <pt x="640" y="640" on="1"/>
        <pt x="640" y="448" on="1"/>
        <pt x="640" y="256" on="1"/>
        <pt x="768" y="256" on="1"/>
        <pt x="896" y="256" on="1"/>
        <pt x="896" y="192" on="1"/>
        <pt x="896" y="128" on="1"/>
        <pt x="512" y="128" on="1"/>
        <pt x="128" y="128" on="1"/>
        <pt x="128" y="192" on="1"/>
        <pt x="128" y="256" on="1"/>
        <pt x="256" y="256" on="1"/>
        <pt x="384" y="256" on="1"/>
        <pt x="384" y="448" on="1"/>
        <pt x="384" y="640" on="1"/>
        <pt x="256" y="640" on="1"/>
        <pt x="128" y="640" on="1"/>
        <pt x="128" y="704" on="1"/>
        <pt x="128" y="768" on="1"/>
        <pt x="192" y="768" on="1"/>
        <pt x="256" y="768" on="1"/>
        <pt x="256" y="832" on="1"/>
        <pt x="256" y="896" on="1"/>
        <pt x="320" y="896" on="1"/>
        <pt x="384" y="896" on="1"/>
      </contour>
    </TTGlyph>
    <TTGlyph name="Idieresis" xMin="128" yMin="128" xMax="896" yMax="1024">
      <contour>
        <pt x="128" y="704" on="1"/>
        <pt x="128" y="768" on="1"/>
        <pt x="512" y="768" on="1"/>
        <pt x="896" y="768" on="1"/>
        <pt x="896" y="704" on="1"/>
        <pt x="896" y="640" on="1"/>
        <pt x="768" y="640" on="1"/>
        <pt x="640" y="640" on="1"/>
        <pt x="640" y="448" on="1"/>
        <pt x="640" y="256" on="1"/>
        <pt x="768" y="256" on="1"/>
        <pt x="896" y="256" on="1"/>
        <pt x="896" y="192" on="1"/>
        <pt x="896" y="128" on="1"/>
        <pt x="512" y="128" on="1"/>
        <pt x="128" y="128" on="1"/>
        <pt x="128" y="192" on="1"/>
        <pt x="128" y="256" on="1"/>
        <pt x="256" y="256" on="1"/>
        <pt x="384" y="256" on="1"/>
        <pt x="384" y="448" on="1"/>
        <pt x="384" y="640" on="1"/>
        <pt x="256" y="640" on="1"/>
        <pt x="128" y="640" on="1"/>
      </contour>
      <contour>
        <pt x="640" y="960" on="1"/>
        <pt x="640" y="1024" on="1"/>
        <pt x="768" y="1024" on="1"/>
        <pt x="896" y="1024" on="1"/>
        <pt x="896" y="960" on="1"/>
        <pt x="896" y="896" on="1"/>
        <pt x="768" y="896" on="1"/>
        <pt x="640" y="896" on="1"/>
      </contour>
      <contour>
        <pt x="128" y="960" on="1"/>
        <pt x="128" y="1024" on="1"/>
        <pt x="256" y="1024" on="1"/>
        <pt x="384" y="1024" on="1"/>
        <pt x="384" y="960" on="1"/>
        <pt x="384" y="896" on="1"/>
        <pt x="256" y="896" on="1"/>
        <pt x="128" y="896" on="1"/>
      </contour>
    </TTGlyph>
    <TTGlyph name="Idotaccent" xMin="128" yMin="128" xMax="896" yMax="1024">
      <contour>
        <pt x="128" y="704" on="1"/>
        <pt x="128" y="768" on="1"/>
        <pt x="512" y="768" on="1"/>
        <pt x="896" y="768" on="1"/>
        <pt x="896" y="704" on="1"/>
        <pt x="896" y="640" on="1"/>
        <pt x="768" y="640" on="1"/>
        <pt x="640" y="640" on="1"/>
        <pt x="640" y="448" on="1"/>
        <pt x="640" y="256" on="1"/>
        <pt x="768" y="256" on="1"/>
        <pt x="896" y="256" on="1"/>
        <pt x="896" y="192" on="1"/>
        <pt x="896" y="128" on="1"/>
        <pt x="512" y="128" on="1"/>
        <pt x="128" y="128" on="1"/>
        <pt x="128" y="192" on="1"/>
        <pt x="128" y="256" on="1"/>
        <pt x="256" y="256" on="1"/>
        <pt x="384" y="256" on="1"/>
        <pt x="384" y="448" on="1"/>
        <pt x="384" y="640" on="1"/>
        <pt x="256" y="640" on="1"/>
        <pt x="128" y="640" on="1"/>
      </contour>
      <contour>
        <pt x="384" y="960" on="1"/>
        <pt x="384" y="1024" on="1"/>
        <pt x="512" y="1024" on="1"/>
        <pt x="640" y="1024" on="1"/>
        <pt x="640" y="960" on="1"/>
        <pt x="640" y="896" on="1"/>
        <pt x="512" y="896" on="1"/>
        <pt x="384" y="896" on="1"/>
      </contour>
    </TTGlyph>
    <TTGlyph name="Igrave" xMin="128" yMin="128" xMax="896" yMax="1024">
      <contour>
        <pt x="384" y="960" on="1"/>
        <pt x="384" y="1024" on="1"/>
        <pt x="448" y="1024" on="1"/>
        <pt x="512" y="1024" on="1"/>
        <pt x="512" y="960" on="1"/>
        <pt x="512" y="896" on="1"/>
        <pt x="576" y="896" on="1"/>
        <pt x="640" y="896" on="1"/>
        <pt x="640" y="832" on="1"/>
        <pt x="640" y="768" on="1"/>
        <pt x="768" y="768" on="1"/>
        <pt x="896" y="768" on="1"/>
        <pt x="896" y="704" on="1"/>
        <pt x="896" y="640" on="1"/>
        <pt x="768" y="640" on="1"/>
        <pt x="640" y="640" on="1"/>
        <pt x="640" y="448" on="1"/>
        <pt x="640" y="256" on="1"/>
        <pt x="768" y="256" on="1"/>
        <pt x="896" y="256" on="1"/>
        <pt x="896" y="192" on="1"/>
        <pt x="896" y="128" on="1"/>
        <pt x="512" y="128" on="1"/>
        <pt x="128" y="128" on="1"/>
        <pt x="128" y="192" on="1"/>
        <pt x="128" y="256" on="1"/>
        <pt x="256" y="256" on="1"/>
        <pt x="384" y="256" on="1"/>
        <pt x="384" y="448" on="1"/>
        <pt x="384" y="640" on="1"/>
        <pt x="256" y="640" on="1"/>
        <pt x="128" y="640" on="1"/>
        <pt x="128" y="704" on="1"/>
        <pt x="128" y="768" on="1"/>
        <pt x="320" y="768" on="1"/>
        <pt x="512" y="768" on="1"/>
        <pt x="512" y="832" on="1"/>
        <pt x="512" y="896" on="1"/>
        <pt x="448" y="896" on="1"/>
        <pt x="384" y="896" on="1"/>
      </contour>
    </TTGlyph>
    <TTGlyph name="Imacron" xMin="128" yMin="128" xMax="896" yMax="1024">
      <contour>
        <pt x="128" y="704" on="1"/>
        <pt x="128" y="768" on="1"/>
        <pt x="512" y="768" on="1"/>
        <pt x="896" y="768" on="1"/>
        <pt x="896" y="704" on="1"/>
        <pt x="896" y="640" on="1"/>
        <pt x="768" y="640" on="1"/>
        <pt x="640" y="640" on="1"/>
        <pt x="640" y="448" on="1"/>
        <pt x="640" y="256" on="1"/>
        <pt x="768" y="256" on="1"/>
        <pt x="896" y="256" on="1"/>
        <pt x="896" y="192" on="1"/>
        <pt x="896" y="128" on="1"/>
        <pt x="512" y="128" on="1"/>
        <pt x="128" y="128" on="1"/>
        <pt x="128" y="192" on="1"/>
        <pt x="128" y="256" on="1"/>
        <pt x="256" y="256" on="1"/>
        <pt x="384" y="256" on="1"/>
        <pt x="384" y="448" on="1"/>
        <pt x="384" y="640" on="1"/>
        <pt x="256" y="640" on="1"/>
        <pt x="128" y="640" on="1"/>
      </contour>
      <contour>
        <pt x="128" y="960" on="1"/>
        <pt x="128" y="1024" on="1"/>
        <pt x="512" y="1024" on="1"/>
        <pt x="896" y="1024" on="1"/>
        <pt x="896" y="960" on="1"/>
        <pt x="896" y="896" on="1"/>
        <pt x="512" y="896" on="1"/>
        <pt x="128" y="896" on="1"/>
      </contour>
    </TTGlyph>
    <TTGlyph name="Iogonek" xMin="128" yMin="0" xMax="896" yMax="1024">
      <contour>
        <pt x="128" y="960" on="1"/>
        <pt x="128" y="1024" on="1"/>
        <pt x="512" y="1024" on="1"/>
        <pt x="896" y="1024" on="1"/>
        <pt x="896" y="960" on="1"/>
        <pt x="896" y="896" on="1"/>
        <pt x="768" y="896" on="1"/>
        <pt x="640" y="896" on="1"/>
        <pt x="640" y="704" on="1"/>
        <pt x="640" y="512" on="1"/>
        <pt x="768" y="512" on="1"/>
        <pt x="896" y="512" on="1"/>
        <pt x="896" y="448" on="1"/>
        <pt x="896" y="384" on="1"/>
        <pt x="704" y="384" on="1"/>
        <pt x="512" y="384" on="1"/>
        <pt x="512" y="320" on="1"/>
        <pt x="512" y="256" on="1"/>
        <pt x="448" y="256" on="1"/>
        <pt x="384" y="256" on="1"/>
        <pt x="384" y="192" on="1"/>
        <pt x="384" y="128" on="1"/>
        <pt x="512" y="128" on="1"/>
        <pt x="640" y="128" on="1"/>
        <pt x="640" y="64" on="1"/>
        <pt x="640" y="0" on="1"/>
        <pt x="512" y="0" on="1"/>
        <pt x="384" y="0" on="1"/>
        <pt x="384" y="64" on="1"/>
        <pt x="384" y="128" on="1"/>
        <pt x="320" y="128" on="1"/>
        <pt x="256" y="128" on="1"/>
        <pt x="256" y="192" on="1"/>
        <pt x="256" y="256" on="1"/>
        <pt x="320" y="256" on="1"/>
        <pt x="384" y="256" on="1"/>
        <pt x="384" y="320" on="1"/>
        <pt x="384" y="384" on="1"/>
        <pt x="256" y="384" on="1"/>
        <pt x="128" y="384" on="1"/>
        <pt x="128" y="448" on="1"/>
        <pt x="128" y="512" on="1"/>
        <pt x="256" y="512" on="1"/>
        <pt x="384" y="512" on="1"/>
        <pt x="384" y="704" on="1"/>
        <pt x="384" y="896" on="1"/>
        <pt x="256" y="896" on="1"/>
        <pt x="128" y="896" on="1"/>
      </contour>
    </TTGlyph>
    <TTGlyph name="Iota" xMin="128" yMin="128" xMax="896" yMax="1024">
      <contour>
        <pt x="128" y="960" on="1"/>
        <pt x="128" y="1024" on="1"/>
        <pt x="512" y="1024" on="1"/>
        <pt x="896" y="1024" on="1"/>
        <pt x="896" y="960" on="1"/>
        <pt x="896" y="896" on="1"/>
        <pt x="768" y="896" on="1"/>
        <pt x="640" y="896" on="1"/>
        <pt x="640" y="576" on="1"/>
        <pt x="640" y="256" on="1"/>
        <pt x="768" y="256" on="1"/>
        <pt x="896" y="256" on="1"/>
        <pt x="896" y="192" on="1"/>
        <pt x="896" y="128" on="1"/>
        <pt x="512" y="128" on="1"/>
        <pt x="128" y="128" on="1"/>
        <pt x="128" y="192" on="1"/>
        <pt x="128" y="256" on="1"/>
        <pt x="256" y="256" on="1"/>
        <pt x="384" y="256" on="1"/>
        <pt x="384" y="576" on="1"/>
        <pt x="384" y="896" on="1"/>
        <pt x="256" y="896" on="1"/>
        <pt x="128" y="896" on="1"/>
      </contour>
    </TTGlyph>
    <TTGlyph name="Iotadieresis" xMin="128" yMin="128" xMax="896" yMax="1024">
      <contour>
        <pt x="128" y="704" on="1"/>
        <pt x="128" y="768" on="1"/>
        <pt x="512" y="768" on="1"/>
        <pt x="896" y="768" on="1"/>
        <pt x="896" y="704" on="1"/>
        <pt x="896" y="640" on="1"/>
        <pt x="768" y="640" on="1"/>
        <pt x="640" y="640" on="1"/>
        <pt x="640" y="448" on="1"/>
        <pt x="640" y="256" on="1"/>
        <pt x="768" y="256" on="1"/>
        <pt x="896" y="256" on="1"/>
        <pt x="896" y="192" on="1"/>
        <pt x="896" y="128" on="1"/>
        <pt x="512" y="128" on="1"/>
        <pt x="128" y="128" on="1"/>
        <pt x="128" y="192" on="1"/>
        <pt x="128" y="256" on="1"/>
        <pt x="256" y="256" on="1"/>
        <pt x="384" y="256" on="1"/>
        <pt x="384" y="448" on="1"/>
        <pt x="384" y="640" on="1"/>
        <pt x="256" y="640" on="1"/>
        <pt x="128" y="640" on="1"/>
      </contour>
      <contour>
        <pt x="640" y="960" on="1"/>
        <pt x="640" y="1024" on="1"/>
        <pt x="768" y="1024" on="1"/>
        <pt x="896" y="1024" on="1"/>
        <pt x="896" y="960" on="1"/>
        <pt x="896" y="896" on="1"/>
        <pt x="768" y="896" on="1"/>
        <pt x="640" y="896" on="1"/>
      </contour>
      <contour>
        <pt x="128" y="960" on="1"/>
        <pt x="128" y="1024" on="1"/>
        <pt x="256" y="1024" on="1"/>
        <pt x="384" y="1024" on="1"/>
        <pt x="384" y="960" on="1"/>
        <pt x="384" y="896" on="1"/>
        <pt x="256" y="896" on="1"/>
        <pt x="128" y="896" on="1"/>
      </contour>
    </TTGlyph>
    <TTGlyph name="Iotatonos" xMin="0" yMin="128" xMax="896" yMax="1024">
      <contour>
        <pt x="384" y="960" on="1"/>
        <pt x="384" y="1024" on="1"/>
        <pt x="640" y="1024" on="1"/>
        <pt x="896" y="1024" on="1"/>
        <pt x="896" y="960" on="1"/>
        <pt x="896" y="896" on="1"/>
        <pt x="832" y="896" on="1"/>
        <pt x="768" y="896" on="1"/>
        <pt x="768" y="576" on="1"/>
        <pt x="768" y="256" on="1"/>
        <pt x="832" y="256" on="1"/>
        <pt x="896" y="256" on="1"/>
        <pt x="896" y="192" on="1"/>
        <pt x="896" y="128" on="1"/>
        <pt x="640" y="128" on="1"/>
        <pt x="384" y="128" on="1"/>
        <pt x="384" y="192" on="1"/>
        <pt x="384" y="256" on="1"/>
        <pt x="448" y="256" on="1"/>
        <pt x="512" y="256" on="1"/>
        <pt x="512" y="576" on="1"/>
        <pt x="512" y="896" on="1"/>
        <pt x="448" y="896" on="1"/>
        <pt x="384" y="896" on="1"/>
      </contour>
      <contour>
        <pt x="128" y="960" on="1"/>
        <pt x="128" y="1024" on="1"/>
        <pt x="192" y="1024" on="1"/>
        <pt x="256" y="1024" on="1"/>
        <pt x="256" y="960" on="1"/>
        <pt x="256" y="896" on="1"/>
        <pt x="192" y="896" on="1"/>
        <pt x="128" y="896" on="1"/>
        <pt x="128" y="832" on="1"/>
        <pt x="128" y="768" on="1"/>
        <pt x="64" y="768" on="1"/>
        <pt x="0" y="768" on="1"/>
        <pt x="0" y="832" on="1"/>
        <pt x="0" y="896" on="1"/>
        <pt x="64" y="896" on="1"/>
        <pt x="128" y="896" on="1"/>
      </contour>
    </TTGlyph>
    <TTGlyph name="Itilde" xMin="128" yMin="128" xMax="896" yMax="1024">
      <contour>
        <pt x="256" y="960" on="1"/>
        <pt x="256" y="1024" on="1"/>
        <pt x="384" y="1024" on="1"/>
        <pt x="512" y="1024" on="1"/>
        <pt x="512" y="960" on="1"/>
        <pt x="512" y="896" on="1"/>
        <pt x="640" y="896" on="1"/>
        <pt x="768" y="896" on="1"/>
        <pt x="768" y="960" on="1"/>
        <pt x="768" y="1024" on="1"/>
        <pt x="832" y="1024" on="1"/>
        <pt x="896" y="1024" on="1"/>
        <pt x="896" y="960" on="1"/>
        <pt x="896" y="896" on="1"/>
        <pt x="832" y="896" on="1"/>
        <pt x="768" y="896" on="1"/>
        <pt x="768" y="832" on="1"/>
        <pt x="768" y="768" on="1"/>
        <pt x="832" y="768" on="1"/>
        <pt x="896" y="768" on="1"/>
        <pt x="896" y="704" on="1"/>
        <pt x="896" y="640" on="1"/>
        <pt x="768" y="640" on="1"/>
        <pt x="640" y="640" on="1"/>
        <pt x="640" y="448" on="1"/>
        <pt x="640" y="256" on="1"/>
        <pt x="768" y="256" on="1"/>
        <pt x="896" y="256" on="1"/>
        <pt x="896" y="192" on="1"/>
        <pt x="896" y="128" on="1"/>
        <pt x="512" y="128" on="1"/>
        <pt x="128" y="128" on="1"/>
        <pt x="128" y="192" on="1"/>
        <pt x="128" y="256" on="1"/>
        <pt x="256" y="256" on="1"/>
        <pt x="384" y="256" on="1"/>
        <pt x="384" y="448" on="1"/>
        <pt x="384" y="640" on="1"/>
        <pt x="256" y="640" on="1"/>
        <pt x="128" y="640" on="1"/>
        <pt x="128" y="768" on="1"/>
        <pt x="128" y="896" on="1"/>
        <pt x="192" y="896" on="1"/>
        <pt x="256" y="896" on="1"/>
      </contour>
      <contour>
        <pt x="512" y="832" on="1"/>
        <pt x="512" y="896" on="1"/>
        <pt x="384" y="896" on="1"/>
        <pt x="256" y="896" on="1"/>
        <pt x="256" y="832" on="1"/>
        <pt x="256" y="768" on="1"/>
        <pt x="384" y="768" on="1"/>
        <pt x="512" y="768" on="1"/>
      </contour>
    </TTGlyph>
    <TTGlyph name="J" xMin="0" yMin="128" xMax="896" yMax="1024">
      <contour>
        <pt x="640" y="640" on="1"/>
        <pt x="640" y="1024" on="1"/>
        <pt x="768" y="1024" on="1"/>
        <pt x="896" y="1024" on="1"/>
        <pt x="896" y="640" on="1"/>
        <pt x="896" y="256" on="1"/>
        <pt x="832" y="256" on="1"/>
        <pt x="768" y="256" on="1"/>
        <pt x="768" y="192" on="1"/>
        <pt x="768" y="128" on="1"/>
        <pt x="448" y="128" on="1"/>
        <pt x="128" y="128" on="1"/>
        <pt x="128" y="192" on="1"/>
        <pt x="128" y="256" on="1"/>
        <pt x="64" y="256" on="1"/>
        <pt x="0" y="256" on="1"/>
        <pt x="0" y="320" on="1"/>
        <pt x="0" y="384" on="1"/>
        <pt x="128" y="384" on="1"/>
        <pt x="256" y="384" on="1"/>
        <pt x="256" y="320" on="1"/>
        <pt x="256" y="256" on="1"/>
        <pt x="448" y="256" on="1"/>
        <pt x="640" y="256" on="1"/>
      </contour>
    </TTGlyph>
    <TTGlyph name="Jcircumflex" xMin="0" yMin="128" xMax="896" yMax="1024">
      <contour>
        <pt x="384" y="960" on="1"/>
        <pt x="384" y="1024" on="1"/>
        <pt x="576" y="1024" on="1"/>
        <pt x="768" y="1024" on="1"/>
        <pt x="768" y="960" on="1"/>
        <pt x="768" y="896" on="1"/>
        <pt x="832" y="896" on="1"/>
        <pt x="896" y="896" on="1"/>
        <pt x="896" y="576" on="1"/>
        <pt x="896" y="256" on="1"/>
        <pt x="832" y="256" on="1"/>
        <pt x="768" y="256" on="1"/>
        <pt x="768" y="192" on="1"/>
        <pt x="768" y="128" on="1"/>
        <pt x="448" y="128" on="1"/>
        <pt x="128" y="128" on="1"/>
        <pt x="128" y="192" on="1"/>
        <pt x="128" y="256" on="1"/>
        <pt x="64" y="256" on="1"/>
        <pt x="0" y="256" on="1"/>
        <pt x="0" y="320" on="1"/>
        <pt x="0" y="384" on="1"/>
        <pt x="128" y="384" on="1"/>
        <pt x="256" y="384" on="1"/>
        <pt x="256" y="320" on="1"/>
        <pt x="256" y="256" on="1"/>
        <pt x="448" y="256" on="1"/>
        <pt x="640" y="256" on="1"/>
        <pt x="640" y="576" on="1"/>
        <pt x="640" y="896" on="1"/>
        <pt x="576" y="896" on="1"/>
        <pt x="512" y="896" on="1"/>
        <pt x="512" y="832" on="1"/>
        <pt x="512" y="768" on="1"/>
        <pt x="384" y="768" on="1"/>
        <pt x="256" y="768" on="1"/>
        <pt x="256" y="832" on="1"/>
        <pt x="256" y="896" on="1"/>
        <pt x="320" y="896" on="1"/>
        <pt x="384" y="896" on="1"/>
      </contour>
    </TTGlyph>
    <TTGlyph name="K" xMin="0" yMin="128" xMax="896" yMax="1024">
      <contour>
        <pt x="0" y="576" on="1"/>
        <pt x="0" y="1024" on="1"/>
        <pt x="128" y="1024" on="1"/>
        <pt x="256" y="1024" on="1"/>
        <pt x="256" y="832" on="1"/>
        <pt x="256" y="640" on="1"/>
        <pt x="320" y="640" on="1"/>
        <pt x="384" y="640" on="1"/>
        <pt x="384" y="704" on="1"/>
        <pt x="384" y="768" on="1"/>
        <pt x="448" y="768" on="1"/>
        <pt x="512" y="768" on="1"/>
        <pt x="512" y="832" on="1"/>
        <pt x="512" y="896" on="1"/>
        <pt x="576" y="896" on="1"/>
        <pt x="640" y="896" on="1"/>
        <pt x="640" y="960" on="1"/>
        <pt x="640" y="1024" on="1"/>
        <pt x="768" y="1024" on="1"/>
        <pt x="896" y="1024" on="1"/>
        <pt x="896" y="960" on="1"/>
        <pt x="896" y="896" on="1"/>
        <pt x="832" y="896" on="1"/>
        <pt x="768" y="896" on="1"/>
        <pt x="768" y="832" on="1"/>
        <pt x="768" y="768" on="1"/>
        <pt x="704" y="768" on="1"/>
        <pt x="640" y="768" on="1"/>
        <pt x="640" y="704" on="1"/>
        <pt x="640" y="640" on="1"/>
        <pt x="576" y="640" on="1"/>
        <pt x="512" y="640" on="1"/>
        <pt x="512" y="576" on="1"/>
        <pt x="512" y="512" on="1"/>
        <pt x="576" y="512" on="1"/>
        <pt x="640" y="512" on="1"/>
        <pt x="640" y="448" on="1"/>
        <pt x="640" y="384" on="1"/>
        <pt x="704" y="384" on="1"/>
        <pt x="768" y="384" on="1"/>
        <pt x="768" y="320" on="1"/>
        <pt x="768" y="256" on="1"/>
        <pt x="832" y="256" on="1"/>
        <pt x="896" y="256" on="1"/>
        <pt x="896" y="192" on="1"/>
        <pt x="896" y="128" on="1"/>
        <pt x="704" y="128" on="1"/>
        <pt x="512" y="128" on="1"/>
        <pt x="512" y="192" on="1"/>
        <pt x="512" y="256" on="1"/>
        <pt x="448" y="256" on="1"/>
        <pt x="384" y="256" on="1"/>
        <pt x="384" y="320" on="1"/>
        <pt x="384" y="384" on="1"/>
        <pt x="320" y="384" on="1"/>
        <pt x="256" y="384" on="1"/>
        <pt x="256" y="256" on="1"/>
        <pt x="256" y="128" on="1"/>
        <pt x="128" y="128" on="1"/>
        <pt x="0" y="128" on="1"/>
      </contour>
    </TTGlyph>
    <TTGlyph name="Kappa" xMin="0" yMin="128" xMax="896" yMax="1024">
      <contour>
        <pt x="0" y="576" on="1"/>
        <pt x="0" y="1024" on="1"/>
        <pt x="128" y="1024" on="1"/>
        <pt x="256" y="1024" on="1"/>
        <pt x="256" y="832" on="1"/>
        <pt x="256" y="640" on="1"/>
        <pt x="320" y="640" on="1"/>
        <pt x="384" y="640" on="1"/>
        <pt x="384" y="704" on="1"/>
        <pt x="384" y="768" on="1"/>
        <pt x="448" y="768" on="1"/>
        <pt x="512" y="768" on="1"/>
        <pt x="512" y="832" on="1"/>
        <pt x="512" y="896" on="1"/>
        <pt x="576" y="896" on="1"/>
        <pt x="640" y="896" on="1"/>
        <pt x="640" y="960" on="1"/>
        <pt x="640" y="1024" on="1"/>
        <pt x="768" y="1024" on="1"/>
        <pt x="896" y="1024" on="1"/>
        <pt x="896" y="960" on="1"/>
        <pt x="896" y="896" on="1"/>
        <pt x="832" y="896" on="1"/>
        <pt x="768" y="896" on="1"/>
        <pt x="768" y="832" on="1"/>
        <pt x="768" y="768" on="1"/>
        <pt x="704" y="768" on="1"/>
        <pt x="640" y="768" on="1"/>
        <pt x="640" y="704" on="1"/>
        <pt x="640" y="640" on="1"/>
        <pt x="576" y="640" on="1"/>
        <pt x="512" y="640" on="1"/>
        <pt x="512" y="576" on="1"/>
        <pt x="512" y="512" on="1"/>
        <pt x="576" y="512" on="1"/>
        <pt x="640" y="512" on="1"/>
        <pt x="640" y="448" on="1"/>
        <pt x="640" y="384" on="1"/>
        <pt x="704" y="384" on="1"/>
        <pt x="768" y="384" on="1"/>
        <pt x="768" y="320" on="1"/>
        <pt x="768" y="256" on="1"/>
        <pt x="832" y="256" on="1"/>
        <pt x="896" y="256" on="1"/>
        <pt x="896" y="192" on="1"/>
        <pt x="896" y="128" on="1"/>
        <pt x="704" y="128" on="1"/>
        <pt x="512" y="128" on="1"/>
        <pt x="512" y="192" on="1"/>
        <pt x="512" y="256" on="1"/>
        <pt x="448" y="256" on="1"/>
        <pt x="384" y="256" on="1"/>
        <pt x="384" y="320" on="1"/>
        <pt x="384" y="384" on="1"/>
        <pt x="320" y="384" on="1"/>
        <pt x="256" y="384" on="1"/>
        <pt x="256" y="256" on="1"/>
        <pt x="256" y="128" on="1"/>
        <pt x="128" y="128" on="1"/>
        <pt x="0" y="128" on="1"/>
      </contour>
    </TTGlyph>
    <TTGlyph name="Kcommaaccent" xMin="0" yMin="0" xMax="896" yMax="1024">
      <contour>
        <pt x="0" y="640" on="1"/>
        <pt x="0" y="1024" on="1"/>
        <pt x="128" y="1024" on="1"/>
        <pt x="256" y="1024" on="1"/>
        <pt x="256" y="896" on="1"/>
        <pt x="256" y="768" on="1"/>
        <pt x="320" y="768" on="1"/>
        <pt x="384" y="768" on="1"/>
        <pt x="384" y="832" on="1"/>
        <pt x="384" y="896" on="1"/>
        <pt x="448" y="896" on="1"/>
        <pt x="512" y="896" on="1"/>
        <pt x="512" y="960" on="1"/>
        <pt x="512" y="1024" on="1"/>
        <pt x="640" y="1024" on="1"/>
        <pt x="768" y="1024" on="1"/>
        <pt x="768" y="960" on="1"/>
        <pt x="768" y="896" on="1"/>
        <pt x="704" y="896" on="1"/>
        <pt x="640" y="896" on="1"/>
        <pt x="640" y="832" on="1"/>
        <pt x="640" y="768" on="1"/>
        <pt x="576" y="768" on="1"/>
        <pt x="512" y="768" on="1"/>
        <pt x="512" y="704" on="1"/>
        <pt x="512" y="640" on="1"/>
        <pt x="576" y="640" on="1"/>
        <pt x="640" y="640" on="1"/>
        <pt x="640" y="576" on="1"/>
        <pt x="640" y="512" on="1"/>
        <pt x="704" y="512" on="1"/>
        <pt x="768" y="512" on="1"/>
        <pt x="768" y="448" on="1"/>
        <pt x="768" y="384" on="1"/>
        <pt x="832" y="384" on="1"/>
        <pt x="896" y="384" on="1"/>
        <pt x="896" y="320" on="1"/>
        <pt x="896" y="256" on="1"/>
        <pt x="704" y="256" on="1"/>
        <pt x="512" y="256" on="1"/>
        <pt x="512" y="192" on="1"/>
        <pt x="512" y="128" on="1"/>
        <pt x="448" y="128" on="1"/>
        <pt x="384" y="128" on="1"/>
        <pt x="384" y="64" on="1"/>
        <pt x="384" y="0" on="1"/>
        <pt x="256" y="0" on="1"/>
        <pt x="128" y="0" on="1"/>
        <pt x="128" y="64" on="1"/>
        <pt x="128" y="128" on="1"/>
        <pt x="192" y="128" on="1"/>
        <pt x="256" y="128" on="1"/>
        <pt x="256" y="192" on="1"/>
        <pt x="256" y="256" on="1"/>
        <pt x="128" y="256" on="1"/>
        <pt x="0" y="256" on="1"/>
      </contour>
      <contour>
        <pt x="384" y="448" on="1"/>
        <pt x="384" y="512" on="1"/>
        <pt x="320" y="512" on="1"/>
        <pt x="256" y="512" on="1"/>
        <pt x="256" y="384" on="1"/>
        <pt x="256" y="256" on="1"/>
        <pt x="384" y="256" on="1"/>
        <pt x="512" y="256" on="1"/>
        <pt x="512" y="320" on="1"/>
        <pt x="512" y="384" on="1"/>
        <pt x="448" y="384" on="1"/>
        <pt x="384" y="384" on="1"/>
      </contour>
    </TTGlyph>
    <TTGlyph name="L" xMin="128" yMin="128" xMax="896" yMax="1024">
      <contour>
        <pt x="128" y="576" on="1"/>
        <pt x="128" y="1024" on="1"/>
        <pt x="256" y="1024" on="1"/>
        <pt x="384" y="1024" on="1"/>
        <pt x="384" y="640" on="1"/>
        <pt x="384" y="256" on="1"/>
        <pt x="640" y="256" on="1"/>
        <pt x="896" y="256" on="1"/>
        <pt x="896" y="192" on="1"/>
        <pt x="896" y="128" on="1"/>
        <pt x="512" y="128" on="1"/>
        <pt x="128" y="128" on="1"/>
      </contour>
    </TTGlyph>
    <TTGlyph name="Lacute" xMin="128" yMin="128" xMax="896" yMax="1024">
      <contour>
        <pt x="512" y="960" on="1"/>
        <pt x="512" y="1024" on="1"/>
        <pt x="576" y="1024" on="1"/>
        <pt x="640" y="1024" on="1"/>
        <pt x="640" y="960" on="1"/>
        <pt x="640" y="896" on="1"/>
        <pt x="576" y="896" on="1"/>
        <pt x="512" y="896" on="1"/>
        <pt x="512" y="832" on="1"/>
        <pt x="512" y="768" on="1"/>
        <pt x="448" y="768" on="1"/>
        <pt x="384" y="768" on="1"/>
        <pt x="384" y="512" on="1"/>
        <pt x="384" y="256" on="1"/>
        <pt x="640" y="256" on="1"/>
        <pt x="896" y="256" on="1"/>
        <pt x="896" y="192" on="1"/>
        <pt x="896" y="128" on="1"/>
        <pt x="512" y="128" on="1"/>
        <pt x="128" y="128" on="1"/>
        <pt x="128" y="512" on="1"/>
        <pt x="128" y="896" on="1"/>
        <pt x="320" y="896" on="1"/>
        <pt x="512" y="896" on="1"/>
      </contour>
    </TTGlyph>
    <TTGlyph name="Lambda" xMin="0" yMin="128" xMax="896" yMax="1024">
      <contour>
        <pt x="256" y="960" on="1"/>
        <pt x="256" y="1024" on="1"/>
        <pt x="448" y="1024" on="1"/>
        <pt x="640" y="1024" on="1"/>
        <pt x="640" y="960" on="1"/>
        <pt x="640" y="896" on="1"/>
        <pt x="704" y="896" on="1"/>
        <pt x="768" y="896" on="1"/>
        <pt x="768" y="832" on="1"/>
        <pt x="768" y="768" on="1"/>
        <pt x="832" y="768" on="1"/>
        <pt x="896" y="768" on="1"/>
        <pt x="896" y="448" on="1"/>
        <pt x="896" y="128" on="1"/>
        <pt x="768" y="128" on="1"/>
        <pt x="640" y="128" on="1"/>
        <pt x="640" y="448" on="1"/>
        <pt x="640" y="768" on="1"/>
        <pt x="576" y="768" on="1"/>
        <pt x="512" y="768" on="1"/>
        <pt x="512" y="832" on="1"/>
        <pt x="512" y="896" on="1"/>
        <pt x="448" y="896" on="1"/>
        <pt x="384" y="896" on="1"/>
        <pt x="384" y="832" on="1"/>
        <pt x="384" y="768" on="1"/>
        <pt x="320" y="768" on="1"/>
        <pt x="256" y="768" on="1"/>
        <pt x="256" y="448" on="1"/>
        <pt x="256" y="128" on="1"/>
        <pt x="128" y="128" on="1"/>
        <pt x="0" y="128" on="1"/>
        <pt x="0" y="448" on="1"/>
        <pt x="0" y="768" on="1"/>
        <pt x="64" y="768" on="1"/>
        <pt x="128" y="768" on="1"/>
        <pt x="128" y="832" on="1"/>
        <pt x="128" y="896" on="1"/>
        <pt x="192" y="896" on="1"/>
        <pt x="256" y="896" on="1"/>
      </contour>
    </TTGlyph>
    <TTGlyph name="Lcaron" xMin="128" yMin="128" xMax="896" yMax="1024">
      <contour>
        <pt x="640" y="832" on="1"/>
        <pt x="640" y="1024" on="1"/>
        <pt x="768" y="1024" on="1"/>
        <pt x="896" y="1024" on="1"/>
        <pt x="896" y="896" on="1"/>
        <pt x="896" y="768" on="1"/>
        <pt x="832" y="768" on="1"/>
        <pt x="768" y="768" on="1"/>
        <pt x="768" y="704" on="1"/>
        <pt x="768" y="640" on="1"/>
        <pt x="704" y="640" on="1"/>
        <pt x="640" y="640" on="1"/>
      </contour>
      <contour>
        <pt x="128" y="576" on="1"/>
        <pt x="128" y="1024" on="1"/>
        <pt x="256" y="1024" on="1"/>
        <pt x="384" y="1024" on="1"/>
        <pt x="384" y="640" on="1"/>
        <pt x="384" y="256" on="1"/>
        <pt x="640" y="256" on="1"/>
        <pt x="896" y="256" on="1"/>
        <pt x="896" y="192" on="1"/>
        <pt x="896" y="128" on="1"/>
        <pt x="512" y="128" on="1"/>
        <pt x="128" y="128" on="1"/>
      </contour>
    </TTGlyph>
    <TTGlyph name="Lcommaaccent" xMin="128" yMin="0" xMax="896" yMax="1024">
      <contour>
        <pt x="128" y="640" on="1"/>
        <pt x="128" y="1024" on="1"/>
        <pt x="256" y="1024" on="1"/>
        <pt x="384" y="1024" on="1"/>
        <pt x="384" y="704" on="1"/>
        <pt x="384" y="384" on="1"/>
        <pt x="640" y="384" on="1"/>
        <pt x="896" y="384" on="1"/>
        <pt x="896" y="320" on="1"/>
        <pt x="896" y="256" on="1"/>
        <pt x="768" y="256" on="1"/>
        <pt x="640" y="256" on="1"/>
        <pt x="640" y="192" on="1"/>
        <pt x="640" y="128" on="1"/>
        <pt x="576" y="128" on="1"/>
        <pt x="512" y="128" on="1"/>
        <pt x="512" y="64" on="1"/>
        <pt x="512" y="0" on="1"/>
        <pt x="384" y="0" on="1"/>
        <pt x="256" y="0" on="1"/>
        <pt x="256" y="64" on="1"/>
        <pt x="256" y="128" on="1"/>
        <pt x="320" y="128" on="1"/>
        <pt x="384" y="128" on="1"/>
        <pt x="384" y="192" on="1"/>
        <pt x="384" y="256" on="1"/>
        <pt x="256" y="256" on="1"/>
        <pt x="128" y="256" on="1"/>
      </contour>
    </TTGlyph>
    <TTGlyph name="Ldot" xMin="128" yMin="128" xMax="896" yMax="1024">
      <contour>
        <pt x="512" y="640" on="1"/>
        <pt x="512" y="768" on="1"/>
        <pt x="640" y="768" on="1"/>
        <pt x="768" y="768" on="1"/>
        <pt x="768" y="640" on="1"/>
        <pt x="768" y="512" on="1"/>
        <pt x="640" y="512" on="1"/>
        <pt x="512" y="512" on="1"/>
      </contour>
      <contour>
        <pt x="128" y="576" on="1"/>
        <pt x="128" y="1024" on="1"/>
        <pt x="256" y="1024" on="1"/>
        <pt x="384" y="1024" on="1"/>
        <pt x="384" y="640" on="1"/>
        <pt x="384" y="256" on="1"/>
        <pt x="640" y="256" on="1"/>
        <pt x="896" y="256" on="1"/>
        <pt x="896" y="192" on="1"/>
        <pt x="896" y="128" on="1"/>
        <pt x="512" y="128" on="1"/>
        <pt x="128" y="128" on="1"/>
      </contour>
    </TTGlyph>
    <TTGlyph name="Lslash" xMin="0" yMin="128" xMax="896" yMax="1024">
      <contour>
        <pt x="128" y="832" on="1"/>
        <pt x="128" y="1024" on="1"/>
        <pt x="256" y="1024" on="1"/>
        <pt x="384" y="1024" on="1"/>
        <pt x="384" y="896" on="1"/>
        <pt x="384" y="768" on="1"/>
        <pt x="448" y="768" on="1"/>
        <pt x="512" y="768" on="1"/>
        <pt x="512" y="704" on="1"/>
        <pt x="512" y="640" on="1"/>
        <pt x="448" y="640" on="1"/>
        <pt x="384" y="640" on="1"/>
        <pt x="384" y="448" on="1"/>
        <pt x="384" y="256" on="1"/>
        <pt x="640" y="256" on="1"/>
        <pt x="896" y="256" on="1"/>
        <pt x="896" y="192" on="1"/>
        <pt x="896" y="128" on="1"/>
        <pt x="512" y="128" on="1"/>
        <pt x="128" y="128" on="1"/>
        <pt x="128" y="320" on="1"/>
        <pt x="128" y="512" on="1"/>
        <pt x="64" y="512" on="1"/>
        <pt x="0" y="512" on="1"/>
        <pt x="0" y="576" on="1"/>
        <pt x="0" y="640" on="1"/>
        <pt x="64" y="640" on="1"/>
        <pt x="128" y="640" on="1"/>
      </contour>
    </TTGlyph>
    <TTGlyph name="M" xMin="0" yMin="128" xMax="896" yMax="1024">
      <contour>
        <pt x="0" y="576" on="1"/>
        <pt x="0" y="1024" on="1"/>
        <pt x="128" y="1024" on="1"/>
        <pt x="256" y="1024" on="1"/>
        <pt x="256" y="960" on="1"/>
        <pt x="256" y="896" on="1"/>
        <pt x="320" y="896" on="1"/>
        <pt x="384" y="896" on="1"/>
        <pt x="384" y="832" on="1"/>
        <pt x="384" y="768" on="1"/>
        <pt x="448" y="768" on="1"/>
        <pt x="512" y="768" on="1"/>
        <pt x="512" y="832" on="1"/>
        <pt x="512" y="896" on="1"/>
        <pt x="576" y="896" on="1"/>
        <pt x="640" y="896" on="1"/>
        <pt x="640" y="960" on="1"/>
        <pt x="640" y="1024" on="1"/>
        <pt x="768" y="1024" on="1"/>
        <pt x="896" y="1024" on="1"/>
        <pt x="896" y="576" on="1"/>
        <pt x="896" y="128" on="1"/>
        <pt x="768" y="128" on="1"/>
        <pt x="640" y="128" on="1"/>
        <pt x="640" y="320" on="1"/>
        <pt x="640" y="512" on="1"/>
        <pt x="576" y="512" on="1"/>
        <pt x="512" y="512" on="1"/>
        <pt x="512" y="448" on="1"/>
        <pt x="512" y="384" on="1"/>
        <pt x="448" y="384" on="1"/>
        <pt x="384" y="384" on="1"/>
        <pt x="384" y="448" on="1"/>
        <pt x="384" y="512" on="1"/>
        <pt x="320" y="512" on="1"/>
        <pt x="256" y="512" on="1"/>
        <pt x="256" y="320" on="1"/>
        <pt x="256" y="128" on="1"/>
        <pt x="128" y="128" on="1"/>
        <pt x="0" y="128" on="1"/>
      </contour>
    </TTGlyph>
    <TTGlyph name="Mu" xMin="0" yMin="128" xMax="896" yMax="1024">
      <contour>
        <pt x="0" y="576" on="1"/>
        <pt x="0" y="1024" on="1"/>
        <pt x="128" y="1024" on="1"/>
        <pt x="256" y="1024" on="1"/>
        <pt x="256" y="960" on="1"/>
        <pt x="256" y="896" on="1"/>
        <pt x="320" y="896" on="1"/>
        <pt x="384" y="896" on="1"/>
        <pt x="384" y="832" on="1"/>
        <pt x="384" y="768" on="1"/>
        <pt x="448" y="768" on="1"/>
        <pt x="512" y="768" on="1"/>
        <pt x="512" y="832" on="1"/>
        <pt x="512" y="896" on="1"/>
        <pt x="576" y="896" on="1"/>
        <pt x="640" y="896" on="1"/>
        <pt x="640" y="960" on="1"/>
        <pt x="640" y="1024" on="1"/>
        <pt x="768" y="1024" on="1"/>
        <pt x="896" y="1024" on="1"/>
        <pt x="896" y="576" on="1"/>
        <pt x="896" y="128" on="1"/>
        <pt x="768" y="128" on="1"/>
        <pt x="640" y="128" on="1"/>
        <pt x="640" y="320" on="1"/>
        <pt x="640" y="512" on="1"/>
        <pt x="576" y="512" on="1"/>
        <pt x="512" y="512" on="1"/>
        <pt x="512" y="448" on="1"/>
        <pt x="512" y="384" on="1"/>
        <pt x="448" y="384" on="1"/>
        <pt x="384" y="384" on="1"/>
        <pt x="384" y="448" on="1"/>
        <pt x="384" y="512" on="1"/>
        <pt x="320" y="512" on="1"/>
        <pt x="256" y="512" on="1"/>
        <pt x="256" y="320" on="1"/>
        <pt x="256" y="128" on="1"/>
        <pt x="128" y="128" on="1"/>
        <pt x="0" y="128" on="1"/>
      </contour>
    </TTGlyph>
    <TTGlyph name="N" xMin="0" yMin="128" xMax="896" yMax="1024">
      <contour>
        <pt x="0" y="576" on="1"/>
        <pt x="0" y="1024" on="1"/>
        <pt x="128" y="1024" on="1"/>
        <pt x="256" y="1024" on="1"/>
        <pt x="256" y="960" on="1"/>
        <pt x="256" y="896" on="1"/>
        <pt x="320" y="896" on="1"/>
        <pt x="384" y="896" on="1"/>
        <pt x="384" y="832" on="1"/>
        <pt x="384" y="768" on="1"/>
        <pt x="448" y="768" on="1"/>
        <pt x="512" y="768" on="1"/>
        <pt x="512" y="704" on="1"/>
        <pt x="512" y="640" on="1"/>
        <pt x="576" y="640" on="1"/>
        <pt x="640" y="640" on="1"/>
        <pt x="640" y="832" on="1"/>
        <pt x="640" y="1024" on="1"/>
        <pt x="768" y="1024" on="1"/>
        <pt x="896" y="1024" on="1"/>
        <pt x="896" y="576" on="1"/>
        <pt x="896" y="128" on="1"/>
        <pt x="768" y="128" on="1"/>
        <pt x="640" y="128" on="1"/>
        <pt x="640" y="192" on="1"/>
        <pt x="640" y="256" on="1"/>
        <pt x="576" y="256" on="1"/>
        <pt x="512" y="256" on="1"/>
        <pt x="512" y="320" on="1"/>
        <pt x="512" y="384" on="1"/>
        <pt x="448" y="384" on="1"/>
        <pt x="384" y="384" on="1"/>
        <pt x="384" y="448" on="1"/>
        <pt x="384" y="512" on="1"/>
        <pt x="320" y="512" on="1"/>
        <pt x="256" y="512" on="1"/>
        <pt x="256" y="320" on="1"/>
        <pt x="256" y="128" on="1"/>
        <pt x="128" y="128" on="1"/>
        <pt x="0" y="128" on="1"/>
      </contour>
    </TTGlyph>
    <TTGlyph name="Nacute" xMin="0" yMin="128" xMax="896" yMax="1024">
      <contour>
        <pt x="512" y="960" on="1"/>
        <pt x="512" y="1024" on="1"/>
        <pt x="576" y="1024" on="1"/>
        <pt x="640" y="1024" on="1"/>
        <pt x="640" y="960" on="1"/>
        <pt x="640" y="896" on="1"/>
        <pt x="576" y="896" on="1"/>
        <pt x="512" y="896" on="1"/>
        <pt x="512" y="832" on="1"/>
        <pt x="512" y="768" on="1"/>
        <pt x="448" y="768" on="1"/>
        <pt x="384" y="768" on="1"/>
        <pt x="384" y="704" on="1"/>
        <pt x="384" y="640" on="1"/>
        <pt x="448" y="640" on="1"/>
        <pt x="512" y="640" on="1"/>
        <pt x="512" y="576" on="1"/>
        <pt x="512" y="512" on="1"/>
        <pt x="576" y="512" on="1"/>
        <pt x="640" y="512" on="1"/>
        <pt x="640" y="640" on="1"/>
        <pt x="640" y="768" on="1"/>
        <pt x="768" y="768" on="1"/>
        <pt x="896" y="768" on="1"/>
        <pt x="896" y="448" on="1"/>
        <pt x="896" y="128" on="1"/>
        <pt x="704" y="128" on="1"/>
        <pt x="512" y="128" on="1"/>
        <pt x="512" y="192" on="1"/>
        <pt x="512" y="256" on="1"/>
        <pt x="448" y="256" on="1"/>
        <pt x="384" y="256" on="1"/>
        <pt x="384" y="320" on="1"/>
        <pt x="384" y="384" on="1"/>
        <pt x="320" y="384" on="1"/>
        <pt x="256" y="384" on="1"/>
        <pt x="256" y="256" on="1"/>
        <pt x="256" y="128" on="1"/>
        <pt x="128" y="128" on="1"/>
        <pt x="0" y="128" on="1"/>
        <pt x="0" y="448" on="1"/>
        <pt x="0" y="768" on="1"/>
        <pt x="192" y="768" on="1"/>
        <pt x="384" y="768" on="1"/>
        <pt x="384" y="832" on="1"/>
        <pt x="384" y="896" on="1"/>
        <pt x="448" y="896" on="1"/>
        <pt x="512" y="896" on="1"/>
      </contour>
    </TTGlyph>
    <TTGlyph name="Ncaron" xMin="0" yMin="128" xMax="896" yMax="1024">
      <contour>
        <pt x="128" y="960" on="1"/>
        <pt x="128" y="1024" on="1"/>
        <pt x="256" y="1024" on="1"/>
        <pt x="384" y="1024" on="1"/>
        <pt x="384" y="960" on="1"/>
        <pt x="384" y="896" on="1"/>
        <pt x="448" y="896" on="1"/>
        <pt x="512" y="896" on="1"/>
        <pt x="512" y="960" on="1"/>
        <pt x="512" y="1024" on="1"/>
        <pt x="640" y="1024" on="1"/>
        <pt x="768" y="1024" on="1"/>
        <pt x="768" y="960" on="1"/>
        <pt x="768" y="896" on="1"/>
        <pt x="704" y="896" on="1"/>
        <pt x="640" y="896" on="1"/>
        <pt x="640" y="832" on="1"/>
        <pt x="640" y="768" on="1"/>
        <pt x="768" y="768" on="1"/>
        <pt x="896" y="768" on="1"/>
        <pt x="896" y="448" on="1"/>
        <pt x="896" y="128" on="1"/>
        <pt x="704" y="128" on="1"/>
        <pt x="512" y="128" on="1"/>
        <pt x="512" y="192" on="1"/>
        <pt x="512" y="256" on="1"/>
        <pt x="448" y="256" on="1"/>
        <pt x="384" y="256" on="1"/>
        <pt x="384" y="320" on="1"/>
        <pt x="384" y="384" on="1"/>
        <pt x="320" y="384" on="1"/>
        <pt x="256" y="384" on="1"/>
        <pt x="256" y="256" on="1"/>
        <pt x="256" y="128" on="1"/>
        <pt x="128" y="128" on="1"/>
        <pt x="0" y="128" on="1"/>
        <pt x="0" y="448" on="1"/>
        <pt x="0" y="768" on="1"/>
        <pt x="128" y="768" on="1"/>
        <pt x="256" y="768" on="1"/>
        <pt x="256" y="832" on="1"/>
        <pt x="256" y="896" on="1"/>
        <pt x="192" y="896" on="1"/>
        <pt x="128" y="896" on="1"/>
      </contour>
      <contour>
        <pt x="640" y="640" on="1"/>
        <pt x="640" y="768" on="1"/>
        <pt x="512" y="768" on="1"/>
        <pt x="384" y="768" on="1"/>
        <pt x="384" y="704" on="1"/>
        <pt x="384" y="640" on="1"/>
        <pt x="448" y="640" on="1"/>
        <pt x="512" y="640" on="1"/>
        <pt x="512" y="576" on="1"/>
        <pt x="512" y="512" on="1"/>
        <pt x="576" y="512" on="1"/>
        <pt x="640" y="512" on="1"/>
      </contour>
    </TTGlyph>
    <TTGlyph name="Ncommaaccent" xMin="0" yMin="0" xMax="896" yMax="1024">
      <contour>
        <pt x="0" y="640" on="1"/>
        <pt x="0" y="1024" on="1"/>
        <pt x="192" y="1024" on="1"/>
        <pt x="384" y="1024" on="1"/>
        <pt x="384" y="960" on="1"/>
        <pt x="384" y="896" on="1"/>
        <pt x="448" y="896" on="1"/>
        <pt x="512" y="896" on="1"/>
        <pt x="512" y="832" on="1"/>
        <pt x="512" y="768" on="1"/>
        <pt x="576" y="768" on="1"/>
        <pt x="640" y="768" on="1"/>
        <pt x="640" y="896" on="1"/>
        <pt x="640" y="1024" on="1"/>
        <pt x="768" y="1024" on="1"/>
        <pt x="896" y="1024" on="1"/>
        <pt x="896" y="640" on="1"/>
        <pt x="896" y="256" on="1"/>
        <pt x="768" y="256" on="1"/>
        <pt x="640" y="256" on="1"/>
        <pt x="640" y="192" on="1"/>
        <pt x="640" y="128" on="1"/>
        <pt x="576" y="128" on="1"/>
        <pt x="512" y="128" on="1"/>
        <pt x="512" y="64" on="1"/>
        <pt x="512" y="0" on="1"/>
        <pt x="384" y="0" on="1"/>
        <pt x="256" y="0" on="1"/>
        <pt x="256" y="64" on="1"/>
        <pt x="256" y="128" on="1"/>
        <pt x="320" y="128" on="1"/>
        <pt x="384" y="128" on="1"/>
        <pt x="384" y="192" on="1"/>
        <pt x="384" y="256" on="1"/>
        <pt x="512" y="256" on="1"/>
        <pt x="640" y="256" on="1"/>
        <pt x="640" y="320" on="1"/>
        <pt x="640" y="384" on="1"/>
        <pt x="576" y="384" on="1"/>
        <pt x="512" y="384" on="1"/>
        <pt x="512" y="448" on="1"/>
        <pt x="512" y="512" on="1"/>
        <pt x="448" y="512" on="1"/>
        <pt x="384" y="512" on="1"/>
        <pt x="384" y="576" on="1"/>
        <pt x="384" y="640" on="1"/>
        <pt x="320" y="640" on="1"/>
        <pt x="256" y="640" on="1"/>
        <pt x="256" y="448" on="1"/>
        <pt x="256" y="256" on="1"/>
        <pt x="128" y="256" on="1"/>
        <pt x="0" y="256" on="1"/>
      </contour>
    </TTGlyph>
    <TTGlyph name="Ntilde" xMin="0" yMin="128" xMax="896" yMax="1024">
      <contour>
        <pt x="256" y="960" on="1"/>
        <pt x="256" y="1024" on="1"/>
        <pt x="384" y="1024" on="1"/>
        <pt x="512" y="1024" on="1"/>
        <pt x="512" y="960" on="1"/>
        <pt x="512" y="896" on="1"/>
        <pt x="576" y="896" on="1"/>
        <pt x="640" y="896" on="1"/>
        <pt x="640" y="960" on="1"/>
        <pt x="640" y="1024" on="1"/>
        <pt x="704" y="1024" on="1"/>
        <pt x="768" y="1024" on="1"/>
        <pt x="768" y="960" on="1"/>
        <pt x="768" y="896" on="1"/>
        <pt x="704" y="896" on="1"/>
        <pt x="640" y="896" on="1"/>
        <pt x="640" y="832" on="1"/>
        <pt x="640" y="768" on="1"/>
        <pt x="768" y="768" on="1"/>
        <pt x="896" y="768" on="1"/>
        <pt x="896" y="448" on="1"/>
        <pt x="896" y="128" on="1"/>
        <pt x="704" y="128" on="1"/>
        <pt x="512" y="128" on="1"/>
        <pt x="512" y="192" on="1"/>
        <pt x="512" y="256" on="1"/>
        <pt x="448" y="256" on="1"/>
        <pt x="384" y="256" on="1"/>
        <pt x="384" y="320" on="1"/>
        <pt x="384" y="384" on="1"/>
        <pt x="320" y="384" on="1"/>
        <pt x="256" y="384" on="1"/>
        <pt x="256" y="256" on="1"/>
        <pt x="256" y="128" on="1"/>
        <pt x="128" y="128" on="1"/>
        <pt x="0" y="128" on="1"/>
        <pt x="0" y="448" on="1"/>
        <pt x="0" y="768" on="1"/>
        <pt x="64" y="768" on="1"/>
        <pt x="128" y="768" on="1"/>
        <pt x="128" y="832" on="1"/>
        <pt x="128" y="896" on="1"/>
        <pt x="192" y="896" on="1"/>
        <pt x="256" y="896" on="1"/>
      </contour>
      <contour>
        <pt x="384" y="832" on="1"/>
        <pt x="384" y="896" on="1"/>
        <pt x="320" y="896" on="1"/>
        <pt x="256" y="896" on="1"/>
        <pt x="256" y="832" on="1"/>
        <pt x="256" y="768" on="1"/>
        <pt x="320" y="768" on="1"/>
        <pt x="384" y="768" on="1"/>
        <pt x="384" y="704" on="1"/>
        <pt x="384" y="640" on="1"/>
        <pt x="448" y="640" on="1"/>
        <pt x="512" y="640" on="1"/>
        <pt x="512" y="576" on="1"/>
        <pt x="512" y="512" on="1"/>
        <pt x="576" y="512" on="1"/>
        <pt x="640" y="512" on="1"/>
        <pt x="640" y="640" on="1"/>
        <pt x="640" y="768" on="1"/>
        <pt x="512" y="768" on="1"/>
        <pt x="384" y="768" on="1"/>
      </contour>
    </TTGlyph>
    <TTGlyph name="Nu" xMin="0" yMin="128" xMax="896" yMax="1024">
      <contour>
        <pt x="0" y="576" on="1"/>
        <pt x="0" y="1024" on="1"/>
        <pt x="128" y="1024" on="1"/>
        <pt x="256" y="1024" on="1"/>
        <pt x="256" y="960" on="1"/>
        <pt x="256" y="896" on="1"/>
        <pt x="320" y="896" on="1"/>
        <pt x="384" y="896" on="1"/>
        <pt x="384" y="832" on="1"/>
        <pt x="384" y="768" on="1"/>
        <pt x="448" y="768" on="1"/>
        <pt x="512" y="768" on="1"/>
        <pt x="512" y="704" on="1"/>
        <pt x="512" y="640" on="1"/>
        <pt x="576" y="640" on="1"/>
        <pt x="640" y="640" on="1"/>
        <pt x="640" y="832" on="1"/>
        <pt x="640" y="1024" on="1"/>
        <pt x="768" y="1024" on="1"/>
        <pt x="896" y="1024" on="1"/>
        <pt x="896" y="576" on="1"/>
        <pt x="896" y="128" on="1"/>
        <pt x="768" y="128" on="1"/>
        <pt x="640" y="128" on="1"/>
        <pt x="640" y="192" on="1"/>
        <pt x="640" y="256" on="1"/>
        <pt x="576" y="256" on="1"/>
        <pt x="512" y="256" on="1"/>
        <pt x="512" y="320" on="1"/>
        <pt x="512" y="384" on="1"/>
        <pt x="448" y="384" on="1"/>
        <pt x="384" y="384" on="1"/>
        <pt x="384" y="448" on="1"/>
        <pt x="384" y="512" on="1"/>
        <pt x="320" y="512" on="1"/>
        <pt x="256" y="512" on="1"/>
        <pt x="256" y="320" on="1"/>
        <pt x="256" y="128" on="1"/>
        <pt x="128" y="128" on="1"/>
        <pt x="0" y="128" on="1"/>
      </contour>
    </TTGlyph>
    <TTGlyph name="O" xMin="0" yMin="128" xMax="896" yMax="1024">
      <contour>
        <pt x="128" y="960" on="1"/>
        <pt x="128" y="1024" on="1"/>
        <pt x="448" y="1024" on="1"/>
        <pt x="768" y="1024" on="1"/>
        <pt x="768" y="960" on="1"/>
        <pt x="768" y="896" on="1"/>
        <pt x="832" y="896" on="1"/>
        <pt x="896" y="896" on="1"/>
        <pt x="896" y="576" on="1"/>
        <pt x="896" y="256" on="1"/>
        <pt x="832" y="256" on="1"/>
        <pt x="768" y="256" on="1"/>
        <pt x="768" y="192" on="1"/>
        <pt x="768" y="128" on="1"/>
        <pt x="448" y="128" on="1"/>
        <pt x="128" y="128" on="1"/>
        <pt x="128" y="192" on="1"/>
        <pt x="128" y="256" on="1"/>
        <pt x="64" y="256" on="1"/>
        <pt x="0" y="256" on="1"/>
        <pt x="0" y="576" on="1"/>
        <pt x="0" y="896" on="1"/>
        <pt x="64" y="896" on="1"/>
        <pt x="128" y="896" on="1"/>
      </contour>
      <contour>
        <pt x="640" y="576" on="1"/>
        <pt x="640" y="896" on="1"/>
        <pt x="448" y="896" on="1"/>
        <pt x="256" y="896" on="1"/>
        <pt x="256" y="576" on="1"/>
        <pt x="256" y="256" on="1"/>
        <pt x="448" y="256" on="1"/>
        <pt x="640" y="256" on="1"/>
      </contour>
    </TTGlyph>
    <TTGlyph name="OE" xMin="0" yMin="128" xMax="896" yMax="1024">
      <contour>
        <pt x="128" y="960" on="1"/>
        <pt x="128" y="1024" on="1"/>
        <pt x="512" y="1024" on="1"/>
        <pt x="896" y="1024" on="1"/>
        <pt x="896" y="960" on="1"/>
        <pt x="896" y="896" on="1"/>
        <pt x="768" y="896" on="1"/>
        <pt x="640" y="896" on="1"/>
        <pt x="640" y="768" on="1"/>
        <pt x="640" y="640" on="1"/>
        <pt x="768" y="640" on="1"/>
        <pt x="896" y="640" on="1"/>
        <pt x="896" y="576" on="1"/>
        <pt x="896" y="512" on="1"/>
        <pt x="768" y="512" on="1"/>
        <pt x="640" y="512" on="1"/>
        <pt x="640" y="384" on="1"/>
        <pt x="640" y="256" on="1"/>
        <pt x="768" y="256" on="1"/>
        <pt x="896" y="256" on="1"/>
        <pt x="896" y="192" on="1"/>
        <pt x="896" y="128" on="1"/>
        <pt x="512" y="128" on="1"/>
        <pt x="128" y="128" on="1"/>
        <pt x="128" y="192" on="1"/>
        <pt x="128" y="256" on="1"/>
        <pt x="64" y="256" on="1"/>
        <pt x="0" y="256" on="1"/>
        <pt x="0" y="576" on="1"/>
        <pt x="0" y="896" on="1"/>
        <pt x="64" y="896" on="1"/>
        <pt x="128" y="896" on="1"/>
      </contour>
      <contour>
        <pt x="384" y="576" on="1"/>
        <pt x="384" y="896" on="1"/>
        <pt x="320" y="896" on="1"/>
        <pt x="256" y="896" on="1"/>
        <pt x="256" y="576" on="1"/>
        <pt x="256" y="256" on="1"/>
        <pt x="320" y="256" on="1"/>
        <pt x="384" y="256" on="1"/>
      </contour>
    </TTGlyph>
    <TTGlyph name="Oacute" xMin="0" yMin="128" xMax="896" yMax="1024">
      <contour>
        <pt x="512" y="960" on="1"/>
        <pt x="512" y="1024" on="1"/>
        <pt x="576" y="1024" on="1"/>
        <pt x="640" y="1024" on="1"/>
        <pt x="640" y="960" on="1"/>
        <pt x="640" y="896" on="1"/>
        <pt x="576" y="896" on="1"/>
        <pt x="512" y="896" on="1"/>
        <pt x="512" y="832" on="1"/>
        <pt x="512" y="768" on="1"/>
        <pt x="640" y="768" on="1"/>
        <pt x="768" y="768" on="1"/>
        <pt x="768" y="704" on="1"/>
        <pt x="768" y="640" on="1"/>
        <pt x="832" y="640" on="1"/>
        <pt x="896" y="640" on="1"/>
        <pt x="896" y="448" on="1"/>
        <pt x="896" y="256" on="1"/>
        <pt x="832" y="256" on="1"/>
        <pt x="768" y="256" on="1"/>
        <pt x="768" y="192" on="1"/>
        <pt x="768" y="128" on="1"/>
        <pt x="448" y="128" on="1"/>
        <pt x="128" y="128" on="1"/>
        <pt x="128" y="192" on="1"/>
        <pt x="128" y="256" on="1"/>
        <pt x="64" y="256" on="1"/>
        <pt x="0" y="256" on="1"/>
        <pt x="0" y="448" on="1"/>
        <pt x="0" y="640" on="1"/>
        <pt x="64" y="640" on="1"/>
        <pt x="128" y="640" on="1"/>
        <pt x="128" y="704" on="1"/>
        <pt x="128" y="768" on="1"/>
        <pt x="256" y="768" on="1"/>
        <pt x="384" y="768" on="1"/>
        <pt x="384" y="832" on="1"/>
        <pt x="384" y="896" on="1"/>
        <pt x="448" y="896" on="1"/>
        <pt x="512" y="896" on="1"/>
      </contour>
      <contour>
        <pt x="640" y="448" on="1"/>
        <pt x="640" y="640" on="1"/>
        <pt x="448" y="640" on="1"/>
        <pt x="256" y="640" on="1"/>
        <pt x="256" y="448" on="1"/>
        <pt x="256" y="256" on="1"/>
        <pt x="448" y="256" on="1"/>
        <pt x="640" y="256" on="1"/>
      </contour>
    </TTGlyph>
    <TTGlyph name="Obreve" xMin="0" yMin="128" xMax="896" yMax="1024">
      <contour>
        <pt x="128" y="960" on="1"/>
        <pt x="128" y="1024" on="1"/>
        <pt x="192" y="1024" on="1"/>
        <pt x="256" y="1024" on="1"/>
        <pt x="256" y="960" on="1"/>
        <pt x="256" y="896" on="1"/>
        <pt x="448" y="896" on="1"/>
        <pt x="640" y="896" on="1"/>
        <pt x="640" y="960" on="1"/>
        <pt x="640" y="1024" on="1"/>
        <pt x="704" y="1024" on="1"/>
        <pt x="768" y="1024" on="1"/>
        <pt x="768" y="960" on="1"/>
        <pt x="768" y="896" on="1"/>
        <pt x="704" y="896" on="1"/>
        <pt x="640" y="896" on="1"/>
        <pt x="640" y="832" on="1"/>
        <pt x="640" y="768" on="1"/>
        <pt x="704" y="768" on="1"/>
        <pt x="768" y="768" on="1"/>
        <pt x="768" y="704" on="1"/>
        <pt x="768" y="640" on="1"/>
        <pt x="832" y="640" on="1"/>
        <pt x="896" y="640" on="1"/>
        <pt x="896" y="448" on="1"/>
        <pt x="896" y="256" on="1"/>
        <pt x="832" y="256" on="1"/>
        <pt x="768" y="256" on="1"/>
        <pt x="768" y="192" on="1"/>
        <pt x="768" y="128" on="1"/>
        <pt x="448" y="128" on="1"/>
        <pt x="128" y="128" on="1"/>
        <pt x="128" y="192" on="1"/>
        <pt x="128" y="256" on="1"/>
        <pt x="64" y="256" on="1"/>
        <pt x="0" y="256" on="1"/>
        <pt x="0" y="448" on="1"/>
        <pt x="0" y="640" on="1"/>
        <pt x="64" y="640" on="1"/>
        <pt x="128" y="640" on="1"/>
        <pt x="128" y="704" on="1"/>
        <pt x="128" y="768" on="1"/>
        <pt x="192" y="768" on="1"/>
        <pt x="256" y="768" on="1"/>
        <pt x="256" y="832" on="1"/>
        <pt x="256" y="896" on="1"/>
        <pt x="192" y="896" on="1"/>
        <pt x="128" y="896" on="1"/>
      </contour>
      <contour>
        <pt x="640" y="448" on="1"/>
        <pt x="640" y="640" on="1"/>
        <pt x="448" y="640" on="1"/>
        <pt x="256" y="640" on="1"/>
        <pt x="256" y="448" on="1"/>
        <pt x="256" y="256" on="1"/>
        <pt x="448" y="256" on="1"/>
        <pt x="640" y="256" on="1"/>
      </contour>
    </TTGlyph>
    <TTGlyph name="Ocircumflex" xMin="0" yMin="128" xMax="896" yMax="1024">
      <contour>
        <pt x="256" y="960" on="1"/>
        <pt x="256" y="1024" on="1"/>
        <pt x="448" y="1024" on="1"/>
        <pt x="640" y="1024" on="1"/>
        <pt x="640" y="960" on="1"/>
        <pt x="640" y="896" on="1"/>
        <pt x="704" y="896" on="1"/>
        <pt x="768" y="896" on="1"/>
        <pt x="768" y="768" on="1"/>
        <pt x="768" y="640" on="1"/>
        <pt x="832" y="640" on="1"/>
        <pt x="896" y="640" on="1"/>
        <pt x="896" y="448" on="1"/>
        <pt x="896" y="256" on="1"/>
        <pt x="832" y="256" on="1"/>
        <pt x="768" y="256" on="1"/>
        <pt x="768" y="192" on="1"/>
        <pt x="768" y="128" on="1"/>
        <pt x="448" y="128" on="1"/>
        <pt x="128" y="128" on="1"/>
        <pt x="128" y="192" on="1"/>
        <pt x="128" y="256" on="1"/>
        <pt x="64" y="256" on="1"/>
        <pt x="0" y="256" on="1"/>
        <pt x="0" y="448" on="1"/>
        <pt x="0" y="640" on="1"/>
        <pt x="64" y="640" on="1"/>
        <pt x="128" y="640" on="1"/>
        <pt x="128" y="768" on="1"/>
        <pt x="128" y="896" on="1"/>
        <pt x="192" y="896" on="1"/>
        <pt x="256" y="896" on="1"/>
      </contour>
      <contour>
        <pt x="512" y="832" on="1"/>
        <pt x="512" y="896" on="1"/>
        <pt x="448" y="896" on="1"/>
        <pt x="384" y="896" on="1"/>
        <pt x="384" y="832" on="1"/>
        <pt x="384" y="768" on="1"/>
        <pt x="448" y="768" on="1"/>
        <pt x="512" y="768" on="1"/>
      </contour>
      <contour>
        <pt x="640" y="448" on="1"/>
        <pt x="640" y="640" on="1"/>
        <pt x="448" y="640" on="1"/>
        <pt x="256" y="640" on="1"/>
        <pt x="256" y="448" on="1"/>
        <pt x="256" y="256" on="1"/>
        <pt x="448" y="256" on="1"/>
        <pt x="640" y="256" on="1"/>
      </contour>
    </TTGlyph>
    <TTGlyph name="Odieresis" xMin="0" yMin="128" xMax="896" yMax="1024">
      <contour>
        <pt x="128" y="704" on="1"/>
        <pt x="128" y="768" on="1"/>
        <pt x="448" y="768" on="1"/>
        <pt x="768" y="768" on="1"/>
        <pt x="768" y="704" on="1"/>
        <pt x="768" y="640" on="1"/>
        <pt x="832" y="640" on="1"/>
        <pt x="896" y="640" on="1"/>
        <pt x="896" y="448" on="1"/>
        <pt x="896" y="256" on="1"/>
        <pt x="832" y="256" on="1"/>
        <pt x="768" y="256" on="1"/>
        <pt x="768" y="192" on="1"/>
        <pt x="768" y="128" on="1"/>
        <pt x="448" y="128" on="1"/>
        <pt x="128" y="128" on="1"/>
        <pt x="128" y="192" on="1"/>
        <pt x="128" y="256" on="1"/>
        <pt x="64" y="256" on="1"/>
        <pt x="0" y="256" on="1"/>
        <pt x="0" y="448" on="1"/>
        <pt x="0" y="640" on="1"/>
        <pt x="64" y="640" on="1"/>
        <pt x="128" y="640" on="1"/>
      </contour>
      <contour>
        <pt x="640" y="448" on="1"/>
        <pt x="640" y="640" on="1"/>
        <pt x="448" y="640" on="1"/>
        <pt x="256" y="640" on="1"/>
        <pt x="256" y="448" on="1"/>
        <pt x="256" y="256" on="1"/>
        <pt x="448" y="256" on="1"/>
        <pt x="640" y="256" on="1"/>
      </contour>
      <contour>
        <pt x="512" y="960" on="1"/>
        <pt x="512" y="1024" on="1"/>
        <pt x="640" y="1024" on="1"/>
        <pt x="768" y="1024" on="1"/>
        <pt x="768" y="960" on="1"/>
        <pt x="768" y="896" on="1"/>
        <pt x="640" y="896" on="1"/>
        <pt x="512" y="896" on="1"/>
      </contour>
      <contour>
        <pt x="128" y="960" on="1"/>
        <pt x="128" y="1024" on="1"/>
        <pt x="256" y="1024" on="1"/>
        <pt x="384" y="1024" on="1"/>
        <pt x="384" y="960" on="1"/>
        <pt x="384" y="896" on="1"/>
        <pt x="256" y="896" on="1"/>
        <pt x="128" y="896" on="1"/>
      </contour>
    </TTGlyph>
    <TTGlyph name="Ograve" xMin="0" yMin="128" xMax="896" yMax="1024">
      <contour>
        <pt x="256" y="960" on="1"/>
        <pt x="256" y="1024" on="1"/>
        <pt x="320" y="1024" on="1"/>
        <pt x="384" y="1024" on="1"/>
        <pt x="384" y="960" on="1"/>
        <pt x="384" y="896" on="1"/>
        <pt x="448" y="896" on="1"/>
        <pt x="512" y="896" on="1"/>
        <pt x="512" y="832" on="1"/>
        <pt x="512" y="768" on="1"/>
        <pt x="640" y="768" on="1"/>
        <pt x="768" y="768" on="1"/>
        <pt x="768" y="704" on="1"/>
        <pt x="768" y="640" on="1"/>
        <pt x="832" y="640" on="1"/>
        <pt x="896" y="640" on="1"/>
        <pt x="896" y="448" on="1"/>
        <pt x="896" y="256" on="1"/>
        <pt x="832" y="256" on="1"/>
        <pt x="768" y="256" on="1"/>
        <pt x="768" y="192" on="1"/>
        <pt x="768" y="128" on="1"/>
        <pt x="448" y="128" on="1"/>
        <pt x="128" y="128" on="1"/>
        <pt x="128" y="192" on="1"/>
        <pt x="128" y="256" on="1"/>
        <pt x="64" y="256" on="1"/>
        <pt x="0" y="256" on="1"/>
        <pt x="0" y="448" on="1"/>
        <pt x="0" y="640" on="1"/>
        <pt x="64" y="640" on="1"/>
        <pt x="128" y="640" on="1"/>
        <pt x="128" y="704" on="1"/>
        <pt x="128" y="768" on="1"/>
        <pt x="256" y="768" on="1"/>
        <pt x="384" y="768" on="1"/>
        <pt x="384" y="832" on="1"/>
        <pt x="384" y="896" on="1"/>
        <pt x="320" y="896" on="1"/>
        <pt x="256" y="896" on="1"/>
      </contour>
      <contour>
        <pt x="640" y="448" on="1"/>
        <pt x="640" y="640" on="1"/>
        <pt x="448" y="640" on="1"/>
        <pt x="256" y="640" on="1"/>
        <pt x="256" y="448" on="1"/>
        <pt x="256" y="256" on="1"/>
        <pt x="448" y="256" on="1"/>
        <pt x="640" y="256" on="1"/>
      </contour>
    </TTGlyph>
    <TTGlyph name="Ohungarumlaut" xMin="0" yMin="128" xMax="896" yMax="1024">
      <contour>
        <pt x="256" y="960" on="1"/>
        <pt x="256" y="1024" on="1"/>
        <pt x="320" y="1024" on="1"/>
        <pt x="384" y="1024" on="1"/>
        <pt x="384" y="960" on="1"/>
        <pt x="384" y="896" on="1"/>
        <pt x="320" y="896" on="1"/>
        <pt x="256" y="896" on="1"/>
        <pt x="256" y="832" on="1"/>
        <pt x="256" y="768" on="1"/>
        <pt x="384" y="768" on="1"/>
        <pt x="512" y="768" on="1"/>
        <pt x="512" y="832" on="1"/>
        <pt x="512" y="896" on="1"/>
        <pt x="576" y="896" on="1"/>
        <pt x="640" y="896" on="1"/>
        <pt x="640" y="960" on="1"/>
        <pt x="640" y="1024" on="1"/>
        <pt x="704" y="1024" on="1"/>
        <pt x="768" y="1024" on="1"/>
        <pt x="768" y="960" on="1"/>
        <pt x="768" y="896" on="1"/>
        <pt x="704" y="896" on="1"/>
        <pt x="640" y="896" on="1"/>
        <pt x="640" y="832" on="1"/>
        <pt x="640" y="768" on="1"/>
        <pt x="704" y="768" on="1"/>
        <pt x="768" y="768" on="1"/>
        <pt x="768" y="704" on="1"/>
        <pt x="768" y="640" on="1"/>
        <pt x="832" y="640" on="1"/>
        <pt x="896" y="640" on="1"/>
        <pt x="896" y="448" on="1"/>
        <pt x="896" y="256" on="1"/>
        <pt x="832" y="256" on="1"/>
        <pt x="768" y="256" on="1"/>
        <pt x="768" y="192" on="1"/>
        <pt x="768" y="128" on="1"/>
        <pt x="448" y="128" on="1"/>
        <pt x="128" y="128" on="1"/>
        <pt x="128" y="192" on="1"/>
        <pt x="128" y="256" on="1"/>
        <pt x="64" y="256" on="1"/>
        <pt x="0" y="256" on="1"/>
        <pt x="0" y="448" on="1"/>
        <pt x="0" y="640" on="1"/>
        <pt x="64" y="640" on="1"/>
        <pt x="128" y="640" on="1"/>
        <pt x="128" y="768" on="1"/>
        <pt x="128" y="896" on="1"/>
        <pt x="192" y="896" on="1"/>
        <pt x="256" y="896" on="1"/>
      </contour>
      <contour>
        <pt x="640" y="448" on="1"/>
        <pt x="640" y="640" on="1"/>
        <pt x="448" y="640" on="1"/>
        <pt x="256" y="640" on="1"/>
        <pt x="256" y="448" on="1"/>
        <pt x="256" y="256" on="1"/>
        <pt x="448" y="256" on="1"/>
        <pt x="640" y="256" on="1"/>
      </contour>
    </TTGlyph>
    <TTGlyph name="Omacron" xMin="0" yMin="128" xMax="896" yMax="1024">
      <contour>
        <pt x="128" y="704" on="1"/>
        <pt x="128" y="768" on="1"/>
        <pt x="448" y="768" on="1"/>
        <pt x="768" y="768" on="1"/>
        <pt x="768" y="704" on="1"/>
        <pt x="768" y="640" on="1"/>
        <pt x="832" y="640" on="1"/>
        <pt x="896" y="640" on="1"/>
        <pt x="896" y="448" on="1"/>
        <pt x="896" y="256" on="1"/>
        <pt x="832" y="256" on="1"/>
        <pt x="768" y="256" on="1"/>
        <pt x="768" y="192" on="1"/>
        <pt x="768" y="128" on="1"/>
        <pt x="448" y="128" on="1"/>
        <pt x="128" y="128" on="1"/>
        <pt x="128" y="192" on="1"/>
        <pt x="128" y="256" on="1"/>
        <pt x="64" y="256" on="1"/>
        <pt x="0" y="256" on="1"/>
        <pt x="0" y="448" on="1"/>
        <pt x="0" y="640" on="1"/>
        <pt x="64" y="640" on="1"/>
        <pt x="128" y="640" on="1"/>
      </contour>
      <contour>
        <pt x="640" y="448" on="1"/>
        <pt x="640" y="640" on="1"/>
        <pt x="448" y="640" on="1"/>
        <pt x="256" y="640" on="1"/>
        <pt x="256" y="448" on="1"/>
        <pt x="256" y="256" on="1"/>
        <pt x="448" y="256" on="1"/>
        <pt x="640" y="256" on="1"/>
      </contour>
      <contour>
        <pt x="128" y="960" on="1"/>
        <pt x="128" y="1024" on="1"/>
        <pt x="448" y="1024" on="1"/>
        <pt x="768" y="1024" on="1"/>
        <pt x="768" y="960" on="1"/>
        <pt x="768" y="896" on="1"/>
        <pt x="448" y="896" on="1"/>
        <pt x="128" y="896" on="1"/>
      </contour>
    </TTGlyph>
    <TTGlyph name="Omega" xMin="0" yMin="128" xMax="896" yMax="1024">
      <contour>
        <pt x="256" y="960" on="1"/>
        <pt x="256" y="1024" on="1"/>
        <pt x="448" y="1024" on="1"/>
        <pt x="640" y="1024" on="1"/>
        <pt x="640" y="960" on="1"/>
        <pt x="640" y="896" on="1"/>
        <pt x="704" y="896" on="1"/>
        <pt x="768" y="896" on="1"/>
        <pt x="768" y="832" on="1"/>
        <pt x="768" y="768" on="1"/>
        <pt x="832" y="768" on="1"/>
        <pt x="896" y="768" on="1"/>
        <pt x="896" y="576" on="1"/>
        <pt x="896" y="384" on="1"/>
        <pt x="832" y="384" on="1"/>
        <pt x="768" y="384" on="1"/>
        <pt x="768" y="320" on="1"/>
        <pt x="768" y="256" on="1"/>
        <pt x="832" y="256" on="1"/>
        <pt x="896" y="256" on="1"/>
        <pt x="896" y="192" on="1"/>
        <pt x="896" y="128" on="1"/>
        <pt x="704" y="128" on="1"/>
        <pt x="512" y="128" on="1"/>
        <pt x="512" y="256" on="1"/>
        <pt x="512" y="384" on="1"/>
        <pt x="576" y="384" on="1"/>
        <pt x="640" y="384" on="1"/>
        <pt x="640" y="576" on="1"/>
        <pt x="640" y="768" on="1"/>
        <pt x="576" y="768" on="1"/>
        <pt x="512" y="768" on="1"/>
        <pt x="512" y="832" on="1"/>
        <pt x="512" y="896" on="1"/>
        <pt x="448" y="896" on="1"/>
        <pt x="384" y="896" on="1"/>
        <pt x="384" y="832" on="1"/>
        <pt x="384" y="768" on="1"/>
        <pt x="320" y="768" on="1"/>
        <pt x="256" y="768" on="1"/>
        <pt x="256" y="576" on="1"/>
        <pt x="256" y="384" on="1"/>
        <pt x="320" y="384" on="1"/>
        <pt x="384" y="384" on="1"/>
        <pt x="384" y="256" on="1"/>
        <pt x="384" y="128" on="1"/>
        <pt x="192" y="128" on="1"/>
        <pt x="0" y="128" on="1"/>
        <pt x="0" y="192" on="1"/>
        <pt x="0" y="256" on="1"/>
        <pt x="64" y="256" on="1"/>
        <pt x="128" y="256" on="1"/>
        <pt x="128" y="320" on="1"/>
        <pt x="128" y="384" on="1"/>
        <pt x="64" y="384" on="1"/>
        <pt x="0" y="384" on="1"/>
        <pt x="0" y="576" on="1"/>
        <pt x="0" y="768" on="1"/>
        <pt x="64" y="768" on="1"/>
        <pt x="128" y="768" on="1"/>
        <pt x="128" y="832" on="1"/>
        <pt x="128" y="896" on="1"/>
        <pt x="192" y="896" on="1"/>
        <pt x="256" y="896" on="1"/>
      </contour>
    </TTGlyph>
    <TTGlyph name="Omegatonos" xMin="0" yMin="128" xMax="1024" yMax="1024">
      <contour>
        <pt x="128" y="960" on="1"/>
        <pt x="128" y="1024" on="1"/>
        <pt x="192" y="1024" on="1"/>
        <pt x="256" y="1024" on="1"/>
        <pt x="256" y="960" on="1"/>
        <pt x="256" y="896" on="1"/>
        <pt x="320" y="896" on="1"/>
        <pt x="384" y="896" on="1"/>
        <pt x="384" y="960" on="1"/>
        <pt x="384" y="1024" on="1"/>
        <pt x="576" y="1024" on="1"/>
        <pt x="768" y="1024" on="1"/>
        <pt x="768" y="960" on="1"/>
        <pt x="768" y="896" on="1"/>
        <pt x="832" y="896" on="1"/>
        <pt x="896" y="896" on="1"/>
        <pt x="896" y="832" on="1"/>
        <pt x="896" y="768" on="1"/>
        <pt x="960" y="768" on="1"/>
        <pt x="1024" y="768" on="1"/>
        <pt x="1024" y="576" on="1"/>
        <pt x="1024" y="384" on="1"/>
        <pt x="960" y="384" on="1"/>
        <pt x="896" y="384" on="1"/>
        <pt x="896" y="320" on="1"/>
        <pt x="896" y="256" on="1"/>
        <pt x="960" y="256" on="1"/>
        <pt x="1024" y="256" on="1"/>
        <pt x="1024" y="192" on="1"/>
        <pt x="1024" y="128" on="1"/>
        <pt x="832" y="128" on="1"/>
        <pt x="640" y="128" on="1"/>
        <pt x="640" y="256" on="1"/>
        <pt x="640" y="384" on="1"/>
        <pt x="704" y="384" on="1"/>
        <pt x="768" y="384" on="1"/>
        <pt x="768" y="576" on="1"/>
        <pt x="768" y="768" on="1"/>
        <pt x="704" y="768" on="1"/>
        <pt x="640" y="768" on="1"/>
        <pt x="640" y="832" on="1"/>
        <pt x="640" y="896" on="1"/>
        <pt x="576" y="896" on="1"/>
        <pt x="512" y="896" on="1"/>
        <pt x="512" y="832" on="1"/>
        <pt x="512" y="768" on="1"/>
        <pt x="448" y="768" on="1"/>
        <pt x="384" y="768" on="1"/>
        <pt x="384" y="576" on="1"/>
        <pt x="384" y="384" on="1"/>
        <pt x="448" y="384" on="1"/>
        <pt x="512" y="384" on="1"/>
        <pt x="512" y="256" on="1"/>
        <pt x="512" y="128" on="1"/>
        <pt x="320" y="128" on="1"/>
        <pt x="128" y="128" on="1"/>
        <pt x="128" y="192" on="1"/>
        <pt x="128" y="256" on="1"/>
        <pt x="192" y="256" on="1"/>
        <pt x="256" y="256" on="1"/>
        <pt x="256" y="320" on="1"/>
        <pt x="256" y="384" on="1"/>
        <pt x="192" y="384" on="1"/>
        <pt x="128" y="384" on="1"/>
        <pt x="128" y="576" on="1"/>
        <pt x="128" y="768" on="1"/>
        <pt x="64" y="768" on="1"/>
        <pt x="0" y="768" on="1"/>
        <pt x="0" y="832" on="1"/>
        <pt x="0" y="896" on="1"/>
        <pt x="64" y="896" on="1"/>
        <pt x="128" y="896" on="1"/>
      </contour>
      <contour>
        <pt x="256" y="832" on="1"/>
        <pt x="256" y="896" on="1"/>
        <pt x="192" y="896" on="1"/>
        <pt x="128" y="896" on="1"/>
        <pt x="128" y="832" on="1"/>
        <pt x="128" y="768" on="1"/>
        <pt x="192" y="768" on="1"/>
        <pt x="256" y="768" on="1"/>
      </contour>
    </TTGlyph>
    <TTGlyph name="Omicron" xMin="0" yMin="128" xMax="896" yMax="1024">
      <contour>
        <pt x="128" y="960" on="1"/>
        <pt x="128" y="1024" on="1"/>
        <pt x="448" y="1024" on="1"/>
        <pt x="768" y="1024" on="1"/>
        <pt x="768" y="960" on="1"/>
        <pt x="768" y="896" on="1"/>
        <pt x="832" y="896" on="1"/>
        <pt x="896" y="896" on="1"/>
        <pt x="896" y="576" on="1"/>
        <pt x="896" y="256" on="1"/>
        <pt x="832" y="256" on="1"/>
        <pt x="768" y="256" on="1"/>
        <pt x="768" y="192" on="1"/>
        <pt x="768" y="128" on="1"/>
        <pt x="448" y="128" on="1"/>
        <pt x="128" y="128" on="1"/>
        <pt x="128" y="192" on="1"/>
        <pt x="128" y="256" on="1"/>
        <pt x="64" y="256" on="1"/>
        <pt x="0" y="256" on="1"/>
        <pt x="0" y="576" on="1"/>
        <pt x="0" y="896" on="1"/>
        <pt x="64" y="896" on="1"/>
        <pt x="128" y="896" on="1"/>
      </contour>
      <contour>
        <pt x="640" y="576" on="1"/>
        <pt x="640" y="896" on="1"/>
        <pt x="448" y="896" on="1"/>
        <pt x="256" y="896" on="1"/>
        <pt x="256" y="576" on="1"/>
        <pt x="256" y="256" on="1"/>
        <pt x="448" y="256" on="1"/>
        <pt x="640" y="256" on="1"/>
      </contour>
    </TTGlyph>
    <TTGlyph name="Omicrontonos" xMin="0" yMin="128" xMax="1024" yMax="1024">
      <contour>
        <pt x="128" y="960" on="1"/>
        <pt x="128" y="1024" on="1"/>
        <pt x="192" y="1024" on="1"/>
        <pt x="256" y="1024" on="1"/>
        <pt x="256" y="960" on="1"/>
        <pt x="256" y="896" on="1"/>
        <pt x="320" y="896" on="1"/>
        <pt x="384" y="896" on="1"/>
        <pt x="384" y="960" on="1"/>
        <pt x="384" y="1024" on="1"/>
        <pt x="640" y="1024" on="1"/>
        <pt x="896" y="1024" on="1"/>
        <pt x="896" y="960" on="1"/>
        <pt x="896" y="896" on="1"/>
        <pt x="960" y="896" on="1"/>
        <pt x="1024" y="896" on="1"/>
        <pt x="1024" y="576" on="1"/>
        <pt x="1024" y="256" on="1"/>
        <pt x="960" y="256" on="1"/>
        <pt x="896" y="256" on="1"/>
        <pt x="896" y="192" on="1"/>
        <pt x="896" y="128" on="1"/>
        <pt x="640" y="128" on="1"/>
        <pt x="384" y="128" on="1"/>
        <pt x="384" y="192" on="1"/>
        <pt x="384" y="256" on="1"/>
        <pt x="320" y="256" on="1"/>
        <pt x="256" y="256" on="1"/>
        <pt x="256" y="576" on="1"/>
        <pt x="256" y="896" on="1"/>
        <pt x="192" y="896" on="1"/>
        <pt x="128" y="896" on="1"/>
        <pt x="128" y="832" on="1"/>
        <pt x="128" y="768" on="1"/>
        <pt x="64" y="768" on="1"/>
        <pt x="0" y="768" on="1"/>
        <pt x="0" y="832" on="1"/>
        <pt x="0" y="896" on="1"/>
        <pt x="64" y="896" on="1"/>
        <pt x="128" y="896" on="1"/>
      </contour>
      <contour>
        <pt x="768" y="576" on="1"/>
        <pt x="768" y="896" on="1"/>
        <pt x="640" y="896" on="1"/>
        <pt x="512" y="896" on="1"/>
        <pt x="512" y="576" on="1"/>
        <pt x="512" y="256" on="1"/>
        <pt x="640" y="256" on="1"/>
        <pt x="768" y="256" on="1"/>
      </contour>
    </TTGlyph>
    <TTGlyph name="Oslash" xMin="0" yMin="128" xMax="896" yMax="1024">
      <contour>
        <pt x="384" y="576" on="1"/>
        <pt x="384" y="640" on="1"/>
        <pt x="448" y="640" on="1"/>
        <pt x="512" y="640" on="1"/>
        <pt x="512" y="576" on="1"/>
        <pt x="512" y="512" on="1"/>
        <pt x="448" y="512" on="1"/>
        <pt x="384" y="512" on="1"/>
      </contour>
      <contour>
        <pt x="128" y="960" on="1"/>
        <pt x="128" y="1024" on="1"/>
        <pt x="448" y="1024" on="1"/>
        <pt x="768" y="1024" on="1"/>
        <pt x="768" y="960" on="1"/>
        <pt x="768" y="896" on="1"/>
        <pt x="832" y="896" on="1"/>
        <pt x="896" y="896" on="1"/>
        <pt x="896" y="576" on="1"/>
        <pt x="896" y="256" on="1"/>
        <pt x="832" y="256" on="1"/>
        <pt x="768" y="256" on="1"/>
        <pt x="768" y="192" on="1"/>
        <pt x="768" y="128" on="1"/>
        <pt x="448" y="128" on="1"/>
        <pt x="128" y="128" on="1"/>
        <pt x="128" y="192" on="1"/>
        <pt x="128" y="256" on="1"/>
        <pt x="64" y="256" on="1"/>
        <pt x="0" y="256" on="1"/>
        <pt x="0" y="576" on="1"/>
        <pt x="0" y="896" on="1"/>
        <pt x="64" y="896" on="1"/>
        <pt x="128" y="896" on="1"/>
      </contour>
      <contour>
        <pt x="640" y="832" on="1"/>
        <pt x="640" y="896" on="1"/>
        <pt x="448" y="896" on="1"/>
        <pt x="256" y="896" on="1"/>
        <pt x="256" y="704" on="1"/>
        <pt x="256" y="512" on="1"/>
        <pt x="320" y="512" on="1"/>
        <pt x="384" y="512" on="1"/>
        <pt x="384" y="448" on="1"/>
        <pt x="384" y="384" on="1"/>
        <pt x="320" y="384" on="1"/>
        <pt x="256" y="384" on="1"/>
        <pt x="256" y="320" on="1"/>
        <pt x="256" y="256" on="1"/>
        <pt x="448" y="256" on="1"/>
        <pt x="640" y="256" on="1"/>
        <pt x="640" y="448" on="1"/>
        <pt x="640" y="640" on="1"/>
        <pt x="576" y="640" on="1"/>
        <pt x="512" y="640" on="1"/>
        <pt x="512" y="704" on="1"/>
        <pt x="512" y="768" on="1"/>
        <pt x="576" y="768" on="1"/>
        <pt x="640" y="768" on="1"/>
      </contour>
    </TTGlyph>
    <TTGlyph name="Otilde" xMin="0" yMin="128" xMax="896" yMax="1024">
      <contour>
        <pt x="256" y="960" on="1"/>
        <pt x="256" y="1024" on="1"/>
        <pt x="384" y="1024" on="1"/>
        <pt x="512" y="1024" on="1"/>
        <pt x="512" y="960" on="1"/>
        <pt x="512" y="896" on="1"/>
        <pt x="576" y="896" on="1"/>
        <pt x="640" y="896" on="1"/>
        <pt x="640" y="960" on="1"/>
        <pt x="640" y="1024" on="1"/>
        <pt x="704" y="1024" on="1"/>
        <pt x="768" y="1024" on="1"/>
        <pt x="768" y="960" on="1"/>
        <pt x="768" y="896" on="1"/>
        <pt x="704" y="896" on="1"/>
        <pt x="640" y="896" on="1"/>
        <pt x="640" y="832" on="1"/>
        <pt x="640" y="768" on="1"/>
        <pt x="704" y="768" on="1"/>
        <pt x="768" y="768" on="1"/>
        <pt x="768" y="704" on="1"/>
        <pt x="768" y="640" on="1"/>
        <pt x="832" y="640" on="1"/>
        <pt x="896" y="640" on="1"/>
        <pt x="896" y="448" on="1"/>
        <pt x="896" y="256" on="1"/>
        <pt x="832" y="256" on="1"/>
        <pt x="768" y="256" on="1"/>
        <pt x="768" y="192" on="1"/>
        <pt x="768" y="128" on="1"/>
        <pt x="448" y="128" on="1"/>
        <pt x="128" y="128" on="1"/>
        <pt x="128" y="192" on="1"/>
        <pt x="128" y="256" on="1"/>
        <pt x="64" y="256" on="1"/>
        <pt x="0" y="256" on="1"/>
        <pt x="0" y="448" on="1"/>
        <pt x="0" y="640" on="1"/>
        <pt x="64" y="640" on="1"/>
        <pt x="128" y="640" on="1"/>
        <pt x="128" y="768" on="1"/>
        <pt x="128" y="896" on="1"/>
        <pt x="192" y="896" on="1"/>
        <pt x="256" y="896" on="1"/>
      </contour>
      <contour>
        <pt x="384" y="832" on="1"/>
        <pt x="384" y="896" on="1"/>
        <pt x="320" y="896" on="1"/>
        <pt x="256" y="896" on="1"/>
        <pt x="256" y="832" on="1"/>
        <pt x="256" y="768" on="1"/>
        <pt x="320" y="768" on="1"/>
        <pt x="384" y="768" on="1"/>
      </contour>
      <contour>
        <pt x="640" y="448" on="1"/>
        <pt x="640" y="640" on="1"/>
        <pt x="448" y="640" on="1"/>
        <pt x="256" y="640" on="1"/>
        <pt x="256" y="448" on="1"/>
        <pt x="256" y="256" on="1"/>
        <pt x="448" y="256" on="1"/>
        <pt x="640" y="256" on="1"/>
      </contour>
    </TTGlyph>
    <TTGlyph name="P" xMin="0" yMin="128" xMax="896" yMax="1024">
      <contour>
        <pt x="0" y="576" on="1"/>
        <pt x="0" y="1024" on="1"/>
        <pt x="384" y="1024" on="1"/>
        <pt x="768" y="1024" on="1"/>
        <pt x="768" y="960" on="1"/>
        <pt x="768" y="896" on="1"/>
        <pt x="832" y="896" on="1"/>
        <pt x="896" y="896" on="1"/>
        <pt x="896" y="704" on="1"/>
        <pt x="896" y="512" on="1"/>
        <pt x="832" y="512" on="1"/>
        <pt x="768" y="512" on="1"/>
        <pt x="768" y="448" on="1"/>
        <pt x="768" y="384" on="1"/>
        <pt x="512" y="384" on="1"/>
        <pt x="256" y="384" on="1"/>
        <pt x="256" y="256" on="1"/>
        <pt x="256" y="128" on="1"/>
        <pt x="128" y="128" on="1"/>
        <pt x="0" y="128" on="1"/>
      </contour>
      <contour>
        <pt x="640" y="704" on="1"/>
        <pt x="640" y="896" on="1"/>
        <pt x="448" y="896" on="1"/>
        <pt x="256" y="896" on="1"/>
        <pt x="256" y="704" on="1"/>
        <pt x="256" y="512" on="1"/>
        <pt x="448" y="512" on="1"/>
        <pt x="640" y="512" on="1"/>
      </contour>
    </TTGlyph>
    <TTGlyph name="Phi" xMin="0" yMin="128" xMax="896" yMax="1024">
      <contour>
        <pt x="384" y="960" on="1"/>
        <pt x="384" y="1024" on="1"/>
        <pt x="448" y="1024" on="1"/>
        <pt x="512" y="1024" on="1"/>
        <pt x="512" y="960" on="1"/>
        <pt x="512" y="896" on="1"/>
        <pt x="640" y="896" on="1"/>
        <pt x="768" y="896" on="1"/>
        <pt x="768" y="832" on="1"/>
        <pt x="768" y="768" on="1"/>
        <pt x="832" y="768" on="1"/>
        <pt x="896" y="768" on="1"/>
        <pt x="896" y="576" on="1"/>
        <pt x="896" y="384" on="1"/>
        <pt x="832" y="384" on="1"/>
        <pt x="768" y="384" on="1"/>
        <pt x="768" y="320" on="1"/>
        <pt x="768" y="256" on="1"/>
        <pt x="640" y="256" on="1"/>
        <pt x="512" y="256" on="1"/>
        <pt x="512" y="192" on="1"/>
        <pt x="512" y="128" on="1"/>
        <pt x="448" y="128" on="1"/>
        <pt x="384" y="128" on="1"/>
        <pt x="384" y="192" on="1"/>
        <pt x="384" y="256" on="1"/>
        <pt x="256" y="256" on="1"/>
        <pt x="128" y="256" on="1"/>
        <pt x="128" y="320" on="1"/>
        <pt x="128" y="384" on="1"/>
        <pt x="64" y="384" on="1"/>
        <pt x="0" y="384" on="1"/>
        <pt x="0" y="576" on="1"/>
        <pt x="0" y="768" on="1"/>
        <pt x="64" y="768" on="1"/>
        <pt x="128" y="768" on="1"/>
        <pt x="128" y="832" on="1"/>
        <pt x="128" y="896" on="1"/>
        <pt x="256" y="896" on="1"/>
        <pt x="384" y="896" on="1"/>
      </contour>
      <contour>
        <pt x="384" y="576" on="1"/>
        <pt x="384" y="768" on="1"/>
        <pt x="320" y="768" on="1"/>
        <pt x="256" y="768" on="1"/>
        <pt x="256" y="576" on="1"/>
        <pt x="256" y="384" on="1"/>
        <pt x="320" y="384" on="1"/>
        <pt x="384" y="384" on="1"/>
      </contour>
      <contour>
        <pt x="640" y="576" on="1"/>
        <pt x="640" y="768" on="1"/>
        <pt x="576" y="768" on="1"/>
        <pt x="512" y="768" on="1"/>
        <pt x="512" y="576" on="1"/>
        <pt x="512" y="384" on="1"/>
        <pt x="576" y="384" on="1"/>
        <pt x="640" y="384" on="1"/>
      </contour>
    </TTGlyph>
    <TTGlyph name="Pi" xMin="0" yMin="128" xMax="896" yMax="1024">
      <contour>
        <pt x="0" y="576" on="1"/>
        <pt x="0" y="1024" on="1"/>
        <pt x="448" y="1024" on="1"/>
        <pt x="896" y="1024" on="1"/>
        <pt x="896" y="576" on="1"/>
        <pt x="896" y="128" on="1"/>
        <pt x="768" y="128" on="1"/>
        <pt x="640" y="128" on="1"/>
        <pt x="640" y="512" on="1"/>
        <pt x="640" y="896" on="1"/>
        <pt x="448" y="896" on="1"/>
        <pt x="256" y="896" on="1"/>
        <pt x="256" y="512" on="1"/>
        <pt x="256" y="128" on="1"/>
        <pt x="128" y="128" on="1"/>
        <pt x="0" y="128" on="1"/>
      </contour>
    </TTGlyph>
    <TTGlyph name="Psi" xMin="0" yMin="128" xMax="1024" yMax="1024">
      <contour>
        <pt x="0" y="832" on="1"/>
        <pt x="0" y="1024" on="1"/>
        <pt x="128" y="1024" on="1"/>
        <pt x="256" y="1024" on="1"/>
        <pt x="256" y="832" on="1"/>
        <pt x="256" y="640" on="1"/>
        <pt x="320" y="640" on="1"/>
        <pt x="384" y="640" on="1"/>
        <pt x="384" y="832" on="1"/>
        <pt x="384" y="1024" on="1"/>
        <pt x="512" y="1024" on="1"/>
        <pt x="640" y="1024" on="1"/>
        <pt x="640" y="832" on="1"/>
        <pt x="640" y="640" on="1"/>
        <pt x="704" y="640" on="1"/>
        <pt x="768" y="640" on="1"/>
        <pt x="768" y="832" on="1"/>
        <pt x="768" y="1024" on="1"/>
        <pt x="896" y="1024" on="1"/>
        <pt x="1024" y="1024" on="1"/>
        <pt x="1024" y="832" on="1"/>
        <pt x="1024" y="640" on="1"/>
        <pt x="960" y="640" on="1"/>
        <pt x="896" y="640" on="1"/>
        <pt x="896" y="576" on="1"/>
        <pt x="896" y="512" on="1"/>
        <pt x="768" y="512" on="1"/>
        <pt x="640" y="512" on="1"/>
        <pt x="640" y="384" on="1"/>
        <pt x="640" y="256" on="1"/>
        <pt x="704" y="256" on="1"/>
        <pt x="768" y="256" on="1"/>
        <pt x="768" y="192" on="1"/>
        <pt x="768" y="128" on="1"/>
        <pt x="512" y="128" on="1"/>
        <pt x="256" y="128" on="1"/>
        <pt x="256" y="192" on="1"/>
        <pt x="256" y="256" on="1"/>
        <pt x="320" y="256" on="1"/>
        <pt x="384" y="256" on="1"/>
        <pt x="384" y="384" on="1"/>
        <pt x="384" y="512" on="1"/>
        <pt x="256" y="512" on="1"/>
        <pt x="128" y="512" on="1"/>
        <pt x="128" y="576" on="1"/>
        <pt x="128" y="640" on="1"/>
        <pt x="64" y="640" on="1"/>
        <pt x="0" y="640" on="1"/>
      </contour>
    </TTGlyph>
    <TTGlyph name="Q" xMin="0" yMin="128" xMax="896" yMax="1024">
      <contour>
        <pt x="128" y="960" on="1"/>
        <pt x="128" y="1024" on="1"/>
        <pt x="448" y="1024" on="1"/>
        <pt x="768" y="1024" on="1"/>
        <pt x="768" y="960" on="1"/>
        <pt x="768" y="896" on="1"/>
        <pt x="832" y="896" on="1"/>
        <pt x="896" y="896" on="1"/>
        <pt x="896" y="640" on="1"/>
        <pt x="896" y="384" on="1"/>
        <pt x="832" y="384" on="1"/>
        <pt x="768" y="384" on="1"/>
        <pt x="768" y="320" on="1"/>
        <pt x="768" y="256" on="1"/>
        <pt x="832" y="256" on="1"/>
        <pt x="896" y="256" on="1"/>
        <pt x="896" y="192" on="1"/>
        <pt x="896" y="128" on="1"/>
        <pt x="832" y="128" on="1"/>
        <pt x="768" y="128" on="1"/>
        <pt x="768" y="192" on="1"/>
        <pt x="768" y="256" on="1"/>
        <pt x="704" y="256" on="1"/>
        <pt x="640" y="256" on="1"/>
        <pt x="640" y="192" on="1"/>
        <pt x="640" y="128" on="1"/>
        <pt x="384" y="128" on="1"/>
        <pt x="128" y="128" on="1"/>
        <pt x="128" y="192" on="1"/>
        <pt x="128" y="256" on="1"/>
        <pt x="64" y="256" on="1"/>
        <pt x="0" y="256" on="1"/>
        <pt x="0" y="576" on="1"/>
        <pt x="0" y="896" on="1"/>
        <pt x="64" y="896" on="1"/>
        <pt x="128" y="896" on="1"/>
      </contour>
      <contour>
        <pt x="640" y="704" on="1"/>
        <pt x="640" y="896" on="1"/>
        <pt x="448" y="896" on="1"/>
        <pt x="256" y="896" on="1"/>
        <pt x="256" y="576" on="1"/>
        <pt x="256" y="256" on="1"/>
        <pt x="384" y="256" on="1"/>
        <pt x="512" y="256" on="1"/>
        <pt x="512" y="320" on="1"/>
        <pt x="512" y="384" on="1"/>
        <pt x="448" y="384" on="1"/>
        <pt x="384" y="384" on="1"/>
        <pt x="384" y="448" on="1"/>
        <pt x="384" y="512" on="1"/>
        <pt x="512" y="512" on="1"/>
        <pt x="640" y="512" on="1"/>
      </contour>
    </TTGlyph>
</ttFont>
